<?xml version="1.0" standalone="no"?>
<!DOCTYPE svg PUBLIC "-//W3C//DTD SVG 1.1//EN" "http://www.w3.org/Graphics/SVG/1.1/DTD/svg11.dtd" >
<svg>
<metadata>
Created by FontForge 20090622 at Mon Sep 14 20:35:28 2020
 By deploy user
Special for Sergey Pavlov from Yuri A.Lyamin.
</metadata>
<defs>
<font id="SkazkaForSergeMedium" horiz-adv-x="2351" >
  <font-face 
    font-family="SkazkaForSerge"
    font-weight="400"
    font-stretch="normal"
    units-per-em="4096"
    panose-1="2 2 114 0 0 0 0 0 0 0"
    ascent="3276"
    descent="-820"
    x-height="2138"
    cap-height="2933"
    bbox="-381 -819 4739 3580"
    underline-thickness="20"
    underline-position="-123"
    unicode-range="U+0020-U+2122"
  />
<missing-glyph horiz-adv-x="3072" 
d="M512 0v2560h2048v-2560h-2048zM2494 66v2428h-1916v-2428h1916z" />
    <glyph glyph-name=".notdef" horiz-adv-x="3072" 
d="M512 0v2560h2048v-2560h-2048zM2494 66v2428h-1916v-2428h1916z" />
    <glyph glyph-name=".null" horiz-adv-x="0" 
 />
    <glyph glyph-name="nonmarkingreturn" horiz-adv-x="0" 
 />
    <glyph glyph-name="space" unicode=" " horiz-adv-x="1212" 
 />
    <glyph glyph-name="exclam" unicode="!" horiz-adv-x="1139" 
d="M893 635h-508q-65 0 -96 20t-31 74v1872q0 73 -32.5 92.5t-119 53t-86.5 75.5q0 111 291 111h402q303 0 303 -111q0 -41 -86.5 -78.5t-117 -56t-30.5 -86.5v-1655q0 -48 25 -74.5t77 -52t77.5 -45.5t25.5 -57q0 -82 -94 -82zM246 213q0 101 79 169.5t195 68.5
q117 0 196 -68.5t79 -169.5t-79 -169.5t-196 -68.5q-116 0 -195 68.5t-79 169.5z" />
    <glyph glyph-name="quotedbl" unicode="&#x22;" horiz-adv-x="1139" 
d="M94 1896l-65 639q-9 74 -9 99q0 154 39.5 238.5t165.5 84.5q128 0 166.5 -84.5t38.5 -238.5q0 -33 -8 -99l-66 -639q-18 -172 -131 -172t-131 172zM782 1896l-65 639q-8 66 -8 99q0 154 38.5 238.5t165.5 84.5q128 0 166.5 -84.5t38.5 -238.5q0 -33 -8 -99l-66 -639
q-18 -172 -131 -172q-111 0 -131 172z" />
    <glyph glyph-name="numbersign" unicode="#" horiz-adv-x="2425" 
d="M438 0l103 754h-361v393h414l65 491h-360v394h414l106 753h385l-102 -753h397l103 753h385l-103 -753h361v-394h-414l-66 -491h361v-393h-414l-106 -754h-385l102 754h-397l-103 -754h-385zM1446 1638h-402l-65 -491h401z" />
    <glyph glyph-name="dollar" unicode="$" horiz-adv-x="2425" 
d="M1020 -287v262q-419 0 -664 191.5t-245 611.5q0 201 84 373.5t236.5 274.5t346.5 102q150 0 259 -49t159.5 -95.5t131 -129.5t110.5 -83q22 0 49 25q0 -311 -246 -311q-87 0 -205 61q-114 58 -184 58q-78 0 -123 -55t-45 -154q0 -246 541 -246q256 0 410.5 131t154.5 418
q0 286 -206 459.5t-605 354.5t-590.5 320.5t-191.5 376.5q0 169 130 246.5t451 77.5h242v217q0 29 22.5 49t55.5 20q20 0 61 -4t62 -4t59 4t59 4q30 0 60.5 -20.5t30.5 -48.5v-217h274q500 0 500 -201q0 -86 -47.5 -136t-139.5 -95.5t-135 -77.5t-43 -92q0 -41 49 -78
q-35 -25 -110 -25q-62 0 -111 44.5t-49 119.5q0 57 30.5 131t30.5 86q0 111 -131 111h-741q-60 0 -110 -32t-50 -79q0 -85 74 -123l868 -438q230 -114 393.5 -282t247.5 -372.5t84 -435.5q0 -325 -146 -547.5t-354 -329t-384 -106.5v-262q0 -28 -30.5 -48.5t-60.5 -20.5
q-21 0 -59 4t-59 4t-62 -4t-61 -4q-33 0 -55.5 20t-22.5 49z" />
    <glyph glyph-name="percent" unicode="%" horiz-adv-x="3187" 
d="M90 1970q0 230 64.5 421t199.5 305t330 114q141 0 250.5 -41t109.5 -107q0 -40 -32 -98q262 -88 262 -594q0 -299 -95.5 -506t-334.5 -207q-26 0 -78 12.5t-82 12.5q-34 0 -85 -12.5t-83 -12.5q-254 0 -340 191t-86 522zM377 2077q0 -207 55 -333t227 -126q178 0 253 118
t75 283q0 174 -15.5 277.5t-78.5 124.5q-49 -33 -90 -33q-70 0 -70 82q0 66 66 82q8 12 8 28q0 66 -148 66q-140 0 -211 -172.5t-71 -396.5zM1913 688q0 230 65 420.5t199.5 305t329.5 114.5q141 0 250.5 -42t109.5 -106q0 -42 -33 -98q263 -88 263 -594q0 -299 -96.5 -506
t-334.5 -207q-27 0 -78 12.5t-81 12.5q-36 0 -87 -12.5t-81 -12.5q-254 0 -340 191t-86 522zM2200 795q0 -207 55 -333t227 -126q176 0 252 118t76 283q0 174 -15.5 277.5t-78.5 124.5q-49 -33 -90 -33q-70 0 -70 82q0 66 65 82q9 12 9 28q0 66 -148 66q-141 0 -211.5 -171
t-70.5 -398zM721 147l1597 2630q52 82 119 82q42 0 74.5 -27.5t32.5 -62.5q0 -52 -45 -131l-1594 -2634q-49 -78 -123 -78q-80 0 -102 78q0 74 41 143z" />
    <glyph glyph-name="ampersand" unicode="&#x26;" horiz-adv-x="3035" 
d="M193 815q0 313 126.5 533t344 348.5t507.5 187.5q90 25 113 34.5t23 31.5q0 20 -191 62t-309 77q-438 129 -438 405q0 168 128.5 271t365.5 147.5t567 44.5q275 0 510 -24t405 -104t170 -232q0 -250 -397 -250q-44 0 -138 10t-141 10q-78 0 -78 -53q0 -8 8 -24
q-122 32 -122 168q0 64 44 91t122.5 52t78.5 49q0 94 -413 94q-230 0 -383.5 -50.5t-153.5 -211.5q0 -123 114.5 -196.5t336.5 -147.5q166 -55 242.5 -98t76.5 -98q0 -39 -221 -147t-350 -183t-264.5 -241.5t-135.5 -395.5q0 -179 108.5 -290.5t285.5 -111.5q73 0 213 12.5
t225 12.5q62 0 184.5 -12.5t204.5 -12.5q170 0 290 85.5t120 275.5q0 270 -222 270q-147 0 -147 -135q0 -27 34 -59t64 -35q-34 -51 -98 -83t-135 -32q-122 0 -198.5 61t-76.5 173q0 137 120 216.5t367 153t330.5 108t83.5 111.5q0 54 -47 78.5t-104 24.5q164 164 307 164
q112 0 183 -68t71 -178q0 -265 -479 -385q126 -101 192 -252.5t66 -321.5q0 -231 -95 -405.5t-266.5 -269.5t-388.5 -95q-83 0 -262 25t-262 25q-79 0 -250 -25q-179 -25 -254 -25q-225 0 -386 109t-243.5 299.5t-82.5 431.5z" />
    <glyph glyph-name="quotesingle" unicode="'" horiz-adv-x="754" 
d="M246 1896l-66 639q-8 66 -8 99q0 154 38.5 238.5t166.5 84.5q126 0 165.5 -84.5t39.5 -238.5q0 -40 -9 -99l-65 -639q-18 -172 -131 -172t-131 172z" />
    <glyph glyph-name="parenleft" unicode="(" horiz-adv-x="1819" 
d="M1462 2507h-205q-41 0 -110 -172q-66 -150 -125 -364.5t-105 -454.5t-72 -473.5t-26 -424.5q0 -226 43 -432t158.5 -374.5t318.5 -241.5q195 -69 241 -104t46 -101q0 -72 -55 -107.5t-129 -35.5q-43 0 -115 8t-102 8q-29 0 -103 -8t-114 -8q-230 0 -380 213t-217 503
t-67 508q0 268 64 596t177.5 676.5t253 661t279.5 540.5q37 37 127 37q24 0 73 -8t75 -8q27 0 91 8t97 8q111 0 111 -45q0 -27 -29 -113t-65.5 -166.5t-61.5 -105.5q-20 -20 -74 -20z" />
    <glyph glyph-name="parenright" unicode=")" horiz-adv-x="1819" 
d="M561 2507h-205q-53 0 -73 20q-38 38 -97 190.5t-59 194.5q0 45 111 45q33 0 97 -8t91 -8q24 0 73 8t74 8q91 0 127 -37q140 -225 282 -545.5t253.5 -662.5t175.5 -670t64 -596q0 -218 -67 -508t-216.5 -503t-380.5 -213q-41 0 -115 8t-102 8q-31 0 -102 -8t-115 -8
q-74 0 -129 36t-55 107q0 66 46 101t240 104q293 105 406.5 396t113.5 652q0 248 -43.5 570.5t-119.5 634.5t-164 512q-69 172 -111 172z" />
    <glyph glyph-name="asterisk" unicode="*" horiz-adv-x="1290" 
d="M647 2957q164 -99 164 -180q0 -54 -48.5 -154.5t-53.5 -119.5q-17 -64 -17 -164q59 28 90 65q47 34 148 168q75 90 172 90q45 0 155 -61q0 -143 -24 -184q-50 -86 -156 -86q-33 0 -90 2t-82 2q-130 -53 -164 -74q156 -90 316 -90q109 0 160 -94q13 -35 20.5 -105.5
t11.5 -91.5q-20 -4 -78 -24.5t-94 -20.5q-96 0 -188 139q-58 117 -197 197q0 -96 17 -160q9 -33 55.5 -130t46.5 -144q0 -71 -164 -185q-164 114 -164 185q0 43 46.5 139t56.5 135q16 65 16 160q-140 -82 -196 -197q-94 -139 -189 -139q-34 0 -93.5 20.5t-78.5 24.5
q8 66 12.5 111t20.5 86q50 94 160 94q160 0 315 90q-38 23 -164 74q-25 0 -81 -2t-91 -2q-106 0 -156 86q-19 33 -28 184q125 61 160 61q97 0 172 -90l41.5 -58.5t48.5 -59t57 -50.5q34 -38 90 -65q0 99 -16 164q-7 26 -55 125t-48 149q0 81 164 180z" />
    <glyph glyph-name="plus" unicode="+" horiz-adv-x="2458" 
d="M1024 1241v832h410v-832h827v-410h-827v-831h-410v831h-827v410h827z" />
    <glyph glyph-name="comma" unicode="," horiz-adv-x="1212" 
d="M643 475q115 0 182.5 -71.5t67.5 -202.5q0 -316 -275 -348q-32 -7 -108 -17.5t-121 -27t-70 -54.5q12 79 52.5 111t120.5 65q79 30 121 59t55 89q-37 -12 -70 -12q-81 0 -130.5 49.5t-49.5 142.5q0 102 60.5 159.5t164.5 57.5z" />
    <glyph glyph-name="hyphen" unicode="-" horiz-adv-x="1593" 
d="M213 1245h1167q48 0 83.5 -39.5t35.5 -95.5q0 -60 -34.5 -93.5t-84.5 -33.5h-1167q-49 0 -84 34t-35 93q0 55 36 95t83 40z" />
    <glyph glyph-name="period" unicode="." horiz-adv-x="1212" 
d="M319 225q0 111 80 180.5t207 69.5q129 0 208 -68t79 -182q0 -112 -80 -181t-207 -69q-126 0 -206.5 69t-80.5 181z" />
    <glyph glyph-name="slash" unicode="/" horiz-adv-x="2048" 
d="M41 233l1663 2651q49 73 160 73q66 0 119 -47t53 -112q0 -39 -33 -99l-1663 -2650q-50 -74 -156 -74q-67 0 -119.5 48.5t-52.5 111.5q0 47 29 98z" />
    <glyph glyph-name="zero" unicode="0" horiz-adv-x="2425" 
d="M180 1200q0 520 91.5 871.5t319.5 545t626 193.5q207 0 344.5 -47t201.5 -114.5t64 -125.5q0 -75 -29 -143q447 -125 447 -1020q0 -1385 -766 -1385q-56 0 -151.5 12.5t-147.5 12.5q-57 0 -151.5 -12.5t-143.5 -12.5q-338 0 -521.5 328t-183.5 897zM1884 1532
q0 279 -58 440.5t-134 161.5q-39 0 -96 -24.5t-97 -24.5q-59 0 -99 35t-40 88q0 52 33 85.5l65.5 66.5t32.5 85q0 92 -87.5 134t-211.5 42q-307 0 -454.5 -249.5t-147.5 -868.5q0 -268 49.5 -470t189 -331t392.5 -129q256 0 404.5 136t203.5 348.5t55 474.5z" />
    <glyph glyph-name="one" unicode="1" horiz-adv-x="1667" 
d="M1192 2703v-2220q0 -99 35.5 -133.5t137 -112t101.5 -135.5q0 -39 -76.5 -83t-181.5 -44q-42 0 -128 12.5t-142 12.5q-69 0 -158.5 -12.5t-128.5 -12.5q-101 0 -179.5 44.5t-78.5 82.5q0 48 30.5 76.5t100 77t107 100t37.5 127.5v1778q-71 -35 -172.5 -104t-165 -101.5
t-133.5 -32.5q-80 0 -138.5 36t-58.5 91q0 68 74 86q224 57 338.5 107t308.5 172q49 32 210 163.5t191 131.5q70 0 70 -107z" />
    <glyph glyph-name="two" unicode="2" horiz-adv-x="2425" 
d="M209 2085q0 243 101 404t315 241t546 80q203 0 379.5 -38.5t313 -123.5t213.5 -223.5t77 -327.5q0 -248 -129.5 -424t-388 -339l-464 -287t-336.5 -256q-82 -82 -82 -127q0 -91 155 -91q54 0 169.5 12.5t187.5 12.5q71 0 191.5 -12.5t180.5 -12.5q108 0 144.5 49
t36.5 209q0 66 54 117t118 51q86 0 118 -65q-69 -23 -69 -148q0 -38 82 -172.5t127 -226t45 -186.5q0 -102 -157.5 -164t-301.5 -62q-103 0 -313 12.5t-338 12.5q-121 0 -322.5 -12.5t-288.5 -12.5q-442 0 -442 185q0 191 175.5 378.5t540 489.5t549.5 519.5t185 447.5
q0 186 -65.5 323t-188.5 208t-295 71q-118 0 -222.5 -36.5t-172.5 -117.5t-68 -202q0 -107 73.5 -187t193.5 -80q57 0 102 30.5t97.5 88t87.5 86.5t77 29q81 0 115 -66q-20 -3 -36.5 -24.5t-16.5 -44.5q0 -11 10 -73t10 -104q0 -114 -63 -204.5t-172 -141.5t-244 -51
q-175 0 -309.5 73.5t-209.5 208t-75 304.5z" />
    <glyph glyph-name="three" unicode="3" horiz-adv-x="2425" 
d="M2322 786q0 -186 -84.5 -374t-264.5 -312.5t-449 -124.5q-51 0 -167.5 12.5t-193.5 12.5q-94 0 -226 -12.5t-200 -12.5q-147 0 -294.5 60.5t-244 183t-96.5 293.5q0 121 49.5 216.5t133.5 148t186 57.5q146 0 205 -66q-49 -41 -49 -143q0 -69 68.5 -110.5t156.5 -41.5
q53 0 134.5 6.5t131.5 6.5q47 0 132.5 -6.5t150.5 -6.5q114 0 206.5 97.5t92.5 263.5q0 244 -140 397t-376 209q-66 18 -230 42.5t-245.5 51t-81.5 82.5q0 31 27 57t84 51t129 49.5l214 72.5q229 75 350.5 124t186.5 109.5t65 151.5q0 153 -135.5 221.5t-310.5 68.5
q-156 0 -274.5 -32.5t-118.5 -94.5q0 -35 93.5 -72.5t133 -60.5t39.5 -92q0 -64 -33 -106q-49 65 -98 65q-25 0 -123.5 -18.5t-175.5 -18.5q-120 0 -240.5 71t-120.5 200q17 348 869 348q445 0 732.5 -110t287.5 -373q0 -235 -214.5 -338.5t-518.5 -153.5
q-54 -9 -183.5 -26.5t-172 -27.5t-42.5 -24q0 -20 42 -34t160 -36t196 -40q397 -94 622 -296t225 -565z" />
    <glyph glyph-name="four" unicode="4" horiz-adv-x="2425" 
d="M1241 1159v1278q0 111 -78 111q-85 0 -106 -111q-78 -393 -161.5 -619t-170 -404t-86.5 -243q0 -90 139 -90q116 0 312.5 16.5t265.5 16.5q145 0 298 -10t189 -10q180 0 180 155q0 42 -41 135l172 -57q117 -36 173.5 -104.5t56.5 -206.5q0 -191 -105.5 -308.5
t-275.5 -117.5q-73 0 -218.5 20.5t-256.5 20.5q-185 0 -506 -16.5t-457 -16.5q-176 0 -350 60.5t-174 230.5q0 55 80 173.5l291 414.5t317.5 479t106.5 285q0 68 -16 114.5t-37 85.5t-43.5 86.5t-22.5 85.5q0 67 48.5 104t170.5 52.5t334 15.5q700 0 700 -98
q0 -19 -65.5 -69.5t-102.5 -86t-37 -77.5v-1303q-215 20 -266 20q-43 0 -129 -6t-129 -6zM1241 430v127q180 16 270 16q53 0 138 -13t116 -15v-127q0 -30 35 -59t110.5 -76.5t112.5 -80.5t37 -71q0 -60 -130.5 -108t-200.5 -48q-35 0 -104.5 12.5t-108.5 12.5
q-47 0 -124 -12.5t-118 -12.5q-70 0 -205 48.5t-135 107.5q0 49 37 77t114.5 66.5t116.5 71t39 84.5z" />
    <glyph glyph-name="five" unicode="5" horiz-adv-x="2425" 
d="M135 524q0 181 94 314t254 133q257 0 279 -164q-127 0 -127 -135q0 -99 176 -99q39 0 118.5 14.5t135.5 14.5q75 0 170 -14.5t133 -14.5q76 0 158 53t136 147t54 210q0 228 -95.5 394t-260.5 250.5t-369 84.5q-110 0 -250 -29q0 -164 -70 -278.5t-229 -114.5
q-192 0 -192 217q0 207 315 316q-4 144 -58.5 260t-149.5 275.5t-95 209.5q0 185 250 185q88 0 264 -25t293 -25q82 0 328.5 25t347.5 25q114 0 171.5 -24.5t57.5 -111.5q0 -91 -69 -181.5t-191 -149t-276 -58.5q-102 0 -312 53q-139 37 -254 37q-69 0 -106 -29t-37 -110
q0 -33 3.5 -85.5t10 -109l11.5 -100.5q297 41 450 41q492 0 789 -290t297 -795q0 -239 -102 -438.5t-260.5 -313t-317.5 -113.5q-103 0 -258.5 12.5t-237.5 12.5t-209.5 -12.5t-191.5 -12.5q-222 0 -400 151t-178 398zM414 1544q0 -65 61 -65q103 0 103 102q0 17 -5 38
t-8 36q-49 -10 -100 -39t-51 -72z" />
    <glyph glyph-name="six" unicode="6" horiz-adv-x="2425" 
d="M164 1262q0 218 32.5 435t106 415.5t189.5 345.5q139 180 299.5 237.5t437.5 57.5q827 0 827 -111q0 -90 -56.5 -187t-151.5 -160t-210 -63q-114 0 -177.5 44.5t-211.5 185.5q-78 78 -213 78q-248 0 -401 -377q-23 -49 -46.5 -139.5t-37.5 -183t-14 -157.5q0 -23 2 -68
t2 -67h8q82 182 275 306t483 124q262 0 480 -117.5t346 -344.5t128 -533q0 -236 -89 -470.5t-264 -386t-421 -151.5q2 0 -67.5 12.5t-182.5 12.5q-123 0 -195.5 -12.5t-87.5 -12.5q-272 3 -449.5 189t-259 477.5t-81.5 620.5zM664 1126q0 -260 156 -406.5t417 -146.5
q260 0 404.5 169t144.5 429q0 249 -148 409.5t-393 160.5q-275 0 -428 -169t-153 -446z" />
    <glyph glyph-name="seven" unicode="7" horiz-adv-x="2195" 
d="M549 152q0 30 34 63t97.5 82.5t93.5 79.5q25 23 44 119l51.5 264.5t84.5 329.5q47 149 96.5 282.5t123 292.5t182 357.5t241.5 410.5l-8 8q-207 -188 -495 -188q-249 0 -525 143l-8 -16q172 -216 172 -377q0 -147 -72 -233.5t-165 -86.5q-67 0 -112 50.5t-48 121.5
q20 -8 57 -8q22 0 37.5 21.5t15.5 44.5q0 113 -167 266l-94 87.5t-92 96.5t-76 109.5t-29 112.5q0 143 364 143q85 0 317.5 -12.5t391.5 -12.5q52 0 281.5 25t373.5 25q125 0 238.5 -56.5t113.5 -124.5q0 -34 -28 -69.5t-101.5 -111.5t-126.5 -139t-108 -155
q-93 -157 -154.5 -403.5t-88.5 -502t-27 -450.5q0 -177 13.5 -260.5t63.5 -140.5q26 -29 111.5 -101t85.5 -116q0 -60 -86 -104t-197 -44q-61 0 -152.5 12.5t-137.5 12.5q-55 0 -145.5 -12.5t-137.5 -12.5q-100 0 -201.5 53t-101.5 124z" />
    <glyph glyph-name="eight" unicode="8" horiz-adv-x="2425" 
d="M1212 1802q148 0 305.5 104.5t157.5 317.5q0 165 -137.5 240.5t-337.5 75.5q-189 0 -311.5 -79.5t-122.5 -240.5q0 -130 80 -225.5t187 -144t179 -48.5zM1208 0q-80 0 -211 -12.5t-186 -12.5q-193 0 -335.5 98.5t-217 263t-74.5 355.5q0 232 82 438.5t236 363t362 239.5
q-134 47 -260 126t-207.5 185.5t-81.5 224.5q0 252 245 368t640 116q325 0 533 -64t300.5 -170.5t92.5 -237.5q0 -187 -168 -328t-389 -220q193 -84 346 -242t239.5 -366t86.5 -433q0 -198 -67.5 -360t-210.5 -259.5t-361 -97.5q-49 0 -179 12.5t-215 12.5zM1221 1589
q-279 0 -450 -167t-177 -406q0 -154 88 -261.5t207 -107.5q35 0 138 12.5t181 12.5q56 0 145.5 -12.5t133.5 -12.5q160 0 252 104t92 265q0 150 -85.5 282.5t-226 211.5t-298.5 79z" />
    <glyph glyph-name="nine" unicode="9" horiz-adv-x="2425" 
d="M147 2023q0 762 1037 762q430 0 672 -175.5t331.5 -470t89.5 -705.5q0 -391 -85 -720t-285.5 -534t-522.5 -205q-20 0 -99 12.5t-155 12.5q-97 0 -235 -12.5t-190 -12.5q-120 0 -238 72t-192 195.5t-74 265.5q0 190 108 302t203 112q18 0 44.5 -6.5t41.5 -6.5q18 0 53 2
t45 2q-48 -51 -67 -83.5t-19 -84.5q0 -68 55 -124t142 -56q53 0 140.5 8.5t137.5 8.5q49 0 146.5 -12.5t132.5 -12.5q154 0 280.5 127.5t199.5 338.5t73 447q0 67 -8 197h-8q-245 -377 -807 -377q-236 0 -452.5 78.5t-355.5 244.5t-139 410zM1819 2085q0 152 -84 263
t-219.5 167.5t-282.5 56.5q-251 0 -394 -135t-143 -385q0 -208 159.5 -354t369.5 -146q252 0 423 141.5t171 391.5z" />
    <glyph glyph-name="colon" unicode=":" horiz-adv-x="1212" 
d="M319 225q0 111 80 180.5t207 69.5q129 0 208 -68t79 -182q0 -112 -80 -181t-207 -69q-126 0 -206.5 69t-80.5 181zM319 1683q0 111 80 180.5t207 69.5q129 0 208 -68t79 -182q0 -113 -80 -181t-207 -68q-126 0 -206.5 68.5t-80.5 180.5z" />
    <glyph glyph-name="semicolon" unicode=";" horiz-adv-x="1212" 
d="M643 475q115 0 182.5 -71.5t67.5 -202.5q0 -316 -275 -348q-32 -7 -108 -17.5t-121 -27t-70 -54.5q12 79 52.5 111t120.5 65q79 30 121 59t55 89q-37 -12 -70 -12q-81 0 -130.5 49.5t-49.5 142.5q0 102 60.5 159.5t164.5 57.5zM319 1683q0 111 80 180.5t207 69.5
q129 0 208 -68t79 -182q0 -113 -80 -181t-207 -68q-126 0 -206.5 68.5t-80.5 180.5z" />
    <glyph glyph-name="less" unicode="&#x3c;" horiz-adv-x="2458" 
d="M2269 410v-443l-2081 885v369l2081 884v-442l-1487 -627z" />
    <glyph glyph-name="equal" unicode="=" horiz-adv-x="2458" 
d="M2261 1679v-409h-2064v409h2064zM2261 803v-410h-2064v410h2064z" />
    <glyph glyph-name="greater" unicode="&#x3e;" horiz-adv-x="2458" 
d="M188 410l1487 626l-1487 627v442l2081 -884v-369l-2081 -885v443z" />
    <glyph glyph-name="question" unicode="?" horiz-adv-x="1896" 
d="M1044 635h-405q-156 0 -156 156q0 187 89.5 339t277.5 381t281.5 396t93.5 374q0 488 -410 488q-167 0 -255.5 -104t-88.5 -269q0 -99 38.5 -172.5t113.5 -73.5q41 0 68.5 21.5t62.5 64.5t63 64.5t68 21.5q65 0 123 -65q-58 -16 -58 -62q0 -21 14.5 -61.5t14.5 -60.5
q0 -161 -126.5 -246.5t-315.5 -85.5q-229 0 -373 157t-144 396q0 174 67.5 300.5t186 207t271.5 118t332 37.5q247 0 446 -84.5t312.5 -252t113.5 -404.5q0 -208 -92 -356.5t-200.5 -231t-379.5 -260.5q-142 -84 -269.5 -222.5t-127.5 -268.5q0 -78 74 -78h151q58 0 58 45
q0 12 -22.5 64t-22.5 100q0 42 28 66t70 24q56 0 94 -17q-29 -12 -29 -61q0 -9 39.5 -74.5t63.5 -114t24 -86.5q0 -66 -43 -88t-121 -22zM553 213q0 101 79 169.5t195 68.5q117 0 196 -68.5t79 -169.5t-79 -169.5t-196 -68.5q-116 0 -195 68.5t-79 169.5z" />
    <glyph glyph-name="at" unicode="@" horiz-adv-x="3277" 
d="M2068 1712q0 145 -36.5 218t-126.5 73q-96 0 -210 -101t-192 -271.5t-78 -364.5q0 -159 53 -253.5t128 -94.5q105 0 200 83.5t165 262.5t97 448zM2208 2175h323l-241 -1016q-9 -41 -9 -119q0 -63 30 -119.5t93 -56.5q100 0 196.5 112t157 298.5t60.5 396.5
q0 290 -134.5 518.5t-385 355t-582.5 126.5q-268 0 -512.5 -135t-400.5 -434t-156 -754q0 -301 149 -550t405 -392.5t556 -143.5q467 0 852 221l41 -241q-473 -267 -889 -267q-529 0 -894 211t-542.5 537.5t-177.5 669.5q0 474 202.5 830t560.5 545t806 189q309 0 569 -92
t449 -262t292 -406.5t103 -521.5q0 -226 -96 -466.5t-279 -399t-423 -158.5q-130 0 -218 59.5t-129.5 133.5t-41.5 119h-9q-17 -43 -89 -115t-179 -130t-223 -63q-94 0 -192.5 50t-166 168t-67.5 307q0 144 55 327.5t163.5 351.5t271.5 275t370 107q131 0 176 -43.5
t115 -161.5z" />
    <glyph glyph-name="A" unicode="A" horiz-adv-x="2806" 
d="M639 2933h1466q182 0 283.5 -16.5t159 -76t57.5 -182.5t-100 -228.5t-289 -221.5l-1303 -783q-165 -99 -264.5 -245t-99.5 -303q0 -250 151 -250q38 0 75 16t36 16q16 0 16 -12q0 1 -8 -22t-8 -47q0 -42 8 -112t8 -106q0 -385 -348 -385q-188 0 -264 134t-76 317
q0 223 96 534.5t228.5 618t270 582.5l179.5 358q74 139 74 180q0 45 -168 45q-155 0 -155 -69q0 -99 143 -201l-115 -213q-438 272 -438 483q0 114 100.5 151.5t284.5 37.5zM946 2097l-233 -549l8 -8l1139 688q294 176 294 336q0 65 -27 110.5t-83 45.5q-102 0 -102 -115
q0 -66 32 -188q-162 -121 -446 -283l-70 270q-29 112 -64.5 164.5t-99.5 52.5q-134 0 -348 -524zM1618 1745l438 262l258 -1192q53 -250 87.5 -334.5t72.5 -107.5l118 -73.5t146 -106t64 -95.5q0 -61 -91 -92t-184 -31q-49 0 -159 12.5t-177 12.5q-81 0 -202.5 -12.5
t-178.5 -12.5q-78 0 -161.5 32t-83.5 83q0 50 42.5 91t127.5 91t115 71t30 50q0 81 -86 484z" />
    <glyph glyph-name="B" unicode="B" horiz-adv-x="2732" 
d="M545 430v1688l524 -250v-1077q0 -242 201 -242q26 0 77 4t78 4q22 0 70 -4t70 -4q389 0 389 520q0 274 -145.5 452t-354.5 269l-836 373q-275 123 -425 211.5t-210.5 164t-60.5 164.5q0 230 459 230h1413q614 0 614 -369q0 -186 -152.5 -357t-359.5 -302
q226 -92 379.5 -255.5t227 -377t73.5 -465.5q0 -281 -111.5 -475t-293 -287.5t-393.5 -93.5q-52 0 -238.5 24.5t-380.5 24.5q-104 0 -314 -12.5t-329 -12.5q-103 0 -264.5 40t-161.5 104q0 44 43 84.5t133.5 88.5t278.5 138zM1069 2548v-283l-224.5 96.5t-176.5 80.5
t-123 73q0 76 -14.5 116t-75.5 40q-82 0 -82 -111q0 -65 167.5 -156.5t412 -183.5t466.5 -161.5t318 -92.5q104 104 150 196t46 226q0 198 -127.5 265t-392.5 67q-184 0 -264 -35.5t-80 -136.5z" />
    <glyph glyph-name="C" unicode="C" horiz-adv-x="2654" 
d="M1528 -25q-401 0 -705 182.5t-467 502.5t-163 720q0 353 102.5 646.5t282 502t408 318.5t476.5 110q264 0 480.5 -80t341 -233t124.5 -363q0 -166 -75 -286t-205 -181t-293 -61q-248 0 -374 143t-126 287q0 70 -26.5 109t-63.5 39q-57 0 -57 -54q0 -19 16 -53
q-33 -41 -102 -41q-152 0 -152 160q0 88 68.5 144.5t157.5 56.5q90 0 147 -35.5t116 -101t104 -98t116 -32.5q93 0 147 60.5t54 140.5q0 151 -125.5 221t-313.5 70q-256 0 -448 -149.5t-293.5 -399t-101.5 -541.5q0 -342 158.5 -599.5t408.5 -394t510 -136.5
q161 0 313.5 38.5t267.5 128.5t156 238q88 -12 142.5 -105t54.5 -251q0 -190 -141.5 -331.5t-383 -216.5t-536.5 -75z" />
    <glyph glyph-name="D" unicode="D" horiz-adv-x="2732" 
d="M1065 1454v-360q0 -78 57 -119q58 -42 58 -70q0 -24 -24 -40.5t-97.5 -54t-137 -78.5t-139.5 -114q139 -45 394 -45q454 0 683.5 247t229.5 802q0 245 -59.5 454t-170 357.5t-262 229.5t-335.5 81q-56 0 -197 -37v-434l-524 250q0 197 -90 197q-99 0 -99 -99
t124.5 -170.5t427.5 -206t455 -245.5t152 -258q0 -108 -48 -167t-141 -83.5t-257 -36.5zM541 778v1352q332 -162 524 -279v-258q86 22 86 185q0 125 -148.5 220t-449.5 231.5t-455.5 248.5t-154.5 262q0 91 53 132.5t134.5 51t229.5 9.5q73 0 218 -4t217 -4q77 0 235 4
t236 4q333 0 579 -131.5t398 -359t224.5 -521t72.5 -623.5q0 -279 -83.5 -521t-238.5 -423t-369.5 -280t-472.5 -99q-74 0 -234 12.5t-241 12.5q-100 0 -248.5 -12.5t-222.5 -12.5q-137 0 -291.5 40.5t-154.5 140.5q0 68 70 139.5t214 182t208.5 175t64.5 125.5z" />
    <glyph glyph-name="E" unicode="E" horiz-adv-x="2503" 
d="M442 541v1761q0 95 -24 146t-60.5 76.5t-169.5 105.5q-98 60 -124.5 81.5t-26.5 57.5q0 164 569 164h1192q545 0 545 -176q0 -99 -164 -222t-407.5 -254.5l-438 -237.5t-194.5 -142q0 -33 37 -33q27 0 113.5 33t158 53t158.5 20q142 0 267.5 -72.5t125.5 -205.5
q0 -91 -43 -158t-129 -80q8 24 8 41q0 66 -94 66q-73 0 -273 -53.5t-297 -53.5q-122 0 -210.5 82t-88.5 201q0 144 130 254.5t412 309t282 267.5q0 89 -90 118.5t-283 29.5q-134 0 -208.5 -16t-111 -67t-36.5 -155v-414q-193 -155 -193 -352q0 -150 193 -303v-565
q0 -137 87.5 -208t246.5 -93.5t423 -22.5q215 0 340.5 38.5t155.5 178.5q111 -41 170 -138t59 -222q0 -195 -144 -300.5t-392 -105.5q-101 0 -321 12.5t-371 12.5q-174 0 -454.5 -12.5t-348.5 -12.5q-136 0 -269 57t-133 120q0 42 53.5 81.5t159 99.5t159.5 106t54 102z" />
    <glyph glyph-name="F" unicode="F" horiz-adv-x="2277" 
d="M934 1413v-946q0 -56 52.5 -98t154.5 -91t152 -84.5t50 -87.5q0 -61 -101 -96t-169 -35q-70 0 -213.5 12.5t-195.5 12.5q-78 0 -207 -12.5t-158 -12.5q-93 0 -175.5 27.5t-82.5 75.5q0 70 132.5 158.5t184.5 135.5t52 173v1757q0 96 -24.5 146.5t-62 77t-167.5 104.5
q-100 62 -126 82.5t-26 56.5q0 164 569 164h1192q545 0 545 -176q0 -99 -164 -222t-407.5 -254.5l-438 -237.5t-194.5 -142q0 -33 37 -33q22 0 165 53t265 53q142 0 267.5 -72.5t125.5 -205.5q0 -91 -43 -158t-129 -80q8 24 8 41q0 66 -94 66q-73 0 -273 -53.5t-296 -53.5
q-124 0 -211.5 82t-87.5 201q0 144 132 256.5t411.5 309t279.5 265.5q0 89 -90 118.5t-283 29.5q-134 0 -208.5 -16t-111 -67t-36.5 -155v-414q-193 -155 -193 -352q0 -150 193 -303z" />
    <glyph glyph-name="G" unicode="G" horiz-adv-x="2806" 
d="M2445 1352v-889q0 -57 25.5 -96t78 -86.5t77 -79.5t24.5 -78q0 -53 -183 -100.5t-259 -47.5q-92 0 -226 12.5t-204 12.5q-131 0 -281.5 -12.5t-193.5 -12.5q-326 0 -580 197.5t-392 519t-138 680.5q0 415 122.5 772t422 585t794.5 228q369 0 565 -18t280.5 -72t84.5 -164
q-9 -83 -59 -136.5t-173.5 -120t-468.5 -234.5q-487 -244 -487 -348q0 -13 16.5 -63.5t16.5 -100.5q0 -96 -60.5 -144.5t-148.5 -48.5q-85 0 -143 63t-58 159q0 91 68.5 168.5t148 129.5t336.5 209l179 105.5t176.5 124t66.5 110.5q0 78 -92.5 111t-210.5 33
q-313 0 -519.5 -121.5t-306.5 -351t-100 -551.5q0 -286 76 -534t244.5 -404t425.5 -156q291 0 399 42.5t108 158.5v577q0 45 -33 86t-100.5 100.5t-91.5 85t-24 52.5q0 86 176 86q52 0 172 -10.5t200 -10.5q61 0 156 10.5t148 10.5q62 0 141.5 -17.5t79.5 -60.5
q0 -41 -93 -111.5t-137.5 -116t-44.5 -132.5z" />
    <glyph glyph-name="H" unicode="H" horiz-adv-x="2654" 
d="M1016 1966v-1540q0 -30 42 -61t135.5 -87t142 -94.5t48.5 -72.5q0 -63 -98.5 -99.5t-191.5 -36.5q-32 0 -144 12.5t-205 12.5q-89 0 -198 -12.5t-133 -12.5q-95 0 -205.5 37t-110.5 99q0 35 54 76.5t150 97t143 87t47 54.5v1704q6 -2 157 -45.5l229 -67.5t138 -51z
M205 2933h1696q178 0 267 -34t89 -159q0 -54 -16.5 -80t-51.5 -67.5t-35 -69.5q0 -33 18.5 -59.5t18.5 -22.5q-58 -33 -102 -33q-92 0 -147.5 48.5t-131.5 152.5q-66 86 -360 86h-303q-131 0 -131 -119v-188q-343 64 -524 139q0 168 -82 168q-78 0 -78 -110q0 -62 114 -128
t396 -132t751 -121q228 -28 427.5 -140.5t320.5 -302.5t121 -430q0 -447 -271 -971l-115.5 -218t-118.5 -240t-36 -148q0 -54 26 -96.5t64 -42.5q26 0 77 12.5t95 12.5q69 0 120.5 -55.5t51.5 -125.5q0 -110 -114 -168q-8 50 -70 50q-50 0 -112.5 -18.5t-88.5 -18.5
q-155 0 -245.5 101.5t-90.5 258.5q0 107 29.5 212.5t110.5 344.5q139 421 139 737q0 382 -123 605t-373.5 353t-711.5 255q-315 85 -549 215t-234 321q9 136 70 181t213 45z" />
    <glyph glyph-name="I" unicode="I" horiz-adv-x="2048" 
d="M1081 909v1192q0 71 -31.5 109.5t-86 79.5t-54.5 65q0 69 127 103l344 90q144 38 144 98q0 74 -541 74q-410 0 -410 -94q0 -31 70 -104t104.5 -118t34.5 -110q0 -108 -79 -164.5t-216 -56.5q-167 0 -213 163q99 0 99 62q0 45 -119.5 148.5t-162 148.5t-42.5 129
q0 137 248 173t690 36q339 0 687.5 -43t348.5 -154q0 -73 -45 -109.5t-146.5 -84.5t-151.5 -97.5t-50 -138.5v-1544q0 -83 19.5 -113.5t59 -55.5t60.5 -64.5t21 -135.5q0 -212 -241 -315t-648 -103q-387 0 -631.5 83t-244.5 356q0 151 69.5 238.5t176 166t106.5 119.5
q0 47 -17 74q42 8 78 8q127 0 127 -102q0 -21 -12 -85t-12 -137q0 -172 254 -172q181 0 233.5 103.5t52.5 281.5z" />
    <glyph glyph-name="J" unicode="J" horiz-adv-x="2048" 
d="M1081 377v1724q0 71 -31.5 109.5t-86 79.5t-54.5 65q0 69 127 103l344 90q144 38 144 98q0 74 -541 74q-410 0 -410 -94q0 -31 70 -104t104.5 -118t34.5 -110q0 -108 -79 -164.5t-216 -56.5q-167 0 -213 163q99 0 99 62q0 45 -119.5 148.5t-162 148.5t-42.5 129
q0 137 248 173t690 36q339 0 687.5 -43t348.5 -154q0 -73 -45 -109.5t-146.5 -84.5t-151.5 -97.5t-50 -138.5v-2077q0 -82 19 -112.5t59 -55.5t61 -64.5t21 -135.5q0 -212 -241 -315t-648 -103q-387 0 -631.5 83t-244.5 355q0 151 69 238t176 167t107 120q0 47 -17 73
q42 8 78 8q127 0 127 -102q0 -20 -12 -84t-12 -137q0 -172 254 -172q181 0 233.5 103.5t52.5 281.5z" />
    <glyph glyph-name="K" unicode="K" horiz-adv-x="2806" 
d="M377 2933h614q430 0 430 -144q0 -51 -129.5 -132.5t-198.5 -147t-69 -191.5v-143q-324 132 -532 287q0 93 -12 138.5t-62 45.5q-78 0 -78 -94q0 -106 176 -225.5t407.5 -209t358.5 -106.5q175 62 356 230.5t181 330.5q0 53 -16.5 142.5t-16.5 128.5q0 35 22.5 62.5
t63.5 27.5h614q51 0 83 -23.5t32 -62.5q0 -27 -23 -48t-66 -45l-120 -67q-91 -56 -156 -121.5t-210.5 -224.5t-254.5 -248t-231 -135v-8q275 -27 413.5 -227t202 -484l127 -552t175.5 -327q175 -87 271.5 -148.5t96.5 -117.5q0 -119 -254 -119q-64 0 -171 12.5t-177 12.5
q-96 0 -192.5 -12.5t-114.5 -12.5q-85 0 -115.5 60t-52.5 223q-60 461 -131.5 753t-155 461t-180.5 255t-229 141q-1073 460 -1073 860q0 205 397 205zM492 545v1483q164 -99 524 -230v-1331q0 -56 52.5 -98t154.5 -91t152 -84.5t50 -87.5q0 -61 -101 -96t-169 -35
q-81 0 -194 12.5t-216 12.5q-128 0 -236 -12.5t-128 -12.5q-94 0 -176 27.5t-82 75.5q0 70 132.5 158.5t184.5 135.5t52 173z" />
    <glyph glyph-name="L" unicode="L" 
d="M492 868v1659q0 76 -38.5 116.5t-113 75.5t-107 59.5t-32.5 76.5q0 53 41 65.5t123 12.5h639q141 0 203.5 -12t62.5 -58q0 -42 -93 -107.5t-127 -96t-34 -99.5v-1597q0 -24 16.5 -37.5t59 -37.5t65.5 -46.5t23 -59.5q0 -62 -217 -135q-209 -67 -481.5 -203t-272.5 -211
q0 -45 151 -45q126 0 266.5 49t422.5 169q140 62 266 110.5t238.5 77.5t207.5 29q43 0 98.5 -10.5t65.5 -10.5q41 0 41 29q0 34 -127 216.5t-180 266t-53 148.5q0 70 17 111.5t49.5 77.5t49 62.5t19.5 75.5q21 -22 96.5 -60.5t114.5 -77t39 -112.5q0 -49 -22.5 -103
t-22.5 -97q0 -61 50.5 -172t157.5 -308t152 -286.5t45 -130.5q0 -81 -102 -141.5t-236.5 -93t-218.5 -32.5q-19 0 -324 37q-276 37 -409 37q-43 0 -281.5 -37t-378.5 -37q-188 0 -333.5 53t-145.5 169q0 59 62 118.5t210.5 175.5t223 201.5t74.5 175.5z" />
    <glyph glyph-name="M" unicode="M" horiz-adv-x="4018" 
d="M721 2449l-94 -208q-252 123 -370 220t-118 230q0 113 96 177.5t220 64.5h3272q160 0 242 -54t82 -188q0 -159 -172.5 -299t-360.5 -205l-61 205q70 21 127 65.5t57 106.5q0 72 -36.5 97.5t-114.5 25.5q-176 0 -176 -66q0 -10 67 -255.5t132 -529t117 -642.5t52 -686
q0 -317 -39.5 -425t-144.5 -108q-47 0 -137.5 12.5t-145.5 12.5q-45 0 -130 -12.5t-136 -12.5q-287 0 -287 95q0 29 55 77t164.5 124t133.5 94q52 37 76.5 81t33 128.5t8.5 252.5q0 254 -65 694t-213 790.5t-381 350.5q-150 0 -191.5 -121t-41.5 -333q-361 0 -525 20
q-4 218 -58.5 338.5t-223.5 120.5q-193 0 -364 -290t-276.5 -680t-105.5 -632q0 -297 41 -462t160 -230q368 -205 368 -282q0 -111 -237 -111q-37 0 -125.5 12.5t-157.5 12.5q-68 0 -144 -12.5t-118 -12.5q-59 0 -89 41.5t-44 164t-14 376.5q0 408 80 771t183 620t206.5 453
t103.5 204q0 49 -143 49q-78 0 -123 -26t-45 -60q0 -51 43 -89t88 -55zM1028 2118l70 163q362 -143 880 -143q471 0 844 53l62 -163q-489 -54 -889 -54q-512 0 -967 144zM1716 463v1454q148 -16 262 -16q123 0 263 8v-1483q0 -38 34.5 -71t118 -95.5t125 -105.5t41.5 -88
q0 -91 -303 -91q-33 0 -138 12.5t-190 12.5q-54 0 -155 -12.5t-148 -12.5q-258 0 -258 119q0 40 39 73t128 89t135 103t46 104z" />
    <glyph glyph-name="N" unicode="N" horiz-adv-x="3109" 
d="M1053 2032l-525 315v107q0 84 -15.5 125.5t-74.5 41.5q-98 -11 -98 -139q0 -125 106 -192l1033 -635q208 -129 274 -204t66 -181q0 -104 -78 -169t-189 -65q-90 0 -165 62t-117 151q75 18 107 32t32 54q0 35 -37 69.5t-151 102.5l-1008 619q-105 64 -169 173.5t-64 231.5
q0 157 82 252.5t211 134.5t280 39q101 0 299 -6t299 -6t299 6t299 6q499 0 778 -211.5t279 -656.5q0 -364 -287 -791l-146 -210t-103 -171t-38 -143q0 -58 38.5 -102.5t101.5 -44.5q51 0 161 28.5t187 28.5q129 0 218 -94t89 -213q0 -142 -31.5 -235.5t-111.5 -166.5
q-22 33 -70 54q-42 20 -70 20q-68 0 -184 -37q-113 -37 -221 -37q-176 0 -297 140.5t-121 347.5q0 139 16.5 266.5t35.5 209.5t67 273q57 225 88 401.5t31 405.5q0 198 -89 346t-236.5 227t-309.5 79h-303q-168 0 -168 -103v-536zM528 1819l525 -320v-1032q0 -51 51 -93.5
t152 -96.5t153.5 -90t52.5 -76q0 -65 -106 -100.5t-201 -35.5q-62 0 -173 12.5t-191 12.5q-79 0 -191 -12.5t-174 -12.5q-95 0 -201 35.5t-106 100.5q0 39 51 74.5t152.5 89.5t153.5 97t52 95v1352z" />
    <glyph glyph-name="O" unicode="O" horiz-adv-x="2728" 
d="M193 1409q0 403 124 755t394 572.5t678 220.5q294 0 512 -115t358.5 -324t208 -488.5t67.5 -616.5q0 -205 -51 -453.5t-150.5 -473.5t-251 -368t-341.5 -143q-105 0 -217 12.5t-176 12.5q-56 0 -157 -12.5t-183 -12.5q-155 0 -303 118t-263.5 322t-182 463t-66.5 531z
M1397 2744q-294 0 -472.5 -170t-250.5 -413t-72 -482q0 -366 82 -565h-4h8q42 311 199 478.5t429.5 308t387.5 233.5t115 287q0 163 -120.5 243t-301.5 80zM872 1032q0 -430 545 -430q191 0 329 90t220.5 234.5t121 319t38.5 347.5q0 231 -25 401t-106 312h-4h-9
q-17 -214 -152.5 -329t-408 -257t-411 -286.5t-138.5 -401.5z" />
    <glyph glyph-name="P" unicode="P" horiz-adv-x="2654" 
d="M438 471v1937q0 100 -58 151.5t-172 123t-114 115.5q0 52 118 81.5t352.5 41.5t615.5 12q276 0 515.5 -59.5t428 -188t296 -333.5t107.5 -488q0 -248 -107.5 -441t-310.5 -300t-479 -107q-216 0 -375 77.5t-240 200t-81 254.5q0 141 82 221l40.5 39t31 40.5t10.5 47.5
q0 23 -25 50q55 24 123 24q102 0 170 -62.5t68 -142.5q0 -200 180 -200q340 0 340 483q0 201 -98 353t-260.5 235.5t-350.5 83.5q-142 0 -212 -30t-70 -114v-721q-136 -150 -136 -299q0 -206 136 -348v-721q0 -47 47 -88t146 -101t147.5 -99t48.5 -84q0 -62 -94 -101
t-185 -39q-50 0 -152 12.5t-176 12.5q-92 0 -212.5 -12.5t-172.5 -12.5q-84 0 -187 37.5t-103 102.5q0 42 44 78t136 92t140 98.5t48 87.5z" />
    <glyph glyph-name="Q" unicode="Q" horiz-adv-x="2728" 
d="M1937 -393q0 -151 -90 -221q0 57 -110 57q-40 0 -161.5 -35t-199.5 -35q-104 0 -172.5 54.5t-68.5 166.5q0 56 48 168.5t58 155.5q72 21 127 21q42 0 102 -17q0 -106 82 -106q18 0 71 6t85 6q91 0 160 -59t69 -162zM193 1409q0 403 124 755t394 572.5t678 220.5
q294 0 512 -115t358.5 -324t208 -488.5t67.5 -616.5q0 -205 -51 -453.5t-150.5 -473.5t-251 -368t-341.5 -143q-105 0 -217 12.5t-176 12.5q-56 0 -157 -12.5t-183 -12.5q-155 0 -303 118t-263.5 322t-182 463t-66.5 531zM1397 2744q-294 0 -472.5 -170t-250.5 -413
t-72 -482q0 -366 82 -565h-4h8q42 311 199 478.5t429.5 308t387.5 233.5t115 287q0 163 -120.5 243t-301.5 80zM872 1032q0 -430 545 -430q191 0 329 90t220.5 234.5t121 319t38.5 347.5q0 231 -25 401t-106 312h-4h-9q-17 -214 -152.5 -329t-408 -257t-411 -286.5
t-138.5 -401.5z" />
    <glyph glyph-name="R" unicode="R" horiz-adv-x="2884" 
d="M1032 1892v-1421q0 -54 88 -121l176 -134.5t88 -121.5q0 -59 -100.5 -89t-177.5 -30q-40 0 -135.5 12.5t-171.5 12.5q-83 0 -208.5 -12.5t-176.5 -12.5q-80 0 -185 28t-118 87q0 56 48.5 97t149 101t150 107.5t49.5 112.5v1646zM1622 2720h-295q-168 0 -231.5 -49
t-63.5 -156v-238q-246 112 -520 283q0 135 -86 135q-102 0 -102 -69q0 -52 213.5 -186.5t468.5 -244.5t383 -110q146 0 277.5 67t211.5 173t80 215q0 94 -106 137t-230 43zM279 2933h1683q471 0 471 -307q0 -183 -227 -362t-457 -269l348 -160q145 -65 179.5 -111.5
t66.5 -224.5l180 -979q15 -75 72.5 -125.5t157.5 -105t146 -89t46 -81.5q0 -43 -94 -93.5t-172 -50.5q-46 0 -134.5 12.5t-148.5 12.5q-51 0 -136 -12.5t-130 -12.5q-74 0 -103 58t-40 168q-49 478 -96.5 741t-128.5 434.5t-215 288.5t-384 248l-692 364
q-259 137 -383.5 240.5t-124.5 218.5q0 197 316 197z" />
    <glyph glyph-name="S" unicode="S" horiz-adv-x="2429" 
d="M578 2933h1052q218 0 333 -15t169.5 -58t54.5 -128q0 -92 -61 -139.5t-182 -117t-121 -112.5q0 -53 61 -114q-40 -8 -94 -8q-82 0 -147.5 54t-65.5 122q0 54 43 116t43 97q0 90 -229 90h-643q-66 0 -109 -32t-43 -83q0 -105 226 -214l600 -295.5t601.5 -459.5t227.5 -694
q0 -311 -109.5 -530t-300.5 -328t-434 -109q-45 0 -136.5 12.5t-166.5 12.5q-79 0 -168.5 -12.5t-126.5 -12.5q-158 0 -296 66.5t-241 183t-158 265t-55 305.5q0 199 87 368.5t240 269t333 99.5q169 0 275.5 -46t176 -119l115.5 -122t96 -49q29 0 45 8q9 -50 9 -69
q0 -107 -63 -178.5t-175 -71.5q-73 0 -125.5 16.5t-102 46.5t-85 45t-84.5 15q-77 0 -122.5 -48.5t-45.5 -107.5q0 -146 144 -224.5t335 -78.5q168 0 308 58t223 176.5t83 293.5q0 296 -203.5 473t-603 363t-587 324t-187.5 376q0 320 390 320z" />
    <glyph glyph-name="T" unicode="T" horiz-adv-x="2580" 
d="M1028 463v2138q0 62 -30.5 78t-92.5 16h-237q-148 0 -148 -57q0 -28 63.5 -158.5t104.5 -233.5t41 -190q0 -93 -52 -151t-140 -58q-66 0 -107 40t-41 95q0 51 20.5 76.5t59.5 59.5t39 57q0 42 -69.5 101t-223 172.5t-231.5 188.5t-78 132q0 85 68.5 124.5t156.5 39.5
h2318q89 0 157.5 -39.5t68.5 -124.5q0 -59 -79 -134t-236 -192t-222 -172.5t-65 -95.5q0 -23 40 -58.5t59 -60t19 -74.5q0 -55 -40 -95t-107 -40q-89 0 -141 59t-52 150q0 87 41 190t104.5 233.5t63.5 158.5q0 57 -147 57h-238q-61 0 -92 -16.5t-31 -77.5v-2138
q0 -37 46.5 -74t146.5 -98t150.5 -101.5t50.5 -83.5q0 -53 -115 -92t-180 -39q-33 0 -145 12.5t-224 12.5q-101 0 -209 -12.5t-143 -12.5q-66 0 -180.5 39t-114.5 92q0 41 49 81.5t148.5 101t147.5 98.5t48 76z" />
    <glyph glyph-name="U" unicode="U" horiz-adv-x="2806" 
d="M778 2441l-127 -160q-218 123 -375 270t-157 255q0 127 233 127h791q128 0 170.5 -37.5t42.5 -114.5q0 -83 -109 -230.5l-236.5 -316.5t-216.5 -371t-89 -433q0 -245 80.5 -444t252.5 -318t428 -119q221 0 319.5 90.5t98.5 269.5q0 107 -74 274.5t-198 342.5t-284 325.5
t-329 229.5l99 155q160 -84 306.5 -201.5t268 -265.5t203.5 -319h8v991q0 66 -45.5 111.5t-130.5 96.5t-124.5 87t-39.5 90q0 32 110.5 69.5t184.5 37.5q29 0 119.5 -12.5t155.5 -12.5t159.5 12.5t126.5 12.5q124 0 232 -32t108 -91q0 -41 -127.5 -120t-178 -117t-50.5 -115
v-1958q0 -55 48 -97t145.5 -98t144.5 -95.5t47 -90.5q0 -69 -134 -106.5t-284 -37.5q-63 0 -209 25q-144 25 -217 25q-54 0 -301 -25t-412 -25q-238 0 -459 118.5t-360 356.5t-139 574q0 327 95.5 586.5t197.5 406.5t250.5 331t148.5 237q0 51 -36.5 68.5t-135.5 17.5
q-115 0 -147.5 -9t-32.5 -45q0 -57 184 -176z" />
    <glyph glyph-name="V" unicode="V" horiz-adv-x="2728" 
d="M864 2138l512 -1151q65 -145 113.5 -209.5t95.5 -64.5q100 0 235 250t232.5 579t97.5 526q0 188 -73.5 334t-233.5 146q-36 0 -153.5 -32t-288.5 -83l-308.5 -91t-154.5 -40q-66 0 -66 61q0 25 25 39t143 60q66 25 417.5 171t590.5 235t319 89q153 0 230.5 -105.5
t77.5 -258.5q0 -167 -141 -551.5t-359.5 -826.5t-433.5 -777l-224 -338.5t-104 -130t-78 -35.5q-53 0 -84.5 37.5t-91.5 171.5l-913 2036q-13 31 -36 44.5t-67.5 30.5t-65 35t-20.5 54q0 50 138.5 96.5t242.5 67.5q72 15 302.5 108t230.5 121q0 33 -381 33q-299 0 -299 -111
q0 -26 26.5 -66.5t26.5 -84.5q-195 0 -316.5 49.5t-121.5 200.5q0 135 199.5 167.5t648.5 32.5q375 0 533.5 -25t158.5 -98q0 -65 -170.5 -166.5t-419.5 -201.5q-90 -37 -90 -78q0 -31 98 -250z" />
    <glyph glyph-name="W" unicode="W" horiz-adv-x="3715" 
d="M242 2933h950q148 0 225.5 -38t77.5 -134q0 -17 -12.5 -49t-12.5 -46q0 -30 21 -65h-37q-18 0 -57 -8t-62 -8q-56 0 -77 21t-58.5 75.5t-69.5 54.5h-139q-69 0 -69 -123q0 -99 41 -482t121.5 -787t193.5 -590q97 126 196 349.5t164.5 482t65.5 474.5q-508 57 -655 107
l-13 184q396 -102 922 -102q561 0 1053 135l-25 -197q-497 -113 -709 -127q66 -860 381 -1282q138 225 240.5 549t154.5 655t52 611q0 151 -49 151h-320q-35 0 -48 -19.5t-27 -62t-35.5 -64.5t-69.5 -22q-12 0 -32 8.5t-38 8.5q-12 0 -36 -2t-33 -2q32 19 32 49
q0 13 -36.5 59.5t-36.5 100.5q0 135 254 135h671q275 0 367 -54.5t92 -166.5q0 -104 -88 -188.5t-223 -135.5l16 197q7 7 34.5 24.5t46 35.5t18.5 38q0 57 -127 57q-40 0 -46 -94q-26 -382 -126 -846t-232 -882t-252 -680.5t-180 -262.5q-23 0 -48 12.5t-38 12.5
q-11 0 -33 -12.5t-53 -12.5q-63 0 -189 292.5t-249.5 657t-139.5 439.5h-8q-35 -118 -178 -469t-289 -635.5t-217 -284.5q-16 0 -42 12.5t-36 12.5q-7 0 -34 -12.5t-48 -12.5q-76 0 -203.5 398t-246 1016.5t-176.5 1256.5q-8 86 -78 86q-107 0 -107 -57q0 -22 15.5 -34.5
t56 -30t55.5 -25.5v-201q-182 95 -271 173t-89 216q0 75 77 117.5t210 42.5z" />
    <glyph glyph-name="X" unicode="X" horiz-adv-x="2806" 
d="M1671 1569l701 -1000q61 -86 139 -146t185 -122t155.5 -99t48.5 -79q0 -69 -121.5 -108.5t-210.5 -39.5q-42 0 -141.5 12.5t-165.5 12.5q-71 0 -189.5 -12.5t-179.5 -12.5q-99 0 -231.5 45.5t-132.5 126.5q0 29 28.5 51t94 60.5t100.5 75t35 84.5q0 25 -56.5 127.5
t-152 253.5t-188.5 282l-99 140l-119 -115q-471 -459 -471 -598q0 -42 60 -83.5t186 -106.5t192 -108.5t66 -86.5q0 -69 -133.5 -108.5t-226.5 -39.5q-38 0 -126.5 12.5t-152.5 12.5q-69 0 -143.5 -12.5t-97.5 -12.5q-100 0 -161 62t-61 160q0 203 537 680l557 491l-586 840
q-42 62 -76 87t-93.5 61.5t-59.5 56.5q0 60 172 73q210 18 410 63t200 101q0 34 -79.5 52t-170.5 18h-233q-184 0 -184 -107q0 -21 8 -69l-152.5 42.5t-133 60t-58.5 106.5q0 180 250 180q96 0 240.5 -6.5t221.5 -6.5q78 0 222.5 6.5t240.5 6.5q166 0 247 -22t81 -97
q0 -85 -116 -162.5t-280.5 -151.5t-164.5 -87q0 -32 131 -222l348 -491l238 209q209 187 317.5 306t108.5 210q0 147 -172 147q-87 0 -212.5 -41.5t-330.5 -118.5t-236 -77q-73 0 -73 53q0 46 135 98q213 82 505.5 221t432.5 194.5t262 55.5q188 0 188 -172
q0 -115 -124.5 -281t-289 -326.5l-405.5 -379.5z" />
    <glyph glyph-name="Y" unicode="Y" horiz-adv-x="2732" 
d="M1163 1200l-741 1008q-26 46 -65 71.5t-86.5 44t-67 31t-19.5 37.5q0 51 78 78l578 201q94 31 94 49q0 24 -184 24h-234q-291 0 -291 -127q0 -32 41 -82q-210 9 -318 58t-108 176q0 164 279 164h1065q123 0 196.5 -20t73.5 -95q0 -40 -71.5 -78.5t-207.5 -90.5
t-203 -84.5t-67 -65.5q0 -43 131 -213l545 -717q229 188 421.5 428.5t192.5 456.5q0 80 -36.5 111.5t-114.5 31.5q-145 0 -492 -94q-349 -95 -475 -95q-69 0 -69 54q0 44 143 90l492.5 164t487.5 155.5t257 61.5q113 0 198 -58.5t85 -175.5q0 -146 -182 -404t-420 -505.5
t-381 -351.5v-992q0 -31 45.5 -65t142.5 -90t151 -99t54 -86q0 -53 -115 -92t-180 -39q-34 0 -144 12.5t-217 12.5q-106 0 -216 -12.5t-144 -12.5q-65 0 -180 39.5t-115 91.5q0 42 53 85t149 98t143.5 90t47.5 67v754z" />
    <glyph glyph-name="Z" unicode="Z" horiz-adv-x="2806" 
d="M274 541l1483 1958q86 114 86 163q0 74 -151 82h-832q-176 -22 -176 -155q0 -66 55.5 -125t169 -146.5t172 -150t58.5 -131.5q0 -41 -33 -79.5t-115.5 -120t-127 -146t-48.5 -134.5q-197 13 -197 177q0 80 35 205.5t35 150.5q0 101 -162.5 211l-325.5 220t-163 208
q0 72 52.5 112.5t184 60t366.5 26t667 6.5q524 0 777 -17.5t342 -56t89 -111.5q0 -74 -160 -286l-1270 -1655q-86 -111 -86 -168q0 -90 123 -90h1004q209 0 209 65q0 72 -79.5 135.5t-239 156t-242 161t-82.5 145.5q0 78 38.5 127.5t111 106t111 104t38.5 117.5
q0 31 -4.5 61.5t-4.5 36.5q109 -52 181.5 -116t72.5 -179q0 -50 -22.5 -135t-22.5 -127q0 -72 202 -271.5t309.5 -334t107.5 -303.5q0 -192 -148 -258t-409 -66q-103 0 -331.5 12.5t-365.5 12.5q-159 0 -461 -12.5t-407 -12.5q-104 0 -241 24.5t-241 80t-104 141.5
q0 89 172 320z" />
    <glyph glyph-name="bracketleft" unicode="[" horiz-adv-x="1360" 
d="M393 -668v3515q0 110 94 110q39 0 117 -6t117 -6q38 0 103 6t89 6q138 0 177.5 -7.5t39.5 -45.5q0 -69 -95.5 -115.5t-131 -75.5t-35.5 -153v-2941q0 -124 35.5 -153t131 -75t95.5 -116q0 -38 -39.5 -45.5t-177.5 -7.5q-24 0 -89 6t-103 6q-39 0 -117 -6t-117 -6
q-94 0 -94 110z" />
    <glyph glyph-name="backslash" unicode="\" horiz-adv-x="2048" 
d="M344 2884l1663 -2651q29 -51 29 -98q0 -65 -52.5 -112.5t-119.5 -47.5q-106 0 -156 74l-1663 2650q-33 60 -33 99q0 63 53 111t119 48q111 0 160 -73z" />
    <glyph glyph-name="bracketright" unicode="]" horiz-adv-x="1360" 
d="M967 2847v-3515q0 -110 -95 -110q-38 0 -116 6t-117 6q-37 0 -102 -6t-91 -6q-138 0 -177.5 7.5t-39.5 45.5q0 70 95 115.5t131.5 74.5t36.5 154v2941q0 125 -36.5 154t-131.5 74.5t-95 115.5q0 38 39.5 45.5t177.5 7.5q26 0 91 -6t102 -6q39 0 117 6t116 6q95 0 95 -110
z" />
    <glyph glyph-name="asciicircum" unicode="^" horiz-adv-x="2458" 
d="M758 1290h-451l717 1495h410l716 -1495h-450l-471 1041z" />
    <glyph glyph-name="underscore" unicode="_" horiz-adv-x="2048" 
d="M2048 -512h-2048v205h2048v-205z" />
    <glyph glyph-name="grave" unicode="`" horiz-adv-x="1139" 
d="M57 2843q0 25 19.5 43t50.5 18q20 0 61 -4t62 -4q18 0 56 4t59 4q70 0 122 -78l80.5 -125t79.5 -108q28 -37 92 -101t64 -92q0 -45 -74 -45q-121 0 -281 88t-275.5 206t-115.5 194z" />
    <glyph glyph-name="a" unicode="a" horiz-adv-x="2429" 
d="M1634 635v930q0 385 -450 385q-434 0 -434 -152q0 -56 50.5 -73t137.5 -17q74 0 226 18.5t200 18.5q85 0 132.5 -26.5t47.5 -104.5q0 -82 -74 -129.5t-283.5 -153t-313 -207.5t-103.5 -256q0 -172 98.5 -245.5t286.5 -73.5q103 0 253.5 43t225.5 43zM2183 1331v-1007
q176 -124 176 -181q0 -82 -148 -125t-331 -43q-75 0 -239.5 25t-251.5 25q-97 0 -279.5 -25t-269.5 -25q-190 0 -349 75.5t-251.5 219t-92.5 336.5q0 195 112.5 344.5t301.5 263t467 228.5q156 48 156 90q0 37 -58 37q-72 0 -226.5 -29t-227.5 -29q-160 0 -291 84.5
t-131 235.5q0 145 154 226t354 81q70 0 169 -8t146 -8q88 0 276 8t285 8q239 0 358.5 -92t155 -258.5t35.5 -456.5z" />
    <glyph glyph-name="b" unicode="b" horiz-adv-x="2429" 
d="M287 586v1921q0 59 -36.5 97.5t-104.5 80t-101 72.5t-33 82q0 94 160 94h520q119 0 119 -103v-794q61 0 111 13.5t144 46.5t161 50t141 17q208 0 382.5 -90.5t299 -248t192.5 -364t68 -436.5q0 -283 -96 -524.5t-282 -383t-441 -141.5q-82 0 -207.5 12.5t-181.5 12.5
q-57 0 -177.5 -12.5t-191.5 -12.5q-246 0 -346 157.5t-100 453.5zM811 1749v-786q0 -154 15.5 -233t68.5 -118t162 -39q39 0 98.5 4.5t93.5 4.5t93.5 -4.5t111.5 -4.5q203 0 292 168t89 418q0 219 -62.5 388.5t-180.5 261.5t-273 92q-90 0 -254 -74q-173 -78 -254 -78z" />
    <glyph glyph-name="c" unicode="c" horiz-adv-x="2126" 
d="M1212 2163q341 0 527 -119t186 -344q0 -144 -118 -244t-275 -100q-86 0 -142.5 32.5t-107.5 80t-70 47.5q-48 0 -61 -46q-66 31 -66 111q0 62 44 105t116 43q45 0 91 -6.5t65 -6.5q74 0 74 62q0 65 -112.5 118.5t-207.5 53.5q-295 0 -440.5 -194.5t-145.5 -510.5
q0 -247 64.5 -397t235 -224.5t483.5 -74.5q187 0 340 70.5t200 228.5q64 -14 120 -66t89 -125t33 -137q0 -157 -76 -282.5t-195 -194t-245 -68.5q-122 0 -247.5 12.5t-174.5 12.5q-63 0 -180.5 -12.5t-196.5 -12.5q-168 0 -330.5 128.5t-266 354.5t-103.5 496
q0 363 125.5 636.5t372.5 423t595 149.5z" />
    <glyph glyph-name="d" unicode="d" horiz-adv-x="2429" 
d="M1630 770v975q-66 16 -157 70.5t-159.5 82t-183.5 27.5q-181 0 -296 -113.5t-165.5 -284t-50.5 -339.5q0 -185 59 -318t143 -202.5t155 -69.5q41 0 122 6t120 6q41 0 109 -6t91 -6q98 0 155.5 51t57.5 121zM1630 1999v553q0 48 -38 77.5t-114.5 66t-113.5 66t-37 77.5
q0 94 115 94h561q151 0 151 -160v-2413l95 -55.5t123 -84.5t53 -73q0 -55 -93 -101t-259 -46q-139 0 -322 12.5t-244 12.5q-84 0 -246.5 -25t-228.5 -25q-452 0 -682.5 313t-230.5 789q0 191 61.5 388t176 360t280.5 262.5t371 99.5q131 0 228.5 -28.5t218 -85t175.5 -74.5z
" />
    <glyph glyph-name="e" unicode="e" horiz-adv-x="2200" 
d="M1040 2138h607q183 0 320.5 -62t137.5 -229q0 -194 -148.5 -315t-450.5 -267t-465.5 -271.5t-188.5 -325.5q201 -119 500 -119q187 0 340 70.5t200 228.5q64 -14 120 -66t89 -125t33 -137q0 -157 -76 -282.5t-195 -194t-245 -68.5q-122 0 -247.5 12.5t-174.5 12.5
q-63 0 -180.5 -12.5t-196.5 -12.5q-168 0 -330.5 128.5t-266 354.5t-103.5 496q0 299 98.5 570.5t306.5 442.5t516 171zM1581 1712q0 213 -414 213q-163 0 -294.5 -51.5t-217.5 -200t-86 -420.5q0 -307 90 -434q71 201 208 323t344 230t288.5 169t81.5 171z" />
    <glyph glyph-name="f" unicode="f" horiz-adv-x="1364" 
d="M926 1839v-1491q0 -23 20.5 -39t87.5 -53.5t98 -64.5t31 -60q0 -52 -107 -97.5t-184 -45.5q-31 0 -101 6t-107 6q-31 0 -95 -6t-98 -6q-87 0 -197 48.5t-110 94.5q0 33 30 59t95 62.5t88.5 54.5t23.5 41v1479q0 47 -46 83t-138 84t-138 82.5t-46 77.5q0 82 98 82h184
q-140 129 -199 206.5t-59 211.5q0 178 132 261t323 83q91 0 258.5 -32.5t253.5 -32.5q153 0 242 65q90 -122 90 -233q0 -97 -70 -178.5t-177 -130t-212 -48.5q-71 0 -152.5 33t-113.5 33q-111 0 -111 -49q0 -37 37 -96t78 -93h147q488 0 488 -127q0 -49 -70.5 -98.5
t-172 -103.5t-101.5 -68z" />
    <glyph glyph-name="g" unicode="g" 
d="M2073 1876v-1282q0 -132 53 -311q49 -173 49 -291q0 -215 -102.5 -378t-271 -249t-355.5 -86q-100 0 -218 6t-159 6q-106 0 -215 -6t-137 -6q-198 0 -322.5 26t-190 99t-65.5 207q0 57 24.5 118t24.5 70q0 54 -20 74q21 16 70 16q146 0 222 -43t170.5 -133.5t194 -137
t273.5 -46.5q553 0 553 397q0 72 -9 160h-8q-81 -111 -270 -111q-42 0 -122 12.5t-136 12.5q-51 0 -138 -12.5t-132 -12.5q-352 18 -524.5 322t-172.5 653q0 369 126.5 642.5t380 422t624.5 148.5q31 0 279 -12.5t560 -12.5q123 0 123 -78q0 -79 -159 -184zM1573 881v671
q0 180 -113.5 276.5t-275.5 96.5q-293 0 -419 -213.5t-126 -527.5q0 -260 83 -447.5t294 -187.5q24 0 77 8t78 8q29 0 94 -8t99 -8q89 0 149 95t60 237z" />
    <glyph glyph-name="h" unicode="h" 
d="M291 348v2339q-238 84 -238 160q0 86 193 86h594q213 0 213 -86q0 -103 -238 -160v-807q69 11 205.5 90t243 123.5t252.5 44.5q282 0 413 -145t131 -379v-1266q0 -23 45 -53t88 -53.5t74 -50.5t31 -60q0 -52 -107 -97.5t-184 -45.5q-31 0 -101 6t-108 6q-29 0 -94 -6
t-98 -6q-87 0 -197.5 48t-110.5 95q0 33 31 59t95.5 62.5t88 54.5t23.5 41v1168q0 113 -78 187.5t-172 74.5q-52 0 -193 -43t-278 -43v-1344q0 -23 45 -53t88 -53.5t74 -50.5t31 -60q0 -52 -107 -97.5t-184 -45.5q-32 0 -101 6t-108 6q-29 0 -94 -6t-99 -6q-88 0 -197.5 48
t-109.5 95q0 33 31 59t95.5 62.5t88 54.5t23.5 41z" />
    <glyph glyph-name="i" unicode="i" horiz-adv-x="1212" 
d="M344 348v1544q-238 86 -238 160q0 86 193 86h594q213 0 213 -86q0 -48 -64 -90.5t-174 -69.5v-1544q0 -23 45 -53t88 -53.5t74 -50.5t31 -60q0 -52 -107 -97.5t-184 -45.5q-31 0 -101 6t-108 6q-29 0 -94 -6t-98 -6q-87 0 -197.5 48t-110.5 95q0 33 31 59t95.5 62.5
t88 54.5t23.5 41zM606 2425q-299 0 -299 184q0 201 303 201q295 0 295 -197q0 -188 -299 -188z" />
    <glyph glyph-name="j" unicode="j" horiz-adv-x="1212" 
d="M344 66v1728q0 60 -26 90.5t-76 56.5t-72.5 46.5t-22.5 64.5q0 50 31.5 68t108.5 18h635q143 0 143 -86q0 -47 -22 -67.5t-72.5 -48.5t-76.5 -61.5t-26 -100.5v-1594q0 -66 62 -184q57 -108 57 -250q0 -233 -178 -378.5t-526 -145.5q-304 0 -484 118.5t-180 331.5
q0 83 44.5 166t123.5 135t176 52q115 0 168.5 -50t90 -125t61.5 -75q21 0 41 12q32 -19 32 -74q0 -71 -49 -111t-119 -40q-53 0 -76.5 17.5t-51 51t-48.5 33.5q-32 0 -32 -53q0 -81 78 -116.5t171 -35.5q137 0 222.5 50.5t85.5 199.5q0 70 -31 118t-95 127t-67 112z
M610 2810q295 0 295 -197q0 -188 -299 -188t-299 184q0 201 303 201z" />
    <glyph glyph-name="k" unicode="k" horiz-adv-x="2503" 
d="M291 389v2282l-108 51t-93.5 57t-36.5 68q0 86 193 86h618q213 0 213 -86q0 -49 -58.5 -84.5t-178.5 -91.5v-766q72 17 186 86.5t226 108t309 38.5q176 0 327.5 -50t241.5 -150.5t90 -245.5q0 -151 -118 -234.5t-271 -113t-279 -29.5q-95 0 -159 10t-62 10q-20 0 -20 -16
q0 -14 110 -62l398 -151q216 -81 287 -249t102 -509q101 -48 204 -122.5t103 -110.5q0 -51 -88 -89t-211 -38q-41 0 -108 6t-97 6q-37 0 -128 -6t-109 -6q-69 0 -116.5 81.5t-47.5 196.5q0 294 -61.5 511t-258.5 321q-222 121 -281 163.5t-59 118.5q0 156 185 156
q53 0 150 -16.5t181 -16.5q116 0 160.5 47.5t44.5 137.5q0 74 -74 118.5t-196 44.5q-101 0 -166.5 -23.5t-189 -79.5t-205.5 -73v-1327q237 -161 237 -217q0 -52 -107 -97.5t-184 -45.5q-47 0 -123 6t-114 6q-27 0 -91 -6t-98 -6q-88 0 -197.5 48t-109.5 95q0 46 30.5 75
t91 63t88.5 59t28 61z" />
    <glyph glyph-name="l" unicode="l" horiz-adv-x="1212" 
d="M344 348v2273q0 50 -26.5 77t-81 54t-76 44t-21.5 55q0 82 94 82h508q69 0 98 -16t29 -78v-2491q0 -23 45 -53t88 -53.5t74 -50.5t31 -60q0 -52 -107 -97.5t-184 -45.5q-31 0 -101 6t-108 6q-29 0 -94 -6t-98 -6q-87 0 -197.5 48t-110.5 95q0 33 31 59t95.5 62.5t88 54.5
t23.5 41z" />
    <glyph glyph-name="m" unicode="m" horiz-adv-x="3564" 
d="M291 348v1434q0 52 -27.5 84.5t-83.5 68.5t-79 57.5t-23 59.5q0 58 38.5 72t112.5 14h664q143 0 143 -65q0 -35 -27.5 -64.5t-87 -72t-83 -63.5t-23.5 -46v-49q66 21 114 43t93 50t88.5 59.5l89.5 64.5q106 71 201 107t233 36q174 0 292 -92t118 -268q114 34 177 74
t208 143q106 71 201 107t233 36q174 0 292 -92t118 -268v-1430q0 -23 20.5 -39t87.5 -53.5t98 -64.5t31 -60q0 -52 -107 -97.5t-184 -45.5q-31 0 -101 6t-107 6q-31 0 -95 -6t-98 -6q-87 0 -197 48.5t-110 94.5q0 33 30 59t95 62.5t88.5 54.5t23.5 41v1204q0 78 -50.5 127.5
t-141.5 49.5q-59 0 -114 -16.5t-139 -50.5t-142.5 -52t-116.5 -21v-1241q0 -23 20.5 -39t87.5 -53.5t98 -64.5t31 -60q0 -52 -106 -97.5t-184 -45.5q-32 0 -102 6t-107 6q-31 0 -95 -6t-98 -6q-88 0 -197.5 48t-109.5 95q0 33 31 59t95.5 62.5t88 54.5t23.5 41v1204
q0 78 -51.5 127.5t-141.5 49.5q-59 0 -114 -16.5t-139 -50.5t-142.5 -52t-116.5 -21v-1241q0 -23 45 -53t88 -53.5t74 -50.5t31 -60q0 -52 -107 -97.5t-184 -45.5q-32 0 -101 6t-108 6q-29 0 -94 -6t-99 -6q-88 0 -197.5 48t-109.5 95q0 33 31 59t95.5 62.5t88 54.5t23.5 41
z" />
    <glyph glyph-name="n" unicode="n" 
d="M229 2138h664q143 0 143 -65q0 -35 -27.5 -64.5t-87 -72t-83 -63.5t-23.5 -46v-49q133 31 258.5 152t190 164.5t252.5 43.5q282 0 413 -145t131 -379v-1266q0 -23 45 -53t88 -53.5t74 -50.5t31 -60q0 -52 -107 -97.5t-184 -45.5q-31 0 -101 6t-108 6q-29 0 -94 -6t-98 -6
q-87 0 -197.5 48t-110.5 95q0 33 31 59t95.5 62.5t88 54.5t23.5 41v1155q0 98 -55.5 162t-145.5 64q-120 0 -174 -22.5t-164.5 -81.5t-181.5 -60v-1217q0 -23 45 -53t88 -53.5t74 -50.5t31 -60q0 -52 -107 -97.5t-184 -45.5q-32 0 -101 6t-108 6q-29 0 -94 -6t-99 -6
q-88 0 -197.5 48t-109.5 95q0 33 31 59t95.5 62.5t88 54.5t23.5 41v1434q0 52 -27.5 84.5t-83.5 68.5t-79 57.5t-23 59.5q0 58 38.5 72t112.5 14z" />
    <glyph glyph-name="o" unicode="o" horiz-adv-x="2277" 
d="M594 1303q0 -278 137 -454.5t367 -176.5q585 0 585 680q0 279 -130.5 450.5t-381.5 171.5q-193 0 -322.5 -88.5t-192 -240t-62.5 -342.5zM119 1098q0 332 115 578t345.5 378.5t563.5 132.5q318 0 547.5 -133t349 -380t119.5 -576q0 -308 -108 -567t-292 -407.5
t-403 -148.5q-42 0 -106.5 12.5t-106.5 12.5q-50 0 -112.5 -12.5t-84.5 -12.5q-226 0 -417 153t-300.5 412.5t-109.5 557.5z" />
    <glyph glyph-name="p" unicode="p" horiz-adv-x="2429" 
d="M311 -418v2196q0 36 -27.5 67.5t-80 70t-79 66.5t-30.5 66q0 90 127 90h647q111 0 111 -94q0 -20 -54 -63.5t-76 -66.5t-22 -63v-49q191 177 320 256.5t319 79.5q244 0 424.5 -145.5t273.5 -389t93 -526.5q0 -281 -106 -540.5t-312.5 -422.5t-486.5 -163q-166 0 -289 64
t-187.5 169.5t-64.5 225.5q0 86 21 139t55.5 111.5t34.5 84.5q0 42 -33 82q36 9 82 9q107 0 150 -40.5t70 -119t59 -115.5t118 -37q162 0 269.5 95.5t158.5 244.5t51 312q0 279 -120 465t-392 186q-70 0 -191.5 -47.5t-214.5 -110.5t-93 -108v-852q-111 -149 -111 -316
q0 -163 111 -295v-516q0 -19 16.5 -35.5t48 -35l53.5 -31.5q119 -63 119 -115t-107 -97.5t-184 -45.5q-31 0 -101 6t-108 6q-29 0 -94 -6t-98 -6q-87 0 -197 48.5t-110 94.5q0 33 30 60.5t74.5 54l88.5 55t44 47.5z" />
    <glyph glyph-name="q" unicode="q" horiz-adv-x="2429" 
d="M2126 1757v-2003q60 25 139 25q152 0 152 -160q0 -71 -33 -131q-34 29 -74 29q-52 -7 -132 -110.5t-138 -156.5t-168 -53q-250 0 -250 328v500q-225 -123 -516 -123q-300 0 -512 136.5t-319 381t-107 563.5q0 193 52 397.5t158.5 376.5t269 276.5t372.5 104.5
q128 0 191.5 -33.5t179 -121t215.5 -128.5q0 40 -22 65.5t-64 55t-60 49.5t-18 56q0 57 139 57h639q135 0 135 -90q0 -62 -83.5 -99t-114.5 -59.5t-31 -132.5zM1602 700v979q-62 5 -95.5 20t-120.5 62.5t-149.5 68.5t-142.5 21q-245 0 -360.5 -220t-115.5 -541
q0 -160 73 -302.5t199.5 -227.5t272.5 -85q241 0 439 225z" />
    <glyph glyph-name="r" unicode="r" horiz-adv-x="1745" 
d="M291 348v1434q0 52 -27.5 84.5t-83.5 68.5t-79 57.5t-23 59.5q0 58 38.5 72t112.5 14h656q74 0 112.5 -14t38.5 -72q0 -28 -27.5 -54t-82 -61t-83 -60t-28.5 -50v-49q69 19 207.5 139.5t207.5 170.5t167 50q170 0 275.5 -115.5t105.5 -306.5q0 -186 -64 -301.5
t-144.5 -168t-165.5 -86t-85 -50.5q0 -11 8 -29q-24 -8 -41 -8q-56 0 -93.5 33.5t-37.5 97.5q0 51 49 146t49 170q0 143 -139 143q-38 0 -145.5 -40t-153.5 -46v-1229q0 -23 45 -53t88 -53.5t74 -50.5t31 -60q0 -52 -107 -97.5t-184 -45.5q-32 0 -101 6t-108 6q-29 0 -94 -6
t-99 -6q-88 0 -197.5 48t-109.5 95q0 33 31 59t95.5 62.5t88 54.5t23.5 41z" />
    <glyph glyph-name="s" unicode="s" horiz-adv-x="2277" 
d="M844 2138h811q364 0 364 -225q0 -82 -57 -133t-147 -51q-93 0 -149 33.5t-56 92.5q0 70 -86 70h-422q-130 0 -196 -27t-66 -96q0 -72 178 -142.5l480.5 -195.5t485.5 -314.5t183 -485.5q0 -212 -81 -369t-210.5 -238.5t-265.5 -81.5q-86 0 -253 16.5t-263 16.5
q-79 0 -232.5 -16.5t-251.5 -16.5q-199 0 -349 119t-150 336q0 92 23 151t70.5 125.5t67 102t19.5 92.5q0 51 -33 103q79 24 188 24q112 0 199.5 -84.5t87.5 -218.5q0 -119 94.5 -160t286.5 -41q189 0 309.5 64t120.5 194q0 112 -102.5 204t-301 189l-402.5 196t-349 198
q-172 114 -172 270q0 135 162 217t465 82z" />
    <glyph glyph-name="t" unicode="t" horiz-adv-x="1290" 
d="M291 348v1462q0 22 -70.5 57.5t-104.5 59t-34 68.5q0 78 201 78v118q0 75 -21 93t-72 43t-51 65q0 26 33.5 50.5t142.5 76.5q135 60 221.5 117.5t173.5 121.5t105 64q62 0 62 -57q0 -12 -31 -76t-31 -137v-508q72 0 167 22.5t148 22.5q185 0 185 -139q0 -63 -35 -146
t-35 -141q0 -121 70 -176q-50 -90 -201 -90q-205 0 -205 258q0 22 8.5 63t8.5 56q0 24 -41 24q-46 0 -70 -12v-1438q0 -23 45 -53t88 -53.5t74 -50.5t31 -60q0 -52 -107 -97.5t-184 -45.5q-32 0 -101 6t-108 6q-29 0 -94 -6t-99 -6q-88 0 -197.5 48t-109.5 95q0 33 31 59
t95.5 62.5t88 54.5t23.5 41z" />
    <glyph glyph-name="u" unicode="u" 
d="M291 537v1298q0 45 -32 74t-96 61t-87 48.5t-23 49.5q0 70 140 70h499q123 0 123 -156v-1269q0 -107 51.5 -172.5t149.5 -65.5q70 0 128 14t135.5 43t133 45t123.5 21v1237q0 37 -56 76l-112.5 79t-56.5 78q0 70 139 70h704q144 0 144 -70q0 -36 -29.5 -61t-88 -56
t-89.5 -55.5t-31 -60.5v-1479q0 -51 27 -83.5t83 -68.5t79.5 -57.5t23.5 -60.5q0 -57 -38.5 -71.5t-112.5 -14.5h-664q-143 0 -143 66q0 39 28 70.5t86.5 74t82.5 65t24 52.5v32q-131 -31 -275 -153.5t-210.5 -164.5t-243.5 -42q-258 0 -387 128t-129 409z" />
    <glyph glyph-name="v" unicode="v" horiz-adv-x="2277" 
d="M78 2138h667q148 0 148 -70q0 -36 -46 -74.5t-69.5 -69t-23.5 -109.5q0 -98 128.5 -421t280 -596.5t221.5 -273.5q61 0 107 82q48 88 125.5 307t133.5 447.5t56 372.5q0 114 -70 153t-192 39q-225 0 -225 -49q0 -20 20.5 -63t20.5 -68q0 -103 -111 -103q-75 0 -114 33
q28 24 28 54q0 22 -70 70t-106.5 81t-36.5 82q0 77 63 123.5t171 52.5h639q174 0 271 -47t97 -174q0 -131 -123 -448.5t-291.5 -659.5t-320 -588t-203.5 -246q-28 0 -62 25t-52 25q-20 0 -59.5 -25t-67.5 -25q-56 0 -123 164l-557 1352q-152 376 -303 483l-52.5 35.5
t-28.5 25t-9 25.5q0 78 139 78z" />
    <glyph glyph-name="w" unicode="w" horiz-adv-x="2884" 
d="M836 90l-553 1639q-39 115 -85 158.5t-114 87.5t-68 81q0 82 136 82h651q172 0 172 -78q0 -29 -58.5 -81.5t-82 -78.5t-23.5 -81q0 -54 8 -82l373 -1069l426 1089q17 53 70 53q52 0 69 -53l377 -1130h8l279 790q61 177 61 303q0 122 -47.5 176t-226.5 54h-721
q-119 0 -119 -45q0 -12 22.5 -48t22.5 -79q0 -95 -55.5 -148t-145.5 -53q-58 0 -102 41t-53 102q8 -4 24 -4q45 0 45 66q0 40 -34.5 104t-34.5 125q0 127 250 127h1372q72 0 130 -32t58 -95q0 -58 -90 -311l-594 -1610q-24 -64 -40.5 -89.5t-49.5 -25.5q-17 0 -44 25t-50 25
q-14 0 -45 -25t-53 -25q-54 0 -95 115l-254 762l-307 -762q-45 -115 -110 -115q-10 0 -44 25t-55 25q-15 0 -46 -25t-52 -25q-40 0 -58 25.5t-44 89.5z" />
    <glyph glyph-name="x" unicode="x" 
d="M287 406l622 626l-512 705q-91 114 -217 180q-106 71 -106 119q0 50 60.5 76t139.5 26h816q192 0 192 -78q0 -19 -25 -65q119 43 323.5 93t311.5 50q193 0 193 -94q0 -26 -32.5 -63.5t-118 -118l-152.5 -147.5t-156 -171l-274 -315l426 -549l131.5 -163t126 -140.5
t135.5 -110.5q192 -122 192 -176q0 -53 -85.5 -84t-172.5 -31q-32 0 -128.5 12.5t-157.5 12.5q-63 0 -156.5 -12.5t-138.5 -12.5q-246 0 -246 82q0 35 23 62t65 57.5t63 51.5t21 46t-61 111l-349 471l-217 -254q-127 -164 -127 -237q0 -43 29.5 -74t87 -67t87.5 -62.5
t30 -63.5q0 -46 -98 -84.5t-156 -38.5q-53 0 -129 12.5t-113 12.5q-50 0 -131 -12.5t-119 -12.5q-131 0 -131 103q0 61 54.5 132t179.5 196zM1241 1393l201 254q123 147 123 192q0 62 -54 62q-49 0 -223.5 -61.5t-210.5 -61.5q-127 0 -127 73q0 15 66 99h-135q-37 0 -37 -25
q0 -15 61 -98z" />
    <glyph glyph-name="y" unicode="y" 
d="M954 344l-786 1446q-15 30 -44 60.5t-81 78.5t-76 78t-24 57q0 46 38.5 58t133.5 16h1015q132 0 132 -74q0 -47 -70 -90v-8q261 51 500 115q214 57 393 57q192 0 192 -131q0 -160 -264 -652.5t-510 -903.5v-730q0 -499 -336 -499q-148 0 -266 160q-11 14 -61 86t-74 95
t-49 23q-28 0 -127 -41l37 185q32 143 168 143q80 0 159 -49v520zM651 1950l631 -1209q22 -45 41 -45q16 0 70 66q385 536 385 950q0 102 -30 145.5t-110 43.5q-102 0 -340 -74q-230 -74 -360 -74q-119 0 -119 102q0 38 19.5 62.5t38.5 24.5v8h-226z" />
    <glyph glyph-name="z" unicode="z" 
d="M213 336l1217 1450q45 54 45 74q0 17 -23 29t-51 12h-565q-49 0 -92.5 -16.5t-43.5 -49.5q0 -20 41 -78t41 -115q0 -68 -50.5 -117.5t-129.5 -49.5q-60 0 -105 33t-67 81q41 54 41 82q0 39 -30.5 68t-98 79.5t-100.5 93.5t-33 103t99.5 91.5t256.5 31.5h1368
q111 0 191 -27t80 -83q0 -97 -90 -205l-1065 -1225q97 -49 372 -49q119 0 248 44t129 120q0 33 -28.5 88t-28.5 96q0 45 44 84t107 39q77 0 123 -22.5t62 -92.5q-58 -9 -58 -98q0 -56 27 -99.5t96.5 -133t106.5 -164.5t37 -164q0 -271 -422 -271q-84 0 -362.5 25t-440.5 25
q-115 0 -346.5 -25t-374.5 -25q-130 0 -202 36.5t-72 90.5q0 41 19.5 76.5t51.5 71.5z" />
    <glyph glyph-name="braceleft" unicode="{" horiz-adv-x="1360" 
d="M922 516v-696q0 -239 68 -366.5t235 -166.5v-65q-296 0 -460 46.5t-241.5 180t-77.5 395.5v738q0 152 -26 247t-93 158t-192 103q184 59 247.5 171t63.5 336v738q0 262 77.5 395.5t241.5 180t460 46.5v-65q-167 -38 -235 -165.5t-68 -367.5v-696q0 -256 -66 -385
t-266 -184v-9q199 -54 265.5 -182.5t66.5 -386.5z" />
    <glyph glyph-name="bar" unicode="|" horiz-adv-x="909" 
d="M250 -25v2982h409v-2982h-409z" />
    <glyph glyph-name="braceright" unicode="}" horiz-adv-x="1360" 
d="M438 -180v696q0 258 66.5 386.5t265.5 182.5v9q-200 55 -266 183.5t-66 385.5v696q0 240 -68 367.5t-235 165.5v65q296 0 459.5 -46t241 -180t77.5 -396v-738q0 -223 64 -335.5t248 -171.5q-184 -59 -248 -171.5t-64 -336.5v-738q0 -262 -77.5 -396t-241 -180t-459.5 -46
v65q167 39 235 166.5t68 366.5z" />
    <glyph glyph-name="asciitilde" unicode="~" horiz-adv-x="2458" 
d="M430 688l-147 348q182 348 491 348q194 0 475 -127q276 -118 418 -118q111 0 191.5 64.5t169.5 180.5l147 -348q-182 -348 -492 -348q-192 0 -475 127q-272 119 -417 119q-110 0 -191 -64t-170 -182z" />
    <glyph glyph-name="Adieresis" horiz-adv-x="3297" 
d="M1700 2707v-372h328v-205h-328v-451q-135 -141 -135 -348q0 -150 135 -299v-721q0 -83 70 -113t212 -30q188 0 350.5 83.5t260.5 235.5t98 353q0 483 -340 483q-180 0 -180 -201q0 -80 -68.5 -142t-169.5 -62q-67 0 -123 24q6 6 15.5 20t9.5 29q0 42 -17 62t-65 65
q-82 82 -82 221q0 131 80.5 254t240 201t375.5 78q276 0 479.5 -107t311 -300t107.5 -441q0 -282 -107.5 -487.5t-295.5 -334t-428.5 -188t-516.5 -59.5q-381 0 -615.5 12t-352.5 41.5t-118 81.5q0 44 113 114.5t172.5 122t59.5 152.5v1651h-316v205h316v389q0 54 -100 107
t-228.5 87.5t-192.5 34.5q-28 0 -28 -8q0 -21 12 -233t12 -328q0 -93 -51 -151t-141 -58q-67 0 -107.5 40.5t-40.5 94.5q0 51 19 74.5t59.5 58.5t40.5 60q0 41 -49 99t-156.5 167.5t-160 179.5t-52.5 127q0 85 68.5 124.5t157.5 39.5l503.5 -13t356.5 -8q51 0 176 -12
t209 -12q67 0 172 12t155 12q49 0 114.5 -89t115 -200t49.5 -157q0 -45 -66 -45q-33 0 -119.5 16.5t-129.5 16.5q-74 0 -74 -54z" />
    <glyph glyph-name="Aring" horiz-adv-x="2355" 
d="M365 2933h1876q88 0 156.5 -39.5t68.5 -124.5q0 -59 -79 -134t-236 -192t-222 -172.5t-65 -95.5q0 -23 40 -58.5t59 -60t19 -74.5q0 -55 -40 -95t-107 -40q-89 0 -141 59t-52 150q0 87 41 190t104.5 233.5t63.5 158.5q0 57 -147 57h-856q-62 0 -92.5 -16t-30.5 -78v-2138
q0 -36 46 -73.5t146 -98.5t150.5 -101.5t50.5 -83.5q0 -53 -114.5 -92t-180.5 -39q-33 0 -144 12.5t-224 12.5q-101 0 -209 -12.5t-144 -12.5q-65 0 -180 39.5t-115 91.5q0 42 49.5 82t149 100.5t147.5 98.5t48 76v1839q0 96 -24.5 146.5t-62 77t-167.5 104.5
q-98 60 -125 82t-27 57q0 164 570 164zM1659 3441l-615 -287l226 287h389z" />
    <glyph glyph-name="ccedilla" horiz-adv-x="2806" 
d="M377 2933h614q430 0 430 -144q0 -51 -129.5 -132.5t-198.5 -147t-69 -191.5v-143q-324 132 -532 287q0 93 -12 138.5t-62 45.5q-78 0 -78 -94q0 -106 176 -225.5t407.5 -209t358.5 -106.5q175 62 356 230.5t181 330.5q0 53 -16.5 142.5t-16.5 128.5q0 35 22.5 62.5
t63.5 27.5h614q51 0 83 -23.5t32 -62.5q0 -27 -23 -48t-66 -45l-120 -67q-91 -56 -156 -121.5t-210.5 -224.5t-254.5 -248t-231 -135v-8q275 -27 413.5 -227t202 -484l127 -552t175.5 -327q175 -87 271.5 -148.5t96.5 -117.5q0 -119 -254 -119q-64 0 -171 12.5t-177 12.5
q-96 0 -192.5 -12.5t-114.5 -12.5q-85 0 -115.5 60t-52.5 223q-60 461 -131.5 753t-155 461t-180.5 255t-229 141q-1073 460 -1073 860q0 205 397 205zM492 545v1483q164 -99 524 -230v-1331q0 -56 52.5 -98t154.5 -91t152 -84.5t50 -87.5q0 -61 -101 -96t-169 -35
q-81 0 -194 12.5t-216 12.5q-128 0 -236 -12.5t-128 -12.5q-94 0 -176 27.5t-82 75.5q0 70 132.5 158.5t184.5 135.5t52 173zM2191 3441l-839 -328l327 328h512z" />
    <glyph glyph-name="eacute" horiz-adv-x="4096" 
d="M1016 1966v-1540q0 -30 42 -61t135.5 -87t142 -94.5t48.5 -72.5q0 -63 -98.5 -99.5t-191.5 -36.5q-32 0 -144 12.5t-205 12.5q-89 0 -198 -12.5t-133 -12.5q-95 0 -205.5 37t-110.5 99q0 35 54 76.5t150 97t143 87t47 54.5v1704q6 -2 157 -45.5l229 -67.5t138 -51z
M205 2933h1696q178 0 267 -34t89 -159q0 -54 -16.5 -80t-51.5 -67.5t-35 -69.5q0 -33 18.5 -59.5t18.5 -22.5q-58 -33 -102 -33q-92 0 -147.5 48.5t-131.5 152.5q-66 86 -360 86h-303q-131 0 -131 -119v-188q-343 64 -524 139q0 168 -82 168q-78 0 -78 -110q0 -62 114 -128
t396 -132t751 -121q228 -28 427.5 -140.5t320.5 -302.5t121 -430q0 -447 -271 -971l-115.5 -218t-118.5 -240t-36 -148q0 -54 26 -96.5t64 -42.5q26 0 77 12.5t95 12.5q69 0 120.5 -55.5t51.5 -125.5q0 -110 -114 -168q-8 50 -70 50q-50 0 -112.5 -18.5t-88.5 -18.5
q-155 0 -245.5 101.5t-90.5 258.5q0 107 29.5 212.5t110.5 344.5q139 421 139 737q0 382 -123 605t-373.5 353t-711.5 255q-315 85 -549 215t-234 321q9 136 70 181t213 45zM983 2929h-491v553h491v-553z" />
    <glyph glyph-name="egrave" horiz-adv-x="2806" 
d="M778 2441l-127 -160q-218 123 -375 270t-157 255q0 127 233 127h791q128 0 170.5 -37.5t42.5 -114.5q0 -83 -109 -230.5l-236.5 -316.5t-216.5 -371t-89 -433q0 -245 80.5 -444t252.5 -318t428 -119q221 0 319.5 90.5t98.5 269.5q0 107 -74 274.5t-198 342.5t-284 325.5
t-329 229.5l99 155q160 -84 306.5 -201.5t268 -265.5t203.5 -319h8v991q0 66 -45.5 111.5t-130.5 96.5t-124.5 87t-39.5 90q0 32 110.5 69.5t184.5 37.5q29 0 119.5 -12.5t155.5 -12.5t159.5 12.5t126.5 12.5q124 0 232 -32t108 -91q0 -41 -127.5 -120t-178 -117t-50.5 -115
v-1958q0 -55 48 -97t145.5 -98t144.5 -95.5t47 -90.5q0 -69 -134 -106.5t-284 -37.5q-63 0 -209 25q-144 25 -217 25q-54 0 -301 -25t-412 -25q-238 0 -459 118.5t-360 356.5t-139 574q0 327 95.5 586.5t197.5 406.5t250.5 331t148.5 237q0 51 -36.5 68.5t-135.5 17.5
q-115 0 -147.5 -9t-32.5 -45q0 -57 184 -176zM1331 -37v-659h307v655z" />
    <glyph glyph-name="ecircumflex" horiz-adv-x="2519" 
d="M1634 1192l-291 65v-688q0 -176 144 -176q20 0 57 4t58 4q13 0 47 -4t51 -4q278 0 278 377q0 346 -344 422zM303 2359q0 -20 -4 -50t-4 -44q0 -63 100.5 -93.5t427.5 -41.5v287q0 53 -131 53q-122 0 -255.5 -38t-133.5 -73zM385 1954q0 12 -25 12q-10 0 -42 -2t-52 -2
q-262 0 -262 389q0 191 105.5 306.5t275.5 115.5h999q213 0 213 -86q0 -50 -64 -92t-173 -68q0 -22 -6.5 -160.5t-10.5 -236.5l447 8l-8 -184q-19 1 -64.5 2.5t-99.5 1.5q-266 0 -266 -33l-9 -516q0 8 17 8q88 0 277.5 -34.5t299.5 -84.5q492 -216 492 -716q0 -203 -80 -343
t-212 -208t-286 -68q-34 0 -167.5 18.5t-274.5 18.5q-63 0 -241 -8t-263 -8q-75 0 -191 28.5t-116 73.5q0 66 38 110.5t187 114.5l-8 1614q0 33 -266 33q-54 0 -99 -1.5t-65 -2.5z" />
    <glyph glyph-name="ugrave" horiz-adv-x="2503" 
d="M840 1905v-230v-1327q237 -161 237 -217q0 -52 -107 -97.5t-184 -45.5q-47 0 -123 6t-114 6q-27 0 -91 -6t-98 -6q-88 0 -197.5 48t-109.5 95q0 46 30.5 75t91 63t88.5 59t28 61v1524l-108 51t-93.5 57t-36.5 68q0 86 193 86h618q213 0 213 -86q0 -49 -58.5 -84.5
t-178.5 -91.5v-8zM2048 2146q111 0 180.5 -65.5t69.5 -167.5l-52 -242l-19 -87t-3 -15q0 6 4.5 35l7.5 47l-16 -82q-48 -266 -410 -266q-54 0 -143 6t-115 6q-70 0 -112 -30.5t-71 -72t-38 -41.5q-20 0 -20 -16q12 26 41.5 64t68.5 38l398 -151q216 -81 287 -249t102 -509
q101 -48 204 -122.5t103 -110.5q0 -51 -88 -89t-211 -38q-41 0 -108 6t-97 6q-37 0 -128 -6t-109 -6q-69 0 -116.5 81.5t-47.5 196.5q0 259 -58.5 410t-261.5 258l-146.5 79.5t-109.5 67t-62.5 63t-21.5 73.5q0 155 185 155q35 0 60.5 13t78 47.5t95.5 52.5t97 18
q46 0 97 -4t59 -4q49 0 49 70q0 33 41.5 61.5t102.5 58.5t61 35q0 9 -45 9q-41 0 -41 57q0 49 53 221q31 102 205 139zM1925 2867l-901 -430l287 430h614z" />
    <glyph glyph-name="ucircumflex" 
d="M0 2417v-287h1126v287h-1126zM291 348v2339q-238 84 -238 160q0 86 193 86h594q213 0 213 -86q0 -103 -238 -160v-807q69 11 205.5 90t243 123.5t252.5 44.5q282 0 413 -145t131 -379v-1266q0 -23 45 -53t88 -53.5t74 -50.5t31 -60q0 -52 -107 -97.5t-184 -45.5
q-31 0 -101 6t-108 6q-29 0 -94 -6t-98 -6q-87 0 -197.5 48t-110.5 95q0 33 31 59t95.5 62.5t88 54.5t23.5 41v1168q0 113 -78 187.5t-172 74.5q-52 0 -193 -43t-278 -43v-1344q0 -23 45 -53t88 -53.5t74 -50.5t31 -60q0 -52 -107 -97.5t-184 -45.5q-32 0 -101 6t-108 6
q-29 0 -94 -6t-99 -6q-88 0 -197.5 48t-109.5 95q0 33 31 59t95.5 62.5t88 54.5t23.5 41z" />
    <glyph glyph-name="degree" unicode="&#xa1;" horiz-adv-x="2732" 
d="M1163 1200l-741 1008q-26 46 -65 71.5t-86.5 44t-67 31t-19.5 37.5q0 51 78 78l578 201q94 31 94 49q0 24 -184 24h-234q-291 0 -291 -127q0 -32 41 -82q-210 9 -318 58t-108 176q0 164 279 164h1065q123 0 196.5 -20t73.5 -95q0 -40 -71.5 -78.5t-207.5 -90.5
t-203 -84.5t-67 -65.5q0 -43 131 -213l545 -717q229 188 421.5 428.5t192.5 456.5q0 80 -36.5 111.5t-114.5 31.5q-145 0 -492 -94q-349 -95 -475 -95q-69 0 -69 54q0 44 143 90l492.5 164t487.5 155.5t257 61.5q113 0 198 -58.5t85 -175.5q0 -146 -182 -404t-420 -505.5
t-381 -351.5v-992q0 -31 45.5 -65t142.5 -90t151 -99t54 -86q0 -53 -115 -92t-180 -39q-34 0 -144 12.5t-217 12.5q-106 0 -216 -12.5t-144 -12.5q-65 0 -180 39.5t-115 91.5q0 42 53 85t149 98t143.5 90t47.5 67v754zM1262 3391q0 -196 -283 -196q-266 0 -266 196
q0 189 266 189q283 0 283 -189zM1475 3391q0 189 278 189q126 0 198 -49t72 -140q0 -96 -71.5 -146t-198.5 -50q-278 0 -278 196z" />
    <glyph glyph-name="cent" unicode="&#xa2;" 
d="M954 344l-786 1446q-15 30 -44 60.5t-81 78.5t-76 78t-24 57q0 46 38.5 58t133.5 16h1015q132 0 132 -74q0 -47 -70 -90v-8q261 51 500 115q214 57 393 57q192 0 192 -131q0 -160 -264 -652.5t-510 -903.5v-730q0 -499 -336 -499q-148 0 -266 160q-11 14 -61 86t-74 95
t-49 23q-28 0 -127 -41l37 185q32 143 168 143q80 0 159 -49v520zM1069 2621q0 -196 -283 -196q-266 0 -266 196q0 91 70.5 140t195.5 49q283 0 283 -189zM1282 2621q0 189 279 189q125 0 197.5 -49t72.5 -140q0 -95 -72 -145.5t-198 -50.5q-279 0 -279 196zM651 1950
l631 -1209q22 -45 41 -45q16 0 70 66q385 536 385 950q0 102 -30 145.5t-110 43.5q-102 0 -340 -74q-230 -74 -360 -74q-119 0 -119 102q0 38 19.5 62.5t38.5 24.5v8h-226z" />
    <glyph glyph-name="sterling" unicode="&#xa3;" horiz-adv-x="2048" 
d="M1081 909v1192q0 71 -31.5 109.5t-86 79.5t-54.5 65q0 69 127 103l344 90q144 38 144 98q0 74 -541 74q-410 0 -410 -94q0 -31 70 -104t104.5 -118t34.5 -110q0 -108 -79 -164.5t-216 -56.5q-167 0 -213 163q99 0 99 62q0 45 -119.5 148.5t-162 148.5t-42.5 129
q0 137 248 173t690 36q339 0 687.5 -43t348.5 -154q0 -73 -45 -109.5t-146.5 -84.5t-151.5 -97.5t-50 -138.5v-1544q0 -83 19.5 -113.5t59 -55.5t60.5 -64.5t21 -135.5q0 -212 -241 -315t-648 -103q-387 0 -631.5 83t-244.5 356q0 151 69.5 238.5t176 166t106.5 119.5
q0 47 -17 74q42 8 78 8q127 0 127 -102q0 -21 -12 -85t-12 -137q0 -172 254 -172q181 0 233.5 103.5t52.5 281.5z" />
    <glyph glyph-name="section" unicode="&#xa4;" horiz-adv-x="2425" 
d="M147 618l226 222q-189 231 -189 594q0 163 52.5 330.5t136.5 263.5l-221 221l249 250l226 -226q100 82 259 129t326 47q173 0 327.5 -45t242.5 -123l233 226l262 -262l-225 -230q93 -89 143 -245t50 -336q0 -173 -49.5 -328t-143.5 -266l221 -222l-237 -237l-221 229
q-106 -93 -264 -142.5t-339 -49.5q-381 0 -594 188l-229 -229zM1794 1434q0 168 -75 307t-207.5 219t-299.5 80q-162 0 -293.5 -78.5t-207.5 -218.5t-76 -309q0 -172 76 -311t209 -217.5t292 -78.5q167 0 299.5 80t207.5 219.5t75 307.5z" />
    <glyph glyph-name="germandbls" unicode="&#xa7;" horiz-adv-x="2277" 
d="M651 2933h983q211 0 325 -41.5t114 -167.5q0 -66 -50 -110.5t-146 -93.5t-140.5 -82t-44.5 -83q0 -65 82 -147q-139 0 -233.5 45.5t-94.5 138.5q0 35 13.5 64.5t40 65t37.5 54t11 45.5q0 59 -104 79t-363 20q-166 0 -259.5 -13t-132 -45t-38.5 -90q0 -207 170.5 -335
t550.5 -325.5t575 -385.5t195 -482q0 -208 -103 -348t-306 -282q128 -99 221.5 -252t93.5 -318q0 -279 -151.5 -430t-368.5 -151q-93 0 -239 6t-212 6q-90 0 -220 -6t-173 -6q-117 0 -233 65t-189.5 174.5t-73.5 235.5q0 195 77.5 322.5t221.5 127.5q55 0 143 -57t132 -57
q31 0 61 24q0 -150 -110 -184q-140 -58 -140 -197t125.5 -178t403.5 -39q201 0 307.5 16t167.5 78.5t61 192.5q0 162 -139 247t-551.5 286t-612.5 396t-200 501q0 211 108 383t294 276q-104 96 -174 185t-116 217.5t-46 301.5q0 211 123 282t327 71zM1733 881
q0 149 -99 272.5t-234.5 209.5t-357.5 200.5t-305 165.5q-217 -132 -217 -361q0 -148 108 -265.5t244 -194.5t365.5 -188t302.5 -167q193 136 193 328z" />
    <glyph glyph-name="registered" unicode="&#xa8;" horiz-adv-x="2503" 
d="M442 541v1761q0 95 -24 146t-60.5 76.5t-169.5 105.5q-98 60 -124.5 81.5t-26.5 57.5q0 164 569 164h1192q545 0 545 -176q0 -99 -164 -222t-407.5 -254.5l-438 -237.5t-194.5 -142q0 -33 37 -33q27 0 113.5 33t158 53t158.5 20q142 0 267.5 -72.5t125.5 -205.5
q0 -91 -43 -158t-129 -80q8 24 8 41q0 66 -94 66q-73 0 -273 -53.5t-297 -53.5q-122 0 -210.5 82t-88.5 201q0 144 130 254.5t412 309t282 267.5q0 89 -90 118.5t-283 29.5q-134 0 -208.5 -16t-111 -67t-36.5 -155v-414q-193 -155 -193 -352q0 -150 193 -303v-565
q0 -137 87.5 -208t246.5 -93.5t423 -22.5q215 0 340.5 38.5t155.5 178.5q111 -41 170 -138t59 -222q0 -195 -144 -300.5t-392 -105.5q-101 0 -321 12.5t-371 12.5q-174 0 -454.5 -12.5t-348.5 -12.5q-136 0 -269 57t-133 120q0 42 53.5 81.5t159 99.5t159.5 106t54 102z
M1069 3297q0 -196 -283 -196q-266 0 -266 196q0 91 70.5 140t195.5 49q283 0 283 -189zM1282 3297q0 189 279 189q125 0 197.5 -49t72.5 -140q0 -95 -72 -145.5t-198 -50.5q-279 0 -279 196z" />
    <glyph glyph-name="copyright" unicode="&#xa9;" horiz-adv-x="3277" 
d="M2273 2212v-336h-114q-90 360 -398 360q-215 0 -322.5 -185t-107.5 -511q0 -762 381 -762q383 0 524 381h107l-70 -364q-240 -131 -598 -131q-401 0 -634.5 221t-233.5 635q0 198 82.5 388.5t268.5 316.5t472 126q532 0 643 -139zM459 1466q0 -320 158.5 -591
t429.5 -429.5t591 -158.5q319 0 591 158.5t430.5 429.5t158.5 591q0 319 -158.5 591t-430.5 430.5t-591 158.5q-320 0 -591 -158.5t-429.5 -430.5t-158.5 -591zM147 1466q0 403 201 747t545 544t745 200q403 0 747 -200t544 -544t200 -747q0 -401 -200 -745t-544 -545
t-747 -201q-401 0 -745.5 200.5t-545 545t-200.5 745.5z" />
    <glyph glyph-name="trademark" unicode="&#xaa;" horiz-adv-x="2654" 
d="M688 1716q-9 -18 -15 -39.5t-9 -34.5q0 9 16 9q10 0 48.5 -6.5t70.5 -6.5q174 0 327 172q45 45 136 45q88 0 186.5 -36t166.5 -96.5t68 -129.5q0 -90 -44 -158t-128 -79q9 0 9 41q0 65 -95 65q-60 0 -136 -73t-140.5 -113.5t-218.5 -54.5q-65 0 -200.5 11.5t-135.5 24.5
q2 -291 104.5 -544t295 -403t448.5 -150q188 0 313 69.5t125 221.5q0 80 -53.5 140t-147.5 60q-73 0 -118.5 -33t-104 -98t-114.5 -100t-146 -35q-87 0 -156 56.5t-69 144.5q0 159 151 159q69 0 103 -40q0 -11 -8.5 -28t-8.5 -26q0 -53 58 -53q37 0 63.5 38.5t26.5 108.5
q0 85 51 186t164 173t284 72q162 0 292.5 -61t206 -181.5t75.5 -286.5q0 -207 -125 -361t-341 -234.5t-480 -80.5q-245 0 -474.5 109.5t-409.5 318t-283 503.5t-103 646q0 399 163 719.5t467.5 503t704.5 182.5q293 0 536 -74.5t384 -216t141 -331.5q0 -156 -54 -249.5
t-142 -107.5q-59 217 -268.5 311.5t-469.5 94.5q-196 0 -390 -78.5t-351.5 -228.5t-245.5 -357z" />
    <glyph glyph-name="acute" unicode="&#xab;" horiz-adv-x="1745" 
d="M606 1024l254 -635q29 -81 29 -106q0 -74 -78 -74q-62 0 -94.5 34t-81.5 113l-422 693q-20 40 -20 65q0 23 20 66l422 692q47 78 80 112.5t96 34.5q78 0 78 -73q0 -30 -29 -107l-254 -635q-20 -62 -20 -90t20 -90zM1270 1024l254 -635q28 -82 28 -106q0 -74 -77 -74
q-61 0 -94.5 34t-82.5 113l-421 693q-21 37 -21 65q0 26 21 66l421 692q47 78 81 112.5t96 34.5q77 0 77 -73q0 -30 -28 -107l-254 -635q-21 -60 -21 -90t21 -90z" />
    <glyph glyph-name="dieresis" unicode="&#xac;" horiz-adv-x="2458" 
d="M1851 446v824h-1654v409h2064v-1233h-410z" />
    <glyph glyph-name="Oslash" unicode="&#xaf;" horiz-adv-x="2048" 
d="M1081 909v1192q0 71 -31.5 109.5t-86 79.5t-54.5 65q0 69 127 103l344 90q144 38 144 98q0 74 -541 74q-410 0 -410 -94q0 -31 70 -104t104.5 -118t34.5 -110q0 -108 -79 -164.5t-216 -56.5q-167 0 -213 163q99 0 99 62q0 45 -119.5 148.5t-162 148.5t-42.5 129
q0 137 248 173t690 36q339 0 687.5 -43t348.5 -154q0 -73 -45 -109.5t-146.5 -84.5t-151.5 -97.5t-50 -138.5v-1544q0 -83 19.5 -113.5t59 -55.5t60.5 -64.5t21 -135.5q0 -212 -241 -315t-648 -103q-387 0 -631.5 83t-244.5 356q0 151 69.5 238.5t176 166t106.5 119.5
q0 47 -17 74q42 8 78 8q127 0 127 -102q0 -21 -12 -85t-12 -137q0 -172 254 -172q181 0 233.5 103.5t52.5 281.5zM926 3297q0 -196 -283 -196q-266 0 -266 196q0 189 266 189q283 0 283 -189zM1139 3297q0 189 278 189q126 0 198.5 -49t72.5 -140q0 -95 -72 -145.5
t-199 -50.5q-278 0 -278 196z" />
    <glyph glyph-name="infinity" unicode="&#xb0;" horiz-adv-x="1638" 
d="M496 2200q0 -134 94 -229t229 -95q134 0 229 95t95 229q0 135 -95 229t-229 94q-135 0 -229 -94t-94 -229zM209 2200q0 165 82.5 305.5t222.5 222.5t305 82q164 0 305 -82.5t223.5 -222.5t82.5 -305q0 -164 -82.5 -305t-223.5 -223.5t-305 -82.5q-165 0 -305 82
t-222.5 223.5t-82.5 305.5z" />
    <glyph glyph-name="plusminus" unicode="&#xb1;" horiz-adv-x="2458" 
d="M1024 1536v532h410v-532h827v-410h-827v-536h-410v536h-827v410h827zM197 0v410h2064v-410h-2064z" />
    <glyph glyph-name="mu" unicode="&#xb5;" 
d="M291 537v1298q0 45 -32 74t-96 61t-87 48.5t-23 49.5q0 70 140 70h499q123 0 123 -156v-1269q0 -107 51.5 -172.5t149.5 -65.5q70 0 128 14t135.5 43t133 45t123.5 21v1237q0 37 -56 76l-112.5 79t-56.5 78q0 70 139 70h704q144 0 144 -70q0 -36 -29.5 -61t-88 -56
t-89.5 -55.5t-31 -60.5v-1479q0 -51 27 -83.5t83 -68.5t79.5 -57.5t23.5 -60.5q0 -57 -38.5 -71.5t-112.5 -14.5h-664q-143 0 -143 66q0 39 28 70.5t86.5 74t82.5 65t24 52.5v32q-131 -31 -275 -153.5t-210.5 -164.5t-243.5 -42q-111 0 -201 45q11 -81 59 -284t48 -326
q0 -94 -68 -153.5t-190 -59.5q-102 0 -168 61t-66 152q0 50 21 241.5t36.5 391t16.5 469.5h-4z" />
    <glyph glyph-name="partialdiff" unicode="&#xb6;" horiz-adv-x="2540" 
d="M848 -266v1515q-318 0 -499 240.5t-181 632.5q0 287 96 465t304.5 262t541.5 84h1221v-164q-159 0 -233.5 -60t-74.5 -206v-2769q0 -307 308 -307v-164h-717v3506h-357v-3506h-737v164q147 0 237.5 82.5t90.5 224.5z" />
    <glyph glyph-name="product" unicode="&#xb8;" horiz-adv-x="2200" 
d="M1040 2138h607q183 0 320.5 -62t137.5 -229q0 -194 -148.5 -315t-450.5 -267t-465.5 -271.5t-188.5 -325.5q201 -119 500 -119q187 0 340 70.5t200 228.5q64 -14 120 -66t89 -125t33 -137q0 -157 -76 -282.5t-195 -194t-245 -68.5q-122 0 -247.5 12.5t-174.5 12.5
q-63 0 -180.5 -12.5t-196.5 -12.5q-168 0 -330.5 128.5t-266 354.5t-103.5 496q0 299 98.5 570.5t306.5 442.5t516 171zM1581 1712q0 213 -414 213q-163 0 -294.5 -51.5t-217.5 -200t-86 -420.5q0 -307 90 -434q71 201 208 323t344 230t288.5 169t81.5 171zM1069 2621
q0 -196 -283 -196q-266 0 -266 196q0 91 70.5 140t195.5 49q283 0 283 -189zM1282 2621q0 189 279 189q125 0 197.5 -49t72.5 -140q0 -95 -72 -145.5t-198 -50.5q-279 0 -279 196z" />
    <glyph glyph-name="pi" unicode="&#xb9;" horiz-adv-x="3957" 
d="M528 1737l525 -443v-848q0 -52 51 -94t155 -97.5t153.5 -89.5t49.5 -75q0 -66 -106 -100.5t-201 -34.5q-62 0 -173 12.5t-191 12.5q-79 0 -191 -12.5t-174 -12.5q-88 0 -197.5 45t-109.5 111q0 40 48 70.5t151 80.5t156.5 91t53.5 93v1291zM2109 1479l525 319v-1352
q0 -52 51 -94t155 -97.5t153.5 -89.5t49.5 -75q0 -66 -106 -100.5t-201 -34.5q-62 0 -173 12.5t-191 12.5q-79 0 -191 -12.5t-174 -12.5q-95 0 -201 34.5t-106 100.5q0 40 48 73.5t152.5 89.5t156.5 98t52 95v1033zM446 2269l1586 -1401v-278l-1819 1515q-103 58 -168 179.5
t-65 246.5q0 406 573 406q101 0 299 -6t299 -6q81 0 122.5 -35.5t41.5 -87.5q0 -89 -94 -152q0 -29 -42 -39l-84 -20.5t-42 -42.5v-697l-525 476v106q0 84 -15.5 126t-74.5 42q-98 -11 -98 -139q0 -129 106 -193zM1942 1487q-21 65 -21 147q0 49 4.5 83.5t7.5 47.5l783 504
q45 27 75.5 79.5t30.5 113.5q0 128 -98 139q-58 0 -74 -42t-16 -126v-106l-525 -316v537q0 33 -41.5 43l-83.5 19.5t-42 39.5q-95 63 -95 152q0 51 42 87t122 36q101 0 299 6t299 6q244 0 409 -97.5t165 -328.5q0 -80 -30 -159t-83.5 -143t-120.5 -104zM3125 1126
q-192 144 -192 398q0 174 102 307q142 192 397 192q177 0 308 -102q192 -148 192 -401q0 -167 -98 -303q-143 -193 -397 -193q-179 0 -312 102zM3363 1167q-101 26 -163 106t-62 181q0 20 8 70q24 100 103.5 162.5t182.5 62.5q22 0 70 -8q101 -24 165 -104.5t64 -182.5
q0 -17 -8 -65q-24 -100 -106.5 -165t-184.5 -65q-21 0 -69 8zM3895 688h-884v-184h884v184z" />
    <glyph glyph-name="integral" unicode="&#xba;" horiz-adv-x="2126" 
d="M1921 430q0 -225 -186 -344t-527 -119q-348 0 -595 149.5t-372.5 423t-125.5 636.5q0 270 103 495t266 354t331 129q79 0 201 -12t176 -12q39 0 170 12t252 12q126 0 245 -68t195 -193.5t76 -282.5q0 -101 -72 -203.5t-170 -124.5q-46 157 -199 228t-341 71
q-313 0 -483.5 -74.5t-235 -224.5t-64.5 -397q0 -316 145.5 -510.5t440.5 -194.5q90 0 204.5 53.5t114.5 118.5q0 21 -17 41.5t-56 20.5q-25 0 -71 -6.5t-85 -6.5q-71 0 -115.5 43t-44.5 105q0 81 66 110q13 -45 61 -45q19 0 70 47.5t107.5 80t142.5 32.5q102 0 192.5 -45
t145.5 -125t55 -174zM573 1126l594 164l21 -246l-594 -122z" />
    <glyph glyph-name="ordfeminine" unicode="&#xbb;" horiz-adv-x="1745" 
d="M885 389l254 635q20 62 20 90t-20 90l-254 635q-29 77 -29 107q0 73 78 73q63 0 99 -37.5t77 -109.5l422 -692q20 -43 20 -66q0 -25 -20 -65l-422 -693q-43 -73 -78.5 -110t-97.5 -37q-78 0 -78 74q0 25 29 106zM221 389l254 635q21 65 21 90t-21 90l-254 635
q-28 77 -28 107q0 73 77 73q64 0 98.5 -36t77.5 -111l422 -692q21 -40 21 -66q0 -28 -21 -65l-422 -693q-45 -76 -79 -111.5t-97 -35.5q-77 0 -77 74q0 24 28 106z" />
    <glyph glyph-name="ordmasculine" unicode="&#xbc;" horiz-adv-x="1139" 
d="M246 1544h508q127 0 127 -94v-1872q0 -73 32 -92.5t118.5 -53t86.5 -75.5q0 -62 -91 -86.5t-200 -24.5h-401q-303 0 -303 111q0 41 87 78.5t116.5 56t29.5 86.5v1655q0 50 -27.5 78t-79.5 53.5t-74.5 43.5t-22.5 54q0 82 94 82zM344 1966q0 101 79 169.5t195 68.5
q117 0 196 -68.5t79 -169.5t-79 -169t-196 -68q-116 0 -195 68t-79 169z" />
    <glyph glyph-name="ae" unicode="&#xbe;" horiz-adv-x="2277" 
d="M844 2138h811q364 0 364 -225q0 -82 -57 -133t-147 -51q-93 0 -149 33.5t-56 92.5q0 70 -86 70h-422q-130 0 -196 -27t-66 -96q0 -72 178 -142.5l480.5 -195.5t485.5 -314.5t183 -485.5q0 -212 -81 -369t-210.5 -238.5t-265.5 -81.5q-86 0 -253 16.5t-263 16.5
q-79 0 -232.5 -16.5t-251.5 -16.5q-199 0 -349 119t-150 336q0 92 23 151t70.5 125.5t67 102t19.5 92.5q0 51 -33 103q79 24 188 24q112 0 199.5 -84.5t87.5 -218.5q0 -119 94.5 -160t286.5 -41q189 0 309.5 64t120.5 194q0 112 -102.5 204t-301 189l-402.5 196t-349 198
q-172 114 -172 270q0 135 162 217t465 82z" />
    <glyph glyph-name="oslash" unicode="&#xbf;" horiz-adv-x="1212" 
d="M344 348v1544q-238 86 -238 160q0 86 193 86h594q213 0 213 -86q0 -48 -64 -90.5t-174 -69.5v-1544q0 -23 45 -53t88 -53.5t74 -50.5t31 -60q0 -52 -107 -97.5t-184 -45.5q-31 0 -101 6t-108 6q-29 0 -94 -6t-98 -6q-87 0 -197.5 48t-110.5 95q0 33 31 59t95.5 62.5
t88 54.5t23.5 41zM557 2621q0 -196 -283 -196q-266 0 -266 196q0 91 70.5 140t195.5 49q283 0 283 -189zM770 2621q0 189 279 189q125 0 197.5 -49t72.5 -140q0 -95 -72 -145.5t-198 -50.5q-279 0 -279 196z" />
    <glyph glyph-name="questiondown" unicode="&#xc0;" horiz-adv-x="2806" 
d="M639 2933h1466q182 0 283.5 -16.5t159 -76t57.5 -182.5t-100 -228.5t-289 -221.5l-1303 -783q-165 -99 -264.5 -245t-99.5 -303q0 -250 151 -250q38 0 75 16t36 16q16 0 16 -12q0 1 -8 -22t-8 -47q0 -42 8 -112t8 -106q0 -385 -348 -385q-188 0 -264 134t-76 317
q0 223 96 534.5t228.5 618t270 582.5l179.5 358q74 139 74 180q0 45 -168 45q-155 0 -155 -69q0 -99 143 -201l-115 -213q-438 272 -438 483q0 114 100.5 151.5t284.5 37.5zM946 2097l-233 -549l8 -8l1139 688q294 176 294 336q0 65 -27 110.5t-83 45.5q-102 0 -102 -115
q0 -66 32 -188q-162 -121 -446 -283l-70 270q-29 112 -64.5 164.5t-99.5 52.5q-134 0 -348 -524zM1618 1745l438 262l258 -1192q53 -250 87.5 -334.5t72.5 -107.5l118 -73.5t146 -106t64 -95.5q0 -61 -91 -92t-184 -31q-49 0 -159 12.5t-177 12.5q-81 0 -202.5 -12.5
t-178.5 -12.5q-78 0 -161.5 32t-83.5 83q0 50 42.5 91t127.5 91t115 71t30 50q0 81 -86 484z" />
    <glyph glyph-name="questiondown" unicode="&#x410;" horiz-adv-x="2806" 
d="M639 2933h1466q182 0 283.5 -16.5t159 -76t57.5 -182.5t-100 -228.5t-289 -221.5l-1303 -783q-165 -99 -264.5 -245t-99.5 -303q0 -250 151 -250q38 0 75 16t36 16q16 0 16 -12q0 1 -8 -22t-8 -47q0 -42 8 -112t8 -106q0 -385 -348 -385q-188 0 -264 134t-76 317
q0 223 96 534.5t228.5 618t270 582.5l179.5 358q74 139 74 180q0 45 -168 45q-155 0 -155 -69q0 -99 143 -201l-115 -213q-438 272 -438 483q0 114 100.5 151.5t284.5 37.5zM946 2097l-233 -549l8 -8l1139 688q294 176 294 336q0 65 -27 110.5t-83 45.5q-102 0 -102 -115
q0 -66 32 -188q-162 -121 -446 -283l-70 270q-29 112 -64.5 164.5t-99.5 52.5q-134 0 -348 -524zM1618 1745l438 262l258 -1192q53 -250 87.5 -334.5t72.5 -107.5l118 -73.5t146 -106t64 -95.5q0 -61 -91 -92t-184 -31q-49 0 -159 12.5t-177 12.5q-81 0 -202.5 -12.5
t-178.5 -12.5q-78 0 -161.5 32t-83.5 83q0 50 42.5 91t127.5 91t115 71t30 50q0 81 -86 484z" />
    <glyph glyph-name="exclamdown" unicode="&#xc1;" horiz-adv-x="2732" 
d="M1147 2695q-19 -2 -48.5 -32t-29.5 -115v-283l-224.5 96.5t-176.5 80.5t-123 73q0 76 -14.5 116t-75.5 40q-82 0 -82 -111q0 -86 312.5 -226.5t690 -268t520.5 -160.5q226 -92 379.5 -255.5t227 -377t73.5 -465.5q0 -281 -111.5 -475t-293 -287.5t-393.5 -93.5
q-52 0 -238.5 24.5t-380.5 24.5q-104 0 -314 -12.5t-329 -12.5q-103 0 -264.5 40t-161.5 104q0 44 43 84.5t133.5 88.5t278.5 138v1688l524 -250v-1077q0 -242 201 -242q26 0 77 4t78 4q22 0 70 -4t70 -4q389 0 389 520q0 274 -145.5 452t-354.5 269l-836 373
q-275 123 -425 211.5t-210.5 164t-60.5 164.5q0 230 459 230h1520q178 0 267 -34t89 -159q0 -54 -16.5 -80t-51.5 -67.5t-35 -69.5q0 -33 18.5 -59.5t18.5 -22.5q-58 -33 -102 -33q-92 0 -147.5 48.5t-131.5 152.5q-66 86 -360 86h-303z" />
    <glyph glyph-name="exclamdown" unicode="&#x411;" horiz-adv-x="2732" 
d="M1147 2695q-19 -2 -48.5 -32t-29.5 -115v-283l-224.5 96.5t-176.5 80.5t-123 73q0 76 -14.5 116t-75.5 40q-82 0 -82 -111q0 -86 312.5 -226.5t690 -268t520.5 -160.5q226 -92 379.5 -255.5t227 -377t73.5 -465.5q0 -281 -111.5 -475t-293 -287.5t-393.5 -93.5
q-52 0 -238.5 24.5t-380.5 24.5q-104 0 -314 -12.5t-329 -12.5q-103 0 -264.5 40t-161.5 104q0 44 43 84.5t133.5 88.5t278.5 138v1688l524 -250v-1077q0 -242 201 -242q26 0 77 4t78 4q22 0 70 -4t70 -4q389 0 389 520q0 274 -145.5 452t-354.5 269l-836 373
q-275 123 -425 211.5t-210.5 164t-60.5 164.5q0 230 459 230h1520q178 0 267 -34t89 -159q0 -54 -16.5 -80t-51.5 -67.5t-35 -69.5q0 -33 18.5 -59.5t18.5 -22.5q-58 -33 -102 -33q-92 0 -147.5 48.5t-131.5 152.5q-66 86 -360 86h-303z" />
    <glyph glyph-name="logicalnot" unicode="&#xc2;" horiz-adv-x="2732" 
d="M545 430v1688l524 -250v-1077q0 -242 201 -242q26 0 77 4t78 4q22 0 70 -4t70 -4q389 0 389 520q0 274 -145.5 452t-354.5 269l-836 373q-275 123 -425 211.5t-210.5 164t-60.5 164.5q0 230 459 230h1413q614 0 614 -369q0 -186 -152.5 -357t-359.5 -302
q226 -92 379.5 -255.5t227 -377t73.5 -465.5q0 -281 -111.5 -475t-293 -287.5t-393.5 -93.5q-52 0 -238.5 24.5t-380.5 24.5q-104 0 -314 -12.5t-329 -12.5q-103 0 -264.5 40t-161.5 104q0 44 43 84.5t133.5 88.5t278.5 138zM1069 2548v-283l-224.5 96.5t-176.5 80.5
t-123 73q0 76 -14.5 116t-75.5 40q-82 0 -82 -111q0 -65 167.5 -156.5t412 -183.5t466.5 -161.5t318 -92.5q104 104 150 196t46 226q0 198 -127.5 265t-392.5 67q-184 0 -264 -35.5t-80 -136.5z" />
    <glyph glyph-name="logicalnot" unicode="&#x412;" horiz-adv-x="2732" 
d="M545 430v1688l524 -250v-1077q0 -242 201 -242q26 0 77 4t78 4q22 0 70 -4t70 -4q389 0 389 520q0 274 -145.5 452t-354.5 269l-836 373q-275 123 -425 211.5t-210.5 164t-60.5 164.5q0 230 459 230h1413q614 0 614 -369q0 -186 -152.5 -357t-359.5 -302
q226 -92 379.5 -255.5t227 -377t73.5 -465.5q0 -281 -111.5 -475t-293 -287.5t-393.5 -93.5q-52 0 -238.5 24.5t-380.5 24.5q-104 0 -314 -12.5t-329 -12.5q-103 0 -264.5 40t-161.5 104q0 44 43 84.5t133.5 88.5t278.5 138zM1069 2548v-283l-224.5 96.5t-176.5 80.5
t-123 73q0 76 -14.5 116t-75.5 40q-82 0 -82 -111q0 -65 167.5 -156.5t412 -183.5t466.5 -161.5t318 -92.5q104 104 150 196t46 226q0 198 -127.5 265t-392.5 67q-184 0 -264 -35.5t-80 -136.5z" />
    <glyph glyph-name="radical" unicode="&#xc3;" horiz-adv-x="2519" 
d="M365 2933h1876q88 0 156.5 -39.5t68.5 -124.5q0 -59 -79 -134t-236 -192t-222 -172.5t-65 -95.5q0 -23 40 -58.5t59 -60t19 -74.5q0 -55 -40 -95t-107 -40q-89 0 -141 59t-52 150q0 87 41 190t104.5 233.5t63.5 158.5q0 57 -147 57h-856q-62 0 -92.5 -16t-30.5 -78v-2138
q0 -36 46 -73.5t146 -98.5t150.5 -101.5t50.5 -83.5q0 -53 -114.5 -92t-180.5 -39q-33 0 -144 12.5t-224 12.5q-101 0 -209 -12.5t-144 -12.5q-65 0 -180 39.5t-115 91.5q0 42 49.5 82t149 100.5t147.5 98.5t48 76v1839q0 96 -24.5 146.5t-62 77t-167.5 104.5
q-98 60 -125 82t-27 57q0 164 570 164z" />
    <glyph glyph-name="radical" unicode="&#x413;" horiz-adv-x="2519" 
d="M365 2933h1876q88 0 156.5 -39.5t68.5 -124.5q0 -59 -79 -134t-236 -192t-222 -172.5t-65 -95.5q0 -23 40 -58.5t59 -60t19 -74.5q0 -55 -40 -95t-107 -40q-89 0 -141 59t-52 150q0 87 41 190t104.5 233.5t63.5 158.5q0 57 -147 57h-856q-62 0 -92.5 -16t-30.5 -78v-2138
q0 -36 46 -73.5t146 -98.5t150.5 -101.5t50.5 -83.5q0 -53 -114.5 -92t-180.5 -39q-33 0 -144 12.5t-224 12.5q-101 0 -209 -12.5t-144 -12.5q-65 0 -180 39.5t-115 91.5q0 42 49.5 82t149 100.5t147.5 98.5t48 76v1839q0 96 -24.5 146.5t-62 77t-167.5 104.5
q-98 60 -125 82t-27 57q0 164 570 164z" />
    <glyph glyph-name="florin" unicode="&#xc4;" horiz-adv-x="2732" 
d="M1065 1454v-360q0 -78 57 -119q58 -42 58 -70q0 -24 -24 -40.5t-97.5 -54t-137 -78.5t-139.5 -114q139 -45 394 -45q454 0 683.5 247t229.5 802q0 245 -59.5 454t-170 357.5t-262 229.5t-335.5 81q-56 0 -197 -37v-434l-524 250q0 197 -90 197q-99 0 -99 -99
t124.5 -170.5t427.5 -206t455 -245.5t152 -258q0 -108 -48 -167t-141 -83.5t-257 -36.5zM541 778v1352q332 -162 524 -279v-258q86 22 86 185q0 125 -148.5 220t-449.5 231.5t-455.5 248.5t-154.5 262q0 91 53 132.5t134.5 51t229.5 9.5q73 0 218 -4t217 -4q77 0 235 4
t236 4q333 0 579 -131.5t398 -359t224.5 -521t72.5 -623.5q0 -279 -83.5 -521t-238.5 -423t-369.5 -280t-472.5 -99q-74 0 -234 12.5t-241 12.5q-100 0 -248.5 -12.5t-222.5 -12.5q-137 0 -291.5 40.5t-154.5 140.5q0 68 70 139.5t214 182t208.5 175t64.5 125.5z" />
    <glyph glyph-name="florin" unicode="&#x414;" horiz-adv-x="2732" 
d="M1065 1454v-360q0 -78 57 -119q58 -42 58 -70q0 -24 -24 -40.5t-97.5 -54t-137 -78.5t-139.5 -114q139 -45 394 -45q454 0 683.5 247t229.5 802q0 245 -59.5 454t-170 357.5t-262 229.5t-335.5 81q-56 0 -197 -37v-434l-524 250q0 197 -90 197q-99 0 -99 -99
t124.5 -170.5t427.5 -206t455 -245.5t152 -258q0 -108 -48 -167t-141 -83.5t-257 -36.5zM541 778v1352q332 -162 524 -279v-258q86 22 86 185q0 125 -148.5 220t-449.5 231.5t-455.5 248.5t-154.5 262q0 91 53 132.5t134.5 51t229.5 9.5q73 0 218 -4t217 -4q77 0 235 4
t236 4q333 0 579 -131.5t398 -359t224.5 -521t72.5 -623.5q0 -279 -83.5 -521t-238.5 -423t-369.5 -280t-472.5 -99q-74 0 -234 12.5t-241 12.5q-100 0 -248.5 -12.5t-222.5 -12.5q-137 0 -291.5 40.5t-154.5 140.5q0 68 70 139.5t214 182t208.5 175t64.5 125.5z" />
    <glyph glyph-name="approxequal" unicode="&#xc5;" horiz-adv-x="2503" 
d="M442 541v1761q0 95 -24 146t-60.5 76.5t-169.5 105.5q-98 60 -124.5 81.5t-26.5 57.5q0 164 569 164h1192q545 0 545 -176q0 -99 -164 -222t-407.5 -254.5l-438 -237.5t-194.5 -142q0 -33 37 -33q27 0 113.5 33t158 53t158.5 20q142 0 267.5 -72.5t125.5 -205.5
q0 -91 -43 -158t-129 -80q8 24 8 41q0 66 -94 66q-73 0 -273 -53.5t-297 -53.5q-122 0 -210.5 82t-88.5 201q0 144 130 254.5t412 309t282 267.5q0 89 -90 118.5t-283 29.5q-134 0 -208.5 -16t-111 -67t-36.5 -155v-414q-193 -155 -193 -352q0 -150 193 -303v-565
q0 -137 87.5 -208t246.5 -93.5t423 -22.5q215 0 340.5 38.5t155.5 178.5q111 -41 170 -138t59 -222q0 -195 -144 -300.5t-392 -105.5q-101 0 -321 12.5t-371 12.5q-174 0 -454.5 -12.5t-348.5 -12.5q-136 0 -269 57t-133 120q0 42 53.5 81.5t159 99.5t159.5 106t54 102z" />
    <glyph glyph-name="approxequal" unicode="&#x415;" horiz-adv-x="2503" 
d="M442 541v1761q0 95 -24 146t-60.5 76.5t-169.5 105.5q-98 60 -124.5 81.5t-26.5 57.5q0 164 569 164h1192q545 0 545 -176q0 -99 -164 -222t-407.5 -254.5l-438 -237.5t-194.5 -142q0 -33 37 -33q27 0 113.5 33t158 53t158.5 20q142 0 267.5 -72.5t125.5 -205.5
q0 -91 -43 -158t-129 -80q8 24 8 41q0 66 -94 66q-73 0 -273 -53.5t-297 -53.5q-122 0 -210.5 82t-88.5 201q0 144 130 254.5t412 309t282 267.5q0 89 -90 118.5t-283 29.5q-134 0 -208.5 -16t-111 -67t-36.5 -155v-414q-193 -155 -193 -352q0 -150 193 -303v-565
q0 -137 87.5 -208t246.5 -93.5t423 -22.5q215 0 340.5 38.5t155.5 178.5q111 -41 170 -138t59 -222q0 -195 -144 -300.5t-392 -105.5q-101 0 -321 12.5t-371 12.5q-174 0 -454.5 -12.5t-348.5 -12.5q-136 0 -269 57t-133 120q0 42 53.5 81.5t159 99.5t159.5 106t54 102z" />
    <glyph glyph-name="Delta" unicode="&#xc6;" horiz-adv-x="4018" 
d="M1716 389v205q34 0 123 -6t139 -6q51 0 141 4t122 4v-234q0 -31 35 -59t115.5 -78t124.5 -88t44 -78q0 -73 -303 -73q-33 0 -142 10t-186 10q-46 0 -151 -10t-152 -10q-258 0 -258 98q0 34 42 64t126 74.5t132 85t48 87.5zM1028 762l70 139q180 -60 424 -89.5t456 -29.5
q482 0 844 45l62 -139q-464 -45 -889 -45q-506 0 -967 119zM1716 2294v209q0 48 -46 87t-136.5 87t-128 74.5t-37.5 58.5q0 102 258 102q47 0 152 -10t151 -10q77 0 186 10t142 10q303 0 303 -78q0 -38 -40 -72.5t-121 -84.5t-119.5 -81.5t-38.5 -64.5v-229q-32 0 -122 4
t-141 4q-50 0 -139 -8t-123 -8zM1098 1991l-70 135q477 123 967 123q328 0 889 -45l-62 -140q-349 45 -844 45q-212 0 -454.5 -28.5t-425.5 -89.5zM815 1462q0 22 -89 49t-175.5 97t-154.5 261t-68 531q0 214 14 317t44 139t89 36q48 0 124 -10.5t138 -10.5t150 10.5
t133 10.5q237 0 237 -94q0 -29 -104.5 -97t-263.5 -141q-67 -29 -91 -74.5t-24 -126.5q0 -28 6 -131t6 -176q0 -182 71.5 -268.5t203.5 -111.5t373 -25q169 0 225.5 103t56.5 282q164 20 525 20q0 -179 41.5 -282t191.5 -103q363 0 511 139.5t148 388.5q0 141 -8.5 212
t-32.5 108t-77 70q-3 2 -122 71t-175 109.5t-56 64.5q0 82 287 82q51 0 139 -10t127 -10q48 0 142 10t141 10q105 0 144.5 -91.5t39.5 -358.5q0 -274 -98.5 -468t-226 -300t-251.5 -168.5t-124 -67.5q0 -8 125.5 -76.5t251.5 -177t224.5 -306t98.5 -472.5
q0 -267 -39.5 -356.5t-144.5 -89.5q-47 0 -141 10t-142 10q-39 0 -127 -10t-139 -10q-287 0 -287 77q0 26 52.5 65t163.5 103.5t137 81.5q53 33 77 69t32.5 107t8.5 213q0 250 -147.5 387.5t-511.5 137.5q-150 0 -191.5 -101.5t-41.5 -279.5q-361 0 -525 16q0 181 -56 283
t-226 102q-770 0 -770 -475q0 -148 20 -227t65 -121.5t140 -85.5q368 -178 368 -238q0 -94 -237 -94q-37 0 -129 10t-154 10t-141 -10t-121 -10q-59 0 -89 34.5t-44 136.5t-14 316q0 425 98 641t207 275t182 59z" />
    <glyph glyph-name="Delta" unicode="&#x416;" horiz-adv-x="4018" 
d="M1716 389v205q34 0 123 -6t139 -6q51 0 141 4t122 4v-234q0 -31 35 -59t115.5 -78t124.5 -88t44 -78q0 -73 -303 -73q-33 0 -142 10t-186 10q-46 0 -151 -10t-152 -10q-258 0 -258 98q0 34 42 64t126 74.5t132 85t48 87.5zM1028 762l70 139q180 -60 424 -89.5t456 -29.5
q482 0 844 45l62 -139q-464 -45 -889 -45q-506 0 -967 119zM1716 2294v209q0 48 -46 87t-136.5 87t-128 74.5t-37.5 58.5q0 102 258 102q47 0 152 -10t151 -10q77 0 186 10t142 10q303 0 303 -78q0 -38 -40 -72.5t-121 -84.5t-119.5 -81.5t-38.5 -64.5v-229q-32 0 -122 4
t-141 4q-50 0 -139 -8t-123 -8zM1098 1991l-70 135q477 123 967 123q328 0 889 -45l-62 -140q-349 45 -844 45q-212 0 -454.5 -28.5t-425.5 -89.5zM815 1462q0 22 -89 49t-175.5 97t-154.5 261t-68 531q0 214 14 317t44 139t89 36q48 0 124 -10.5t138 -10.5t150 10.5
t133 10.5q237 0 237 -94q0 -29 -104.5 -97t-263.5 -141q-67 -29 -91 -74.5t-24 -126.5q0 -28 6 -131t6 -176q0 -182 71.5 -268.5t203.5 -111.5t373 -25q169 0 225.5 103t56.5 282q164 20 525 20q0 -179 41.5 -282t191.5 -103q363 0 511 139.5t148 388.5q0 141 -8.5 212
t-32.5 108t-77 70q-3 2 -122 71t-175 109.5t-56 64.5q0 82 287 82q51 0 139 -10t127 -10q48 0 142 10t141 10q105 0 144.5 -91.5t39.5 -358.5q0 -274 -98.5 -468t-226 -300t-251.5 -168.5t-124 -67.5q0 -8 125.5 -76.5t251.5 -177t224.5 -306t98.5 -472.5
q0 -267 -39.5 -356.5t-144.5 -89.5q-47 0 -141 10t-142 10q-39 0 -127 -10t-139 -10q-287 0 -287 77q0 26 52.5 65t163.5 103.5t137 81.5q53 33 77 69t32.5 107t8.5 213q0 250 -147.5 387.5t-511.5 137.5q-150 0 -191.5 -101.5t-41.5 -279.5q-361 0 -525 16q0 181 -56 283
t-226 102q-770 0 -770 -475q0 -148 20 -227t65 -121.5t140 -85.5q368 -178 368 -238q0 -94 -237 -94q-37 0 -129 10t-154 10t-141 -10t-121 -10q-59 0 -89 34.5t-44 136.5t-14 316q0 425 98 641t207 275t182 59z" />
    <glyph glyph-name="guillemotleft" unicode="&#xc7;" horiz-adv-x="2429" 
d="M1311 2081q100 70 202.5 168t169 194.5t66.5 161.5q0 53 -43 84t-109 31h-643q-229 0 -229 -90q0 -33 43 -95t43 -118q0 -70 -65.5 -123t-147.5 -53q-54 0 -94 8q61 61 61 114q0 43 -121 112.5t-182 117t-61 139.5q0 85 54.5 128t169.5 58t333 15h1052q390 0 390 -320
q0 -293 -143 -495t-238 -279q-17 -26 -17 -70q0 -75 53 -148.5t180.5 -218t193 -250.5t65.5 -210q0 -311 -109.5 -530t-300.5 -328t-434 -109q-45 0 -136.5 12.5t-166.5 12.5q-79 0 -168.5 -12.5t-126.5 -12.5q-158 0 -296 66.5t-241 183t-158 265t-55 305.5q0 199 87 368.5
t240 269t333 99.5q169 0 275.5 -46t176 -119l115.5 -122t96 -49q29 0 45 8q9 -50 9 -69q0 -107 -63 -178.5t-175 -71.5q-73 0 -125.5 16.5t-102 46.5t-85 45t-84.5 15q-77 0 -122.5 -48.5t-45.5 -107.5q0 -146 144 -224.5t335 -78.5q168 0 308 58t223 176.5t83 293.5
q0 128 -138.5 281t-332.5 284q-39 50 -122 50h-62q-58 0 -89 32t-34 131q3 102 22 135t60 33q13 0 48 -4t55 -4q79 0 135 66z" />
    <glyph glyph-name="guillemotleft" unicode="&#x417;" horiz-adv-x="2429" 
d="M1311 2081q100 70 202.5 168t169 194.5t66.5 161.5q0 53 -43 84t-109 31h-643q-229 0 -229 -90q0 -33 43 -95t43 -118q0 -70 -65.5 -123t-147.5 -53q-54 0 -94 8q61 61 61 114q0 43 -121 112.5t-182 117t-61 139.5q0 85 54.5 128t169.5 58t333 15h1052q390 0 390 -320
q0 -293 -143 -495t-238 -279q-17 -26 -17 -70q0 -75 53 -148.5t180.5 -218t193 -250.5t65.5 -210q0 -311 -109.5 -530t-300.5 -328t-434 -109q-45 0 -136.5 12.5t-166.5 12.5q-79 0 -168.5 -12.5t-126.5 -12.5q-158 0 -296 66.5t-241 183t-158 265t-55 305.5q0 199 87 368.5
t240 269t333 99.5q169 0 275.5 -46t176 -119l115.5 -122t96 -49q29 0 45 8q9 -50 9 -69q0 -107 -63 -178.5t-175 -71.5q-73 0 -125.5 16.5t-102 46.5t-85 45t-84.5 15q-77 0 -122.5 -48.5t-45.5 -107.5q0 -146 144 -224.5t335 -78.5q168 0 308 58t223 176.5t83 293.5
q0 128 -138.5 281t-332.5 284q-39 50 -122 50h-62q-58 0 -89 32t-34 131q3 102 22 135t60 33q13 0 48 -4t55 -4q79 0 135 66z" />
    <glyph glyph-name="guillemotright" unicode="&#xc8;" horiz-adv-x="2806" 
d="M778 2441l-127 -160q-218 123 -375 270t-157 255q0 127 233 127h791q128 0 170.5 -37.5t42.5 -114.5q0 -83 -109 -230.5l-236.5 -316.5t-216.5 -371t-89 -433q0 -245 80.5 -444t252.5 -318t428 -119q221 0 319.5 90.5t98.5 269.5q0 107 -74 274.5t-198 342.5t-284 325.5
t-329 229.5l99 155q160 -84 306.5 -201.5t268 -265.5t203.5 -319h8v991q0 66 -45.5 111.5t-130.5 96.5t-124.5 87t-39.5 90q0 32 110.5 69.5t184.5 37.5q29 0 119.5 -12.5t155.5 -12.5t159.5 12.5t126.5 12.5q124 0 232 -32t108 -91q0 -41 -127.5 -120t-178 -117t-50.5 -115
v-1958q0 -55 48 -97t145.5 -98t144.5 -95.5t47 -90.5q0 -69 -134 -106.5t-284 -37.5q-63 0 -209 25q-144 25 -217 25q-54 0 -301 -25t-412 -25q-238 0 -459 118.5t-360 356.5t-139 574q0 327 95.5 586.5t197.5 406.5t250.5 331t148.5 237q0 51 -36.5 68.5t-135.5 17.5
q-115 0 -147.5 -9t-32.5 -45q0 -57 184 -176z" />
    <glyph glyph-name="guillemotright" unicode="&#x418;" horiz-adv-x="2806" 
d="M778 2441l-127 -160q-218 123 -375 270t-157 255q0 127 233 127h791q128 0 170.5 -37.5t42.5 -114.5q0 -83 -109 -230.5l-236.5 -316.5t-216.5 -371t-89 -433q0 -245 80.5 -444t252.5 -318t428 -119q221 0 319.5 90.5t98.5 269.5q0 107 -74 274.5t-198 342.5t-284 325.5
t-329 229.5l99 155q160 -84 306.5 -201.5t268 -265.5t203.5 -319h8v991q0 66 -45.5 111.5t-130.5 96.5t-124.5 87t-39.5 90q0 32 110.5 69.5t184.5 37.5q29 0 119.5 -12.5t155.5 -12.5t159.5 12.5t126.5 12.5q124 0 232 -32t108 -91q0 -41 -127.5 -120t-178 -117t-50.5 -115
v-1958q0 -55 48 -97t145.5 -98t144.5 -95.5t47 -90.5q0 -69 -134 -106.5t-284 -37.5q-63 0 -209 25q-144 25 -217 25q-54 0 -301 -25t-412 -25q-238 0 -459 118.5t-360 356.5t-139 574q0 327 95.5 586.5t197.5 406.5t250.5 331t148.5 237q0 51 -36.5 68.5t-135.5 17.5
q-115 0 -147.5 -9t-32.5 -45q0 -57 184 -176z" />
    <glyph glyph-name="ellipsis" unicode="&#xc9;" horiz-adv-x="2806" 
d="M778 2441l-127 -160q-218 123 -375 270t-157 255q0 127 233 127h791q128 0 170.5 -37.5t42.5 -114.5q0 -83 -109 -230.5l-236.5 -316.5t-216.5 -371t-89 -433q0 -245 80.5 -444t252.5 -318t428 -119q221 0 319.5 90.5t98.5 269.5q0 107 -74 274.5t-198 342.5t-284 325.5
t-329 229.5l99 155q160 -84 306.5 -201.5t268 -265.5t203.5 -319h8v991q0 66 -45.5 111.5t-130.5 96.5t-124.5 87t-39.5 90q0 32 110.5 69.5t184.5 37.5q29 0 119.5 -12.5t155.5 -12.5t159.5 12.5t126.5 12.5q124 0 232 -32t108 -91q0 -41 -127.5 -120t-178 -117t-50.5 -115
v-1958q0 -55 48 -97t145.5 -98t144.5 -95.5t47 -90.5q0 -69 -134 -106.5t-284 -37.5q-63 0 -209 25q-144 25 -217 25q-54 0 -301 -25t-412 -25q-238 0 -459 118.5t-360 356.5t-139 574q0 327 95.5 586.5t197.5 406.5t250.5 331t148.5 237q0 51 -36.5 68.5t-135.5 17.5
q-115 0 -147.5 -9t-32.5 -45q0 -57 184 -176zM1790 3195q-114 -49 -299 -49q-127 0 -294.5 24.5t-180.5 24.5q-266 0 -266 196q0 189 266 189q135 0 208.5 -48.5t73.5 -140.5q0 -53 111 -53q102 0 102 53q0 189 279 189q126 0 198 -49t72 -140q0 -96 -71.5 -146t-198.5 -50z
" />
    <glyph glyph-name="ellipsis" unicode="&#x419;" horiz-adv-x="2806" 
d="M778 2441l-127 -160q-218 123 -375 270t-157 255q0 127 233 127h791q128 0 170.5 -37.5t42.5 -114.5q0 -83 -109 -230.5l-236.5 -316.5t-216.5 -371t-89 -433q0 -245 80.5 -444t252.5 -318t428 -119q221 0 319.5 90.5t98.5 269.5q0 107 -74 274.5t-198 342.5t-284 325.5
t-329 229.5l99 155q160 -84 306.5 -201.5t268 -265.5t203.5 -319h8v991q0 66 -45.5 111.5t-130.5 96.5t-124.5 87t-39.5 90q0 32 110.5 69.5t184.5 37.5q29 0 119.5 -12.5t155.5 -12.5t159.5 12.5t126.5 12.5q124 0 232 -32t108 -91q0 -41 -127.5 -120t-178 -117t-50.5 -115
v-1958q0 -55 48 -97t145.5 -98t144.5 -95.5t47 -90.5q0 -69 -134 -106.5t-284 -37.5q-63 0 -209 25q-144 25 -217 25q-54 0 -301 -25t-412 -25q-238 0 -459 118.5t-360 356.5t-139 574q0 327 95.5 586.5t197.5 406.5t250.5 331t148.5 237q0 51 -36.5 68.5t-135.5 17.5
q-115 0 -147.5 -9t-32.5 -45q0 -57 184 -176zM1790 3195q-114 -49 -299 -49q-127 0 -294.5 24.5t-180.5 24.5q-266 0 -266 196q0 189 266 189q135 0 208.5 -48.5t73.5 -140.5q0 -53 111 -53q102 0 102 53q0 189 279 189q126 0 198 -49t72 -140q0 -96 -71.5 -146t-198.5 -50z
" />
    <glyph glyph-name="nonbreakingspace" unicode="&#xca;" horiz-adv-x="2806" 
d="M377 2933h614q430 0 430 -144q0 -51 -129.5 -132.5t-198.5 -147t-69 -191.5v-143q-324 132 -532 287q0 93 -12 138.5t-62 45.5q-78 0 -78 -94q0 -106 176 -225.5t407.5 -209t358.5 -106.5q175 62 356 230.5t181 330.5q0 53 -16.5 142.5t-16.5 128.5q0 35 22.5 62.5
t63.5 27.5h614q51 0 83 -23.5t32 -62.5q0 -27 -23 -48t-66 -45l-120 -67q-91 -56 -156 -121.5t-210.5 -224.5t-254.5 -248t-231 -135v-8q275 -27 413.5 -227t202 -484l127 -552t175.5 -327q175 -87 271.5 -148.5t96.5 -117.5q0 -119 -254 -119q-64 0 -171 12.5t-177 12.5
q-96 0 -192.5 -12.5t-114.5 -12.5q-85 0 -115.5 60t-52.5 223q-60 461 -131.5 753t-155 461t-180.5 255t-229 141q-1073 460 -1073 860q0 205 397 205zM492 545v1483q164 -99 524 -230v-1331q0 -56 52.5 -98t154.5 -91t152 -84.5t50 -87.5q0 -61 -101 -96t-169 -35
q-81 0 -194 12.5t-216 12.5q-128 0 -236 -12.5t-128 -12.5q-94 0 -176 27.5t-82 75.5q0 70 132.5 158.5t184.5 135.5t52 173z" />
    <glyph glyph-name="nonbreakingspace" unicode="&#x41a;" horiz-adv-x="2806" 
d="M377 2933h614q430 0 430 -144q0 -51 -129.5 -132.5t-198.5 -147t-69 -191.5v-143q-324 132 -532 287q0 93 -12 138.5t-62 45.5q-78 0 -78 -94q0 -106 176 -225.5t407.5 -209t358.5 -106.5q175 62 356 230.5t181 330.5q0 53 -16.5 142.5t-16.5 128.5q0 35 22.5 62.5
t63.5 27.5h614q51 0 83 -23.5t32 -62.5q0 -27 -23 -48t-66 -45l-120 -67q-91 -56 -156 -121.5t-210.5 -224.5t-254.5 -248t-231 -135v-8q275 -27 413.5 -227t202 -484l127 -552t175.5 -327q175 -87 271.5 -148.5t96.5 -117.5q0 -119 -254 -119q-64 0 -171 12.5t-177 12.5
q-96 0 -192.5 -12.5t-114.5 -12.5q-85 0 -115.5 60t-52.5 223q-60 461 -131.5 753t-155 461t-180.5 255t-229 141q-1073 460 -1073 860q0 205 397 205zM492 545v1483q164 -99 524 -230v-1331q0 -56 52.5 -98t154.5 -91t152 -84.5t50 -87.5q0 -61 -101 -96t-169 -35
q-81 0 -194 12.5t-216 12.5q-128 0 -236 -12.5t-128 -12.5q-94 0 -176 27.5t-82 75.5q0 70 132.5 158.5t184.5 135.5t52 173z" />
    <glyph glyph-name="Agrave" unicode="&#xcb;" horiz-adv-x="3154" 
d="M1716 463v1454q148 -16 262 -16q123 0 263 8v-1483q0 -38 34.5 -71t118 -95.5t125 -105.5t41.5 -88q0 -91 -303 -91q-33 0 -138 12.5t-190 12.5q-54 0 -155 -12.5t-148 -12.5q-258 0 -258 119q0 40 39 73t128 89t135 103t46 104zM2650 2163q-172 -97 -314.5 -143
t-340.5 -46q-512 0 -967 144l70 163q362 -143 880 -143q157 0 261 24.5t180.5 70t169.5 122.5q102 67 137 106t35 103q0 73 -37 98t-115 25q-176 0 -176 -66q-123 0 -157.5 -110t-34.5 -303q-361 0 -525 20q-4 218 -58.5 338.5t-223.5 120.5q-193 0 -364 -290t-276.5 -680
t-105.5 -632q0 -297 41 -462t160 -230q368 -205 368 -282q0 -111 -237 -111q-37 0 -125.5 12.5t-157.5 12.5q-68 0 -144 -12.5t-118 -12.5q-59 0 -89 41.5t-44 164t-14 376.5q0 408 80 771t183 620t206.5 453t103.5 204q0 49 -143 49q-78 0 -123 -26t-45 -60q0 -51 43 -89
t88 -55l-94 -208q-252 123 -370 220t-118 230q0 113 96 177.5t220 64.5h2392q159 0 241 -54t82 -188q0 -269 -520 -528z" />
    <glyph glyph-name="Agrave" unicode="&#x41b;" horiz-adv-x="3154" 
d="M1716 463v1454q148 -16 262 -16q123 0 263 8v-1483q0 -38 34.5 -71t118 -95.5t125 -105.5t41.5 -88q0 -91 -303 -91q-33 0 -138 12.5t-190 12.5q-54 0 -155 -12.5t-148 -12.5q-258 0 -258 119q0 40 39 73t128 89t135 103t46 104zM2650 2163q-172 -97 -314.5 -143
t-340.5 -46q-512 0 -967 144l70 163q362 -143 880 -143q157 0 261 24.5t180.5 70t169.5 122.5q102 67 137 106t35 103q0 73 -37 98t-115 25q-176 0 -176 -66q-123 0 -157.5 -110t-34.5 -303q-361 0 -525 20q-4 218 -58.5 338.5t-223.5 120.5q-193 0 -364 -290t-276.5 -680
t-105.5 -632q0 -297 41 -462t160 -230q368 -205 368 -282q0 -111 -237 -111q-37 0 -125.5 12.5t-157.5 12.5q-68 0 -144 -12.5t-118 -12.5q-59 0 -89 41.5t-44 164t-14 376.5q0 408 80 771t183 620t206.5 453t103.5 204q0 49 -143 49q-78 0 -123 -26t-45 -60q0 -51 43 -89
t88 -55l-94 -208q-252 123 -370 220t-118 230q0 113 96 177.5t220 64.5h2392q159 0 241 -54t82 -188q0 -269 -520 -528z" />
    <glyph glyph-name="Atilde" unicode="&#xcc;" horiz-adv-x="4018" 
d="M721 2449l-94 -208q-252 123 -370 220t-118 230q0 113 96 177.5t220 64.5h3272q160 0 242 -54t82 -188q0 -159 -172.5 -299t-360.5 -205l-61 205q70 21 127 65.5t57 106.5q0 72 -36.5 97.5t-114.5 25.5q-176 0 -176 -66q0 -10 67 -255.5t132 -529t117 -642.5t52 -686
q0 -317 -39.5 -425t-144.5 -108q-47 0 -137.5 12.5t-145.5 12.5q-45 0 -130 -12.5t-136 -12.5q-287 0 -287 95q0 29 55 77t164.5 124t133.5 94q52 37 76.5 81t33 128.5t8.5 252.5q0 254 -65 694t-213 790.5t-381 350.5q-150 0 -191.5 -121t-41.5 -333q-361 0 -525 20
q-4 218 -58.5 338.5t-223.5 120.5q-193 0 -364 -290t-276.5 -680t-105.5 -632q0 -297 41 -462t160 -230q368 -205 368 -282q0 -111 -237 -111q-37 0 -125.5 12.5t-157.5 12.5q-68 0 -144 -12.5t-118 -12.5q-59 0 -89 41.5t-44 164t-14 376.5q0 408 80 771t183 620t206.5 453
t103.5 204q0 49 -143 49q-78 0 -123 -26t-45 -60q0 -51 43 -89t88 -55zM1028 2118l70 163q362 -143 880 -143q471 0 844 53l62 -163q-489 -54 -889 -54q-512 0 -967 144zM1716 463v1454q148 -16 262 -16q123 0 263 8v-1483q0 -38 34.5 -71t118 -95.5t125 -105.5t41.5 -88
q0 -91 -303 -91q-33 0 -138 12.5t-190 12.5q-54 0 -155 -12.5t-148 -12.5q-258 0 -258 119q0 40 39 73t128 89t135 103t46 104z" />
    <glyph glyph-name="Atilde" unicode="&#x41c;" horiz-adv-x="4018" 
d="M721 2449l-94 -208q-252 123 -370 220t-118 230q0 113 96 177.5t220 64.5h3272q160 0 242 -54t82 -188q0 -159 -172.5 -299t-360.5 -205l-61 205q70 21 127 65.5t57 106.5q0 72 -36.5 97.5t-114.5 25.5q-176 0 -176 -66q0 -10 67 -255.5t132 -529t117 -642.5t52 -686
q0 -317 -39.5 -425t-144.5 -108q-47 0 -137.5 12.5t-145.5 12.5q-45 0 -130 -12.5t-136 -12.5q-287 0 -287 95q0 29 55 77t164.5 124t133.5 94q52 37 76.5 81t33 128.5t8.5 252.5q0 254 -65 694t-213 790.5t-381 350.5q-150 0 -191.5 -121t-41.5 -333q-361 0 -525 20
q-4 218 -58.5 338.5t-223.5 120.5q-193 0 -364 -290t-276.5 -680t-105.5 -632q0 -297 41 -462t160 -230q368 -205 368 -282q0 -111 -237 -111q-37 0 -125.5 12.5t-157.5 12.5q-68 0 -144 -12.5t-118 -12.5q-59 0 -89 41.5t-44 164t-14 376.5q0 408 80 771t183 620t206.5 453
t103.5 204q0 49 -143 49q-78 0 -123 -26t-45 -60q0 -51 43 -89t88 -55zM1028 2118l70 163q362 -143 880 -143q471 0 844 53l62 -163q-489 -54 -889 -54q-512 0 -967 144zM1716 463v1454q148 -16 262 -16q123 0 263 8v-1483q0 -38 34.5 -71t118 -95.5t125 -105.5t41.5 -88
q0 -91 -303 -91q-33 0 -138 12.5t-190 12.5q-54 0 -155 -12.5t-148 -12.5q-258 0 -258 119q0 40 39 73t128 89t135 103t46 104z" />
    <glyph glyph-name="Otilde" unicode="&#xcd;" horiz-adv-x="3109" 
d="M528 1798l525 -319v-1033q0 -52 51 -94t155 -97.5t153.5 -89.5t49.5 -75q0 -66 -106 -100.5t-201 -34.5q-62 0 -173 12.5t-191 12.5q-79 0 -191 -12.5t-174 -12.5q-88 0 -197.5 45t-109.5 111q0 40 48 70.5t151 80.5t156.5 91t53.5 93v1352zM2109 1479l525 319v-1352
q0 -52 51 -94t155 -97.5t153.5 -89.5t49.5 -75q0 -66 -106 -100.5t-201 -34.5q-62 0 -173 12.5t-191 12.5q-79 0 -191 -12.5t-174 -12.5q-95 0 -201 34.5t-106 100.5q0 40 48 73.5t152.5 89.5t156.5 98t52 95v1033zM1520 1778h204q187 12 409.5 121t371.5 214t211 156
q106 60 106 193q0 128 -98 139q-58 0 -74 -42t-16 -126v-106l-525 -316v537q0 33 -41.5 43l-83.5 19.5t-42 39.5q-95 63 -95 152q0 51 42 87t122 36q101 0 299 6t299 6q244 0 409 -97.5t165 -328.5q0 -80 -30 -159t-83.5 -143t-120.5 -104l-1007 -618q-18 -8 -29 -8
q-22 0 -62.5 16l-90.5 37.5t-94 35t-89 13.5q-44 0 -86 -13t-87 -33l-89.5 -38t-65.5 -18q-12 0 -28 8l-1008 618q-101 59 -167 180t-66 246q0 406 573 406q101 0 299 -6t299 -6q81 0 122.5 -35.5t41.5 -87.5q0 -89 -94 -152q0 -29 -42 -39l-84 -20.5t-42 -42.5v-537
l-525 316v106q0 84 -15.5 126t-74.5 42q-98 -11 -98 -139q0 -133 106 -193q154 -116 471 -295t603 -196z" />
    <glyph glyph-name="Otilde" unicode="&#x41d;" horiz-adv-x="3109" 
d="M528 1798l525 -319v-1033q0 -52 51 -94t155 -97.5t153.5 -89.5t49.5 -75q0 -66 -106 -100.5t-201 -34.5q-62 0 -173 12.5t-191 12.5q-79 0 -191 -12.5t-174 -12.5q-88 0 -197.5 45t-109.5 111q0 40 48 70.5t151 80.5t156.5 91t53.5 93v1352zM2109 1479l525 319v-1352
q0 -52 51 -94t155 -97.5t153.5 -89.5t49.5 -75q0 -66 -106 -100.5t-201 -34.5q-62 0 -173 12.5t-191 12.5q-79 0 -191 -12.5t-174 -12.5q-95 0 -201 34.5t-106 100.5q0 40 48 73.5t152.5 89.5t156.5 98t52 95v1033zM1520 1778h204q187 12 409.5 121t371.5 214t211 156
q106 60 106 193q0 128 -98 139q-58 0 -74 -42t-16 -126v-106l-525 -316v537q0 33 -41.5 43l-83.5 19.5t-42 39.5q-95 63 -95 152q0 51 42 87t122 36q101 0 299 6t299 6q244 0 409 -97.5t165 -328.5q0 -80 -30 -159t-83.5 -143t-120.5 -104l-1007 -618q-18 -8 -29 -8
q-22 0 -62.5 16l-90.5 37.5t-94 35t-89 13.5q-44 0 -86 -13t-87 -33l-89.5 -38t-65.5 -18q-12 0 -28 8l-1008 618q-101 59 -167 180t-66 246q0 406 573 406q101 0 299 -6t299 -6q81 0 122.5 -35.5t41.5 -87.5q0 -89 -94 -152q0 -29 -42 -39l-84 -20.5t-42 -42.5v-537
l-525 316v106q0 84 -15.5 126t-74.5 42q-98 -11 -98 -139q0 -133 106 -193q154 -116 471 -295t603 -196z" />
    <glyph glyph-name="OE" unicode="&#xce;" horiz-adv-x="2728" 
d="M193 1409q0 403 124 755t394 572.5t678 220.5q294 0 512 -115t358.5 -324t208 -488.5t67.5 -616.5q0 -205 -51 -453.5t-150.5 -473.5t-251 -368t-341.5 -143q-105 0 -217 12.5t-176 12.5q-56 0 -157 -12.5t-183 -12.5q-155 0 -303 118t-263.5 322t-182 463t-66.5 531z
M1397 2744q-294 0 -472.5 -170t-250.5 -413t-72 -482q0 -366 82 -565h-4h8q42 311 199 478.5t429.5 308t387.5 233.5t115 287q0 163 -120.5 243t-301.5 80zM872 1032q0 -430 545 -430q191 0 329 90t220.5 234.5t121 319t38.5 347.5q0 231 -25 401t-106 312h-4h-9
q-17 -214 -152.5 -329t-408 -257t-411 -286.5t-138.5 -401.5z" />
    <glyph glyph-name="OE" unicode="&#x41e;" horiz-adv-x="2728" 
d="M193 1409q0 403 124 755t394 572.5t678 220.5q294 0 512 -115t358.5 -324t208 -488.5t67.5 -616.5q0 -205 -51 -453.5t-150.5 -473.5t-251 -368t-341.5 -143q-105 0 -217 12.5t-176 12.5q-56 0 -157 -12.5t-183 -12.5q-155 0 -303 118t-263.5 322t-182 463t-66.5 531z
M1397 2744q-294 0 -472.5 -170t-250.5 -413t-72 -482q0 -366 82 -565h-4h8q42 311 199 478.5t429.5 308t387.5 233.5t115 287q0 163 -120.5 243t-301.5 80zM872 1032q0 -430 545 -430q191 0 329 90t220.5 234.5t121 319t38.5 347.5q0 231 -25 401t-106 312h-4h-9
q-17 -214 -152.5 -329t-408 -257t-411 -286.5t-138.5 -401.5z" />
    <glyph glyph-name="oe" unicode="&#xcf;" horiz-adv-x="3109" 
d="M1053 2032l-525 315v107q0 84 -15.5 125.5t-74.5 41.5q-98 -11 -98 -139q0 -125 106 -192l1033 -635q208 -129 274 -204t66 -181q0 -104 -78 -169t-189 -65q-90 0 -165 62t-117 151q75 18 107 32t32 54q0 35 -37 69.5t-151 102.5l-1008 619q-105 64 -169 173.5t-64 231.5
q0 157 82 252.5t211 134.5t280 39q101 0 299 -6t299 -6t299 6t299 6q499 0 778 -211.5t279 -656.5q0 -364 -287 -791l-146 -210t-103 -171t-38 -143q0 -58 38.5 -102.5t101.5 -44.5q51 0 161 28.5t187 28.5q129 0 218 -94t89 -213q0 -142 -31.5 -235.5t-111.5 -166.5
q-22 33 -70 54q-42 20 -70 20q-68 0 -184 -37q-113 -37 -221 -37q-176 0 -297 140.5t-121 347.5q0 139 16.5 266.5t35.5 209.5t67 273q57 225 88 401.5t31 405.5q0 198 -89 346t-236.5 227t-309.5 79h-303q-168 0 -168 -103v-536zM528 1819l525 -320v-1032q0 -51 51 -93.5
t152 -96.5t153.5 -90t52.5 -76q0 -65 -106 -100.5t-201 -35.5q-62 0 -173 12.5t-191 12.5q-79 0 -191 -12.5t-174 -12.5q-95 0 -201 35.5t-106 100.5q0 39 51 74.5t152.5 89.5t153.5 97t52 95v1352z" />
    <glyph glyph-name="oe" unicode="&#x41f;" horiz-adv-x="3109" 
d="M1053 2032l-525 315v107q0 84 -15.5 125.5t-74.5 41.5q-98 -11 -98 -139q0 -125 106 -192l1033 -635q208 -129 274 -204t66 -181q0 -104 -78 -169t-189 -65q-90 0 -165 62t-117 151q75 18 107 32t32 54q0 35 -37 69.5t-151 102.5l-1008 619q-105 64 -169 173.5t-64 231.5
q0 157 82 252.5t211 134.5t280 39q101 0 299 -6t299 -6t299 6t299 6q499 0 778 -211.5t279 -656.5q0 -364 -287 -791l-146 -210t-103 -171t-38 -143q0 -58 38.5 -102.5t101.5 -44.5q51 0 161 28.5t187 28.5q129 0 218 -94t89 -213q0 -142 -31.5 -235.5t-111.5 -166.5
q-22 33 -70 54q-42 20 -70 20q-68 0 -184 -37q-113 -37 -221 -37q-176 0 -297 140.5t-121 347.5q0 139 16.5 266.5t35.5 209.5t67 273q57 225 88 401.5t31 405.5q0 198 -89 346t-236.5 227t-309.5 79h-303q-168 0 -168 -103v-536zM528 1819l525 -320v-1032q0 -51 51 -93.5
t152 -96.5t153.5 -90t52.5 -76q0 -65 -106 -100.5t-201 -35.5q-62 0 -173 12.5t-191 12.5q-79 0 -191 -12.5t-174 -12.5q-95 0 -201 35.5t-106 100.5q0 39 51 74.5t152.5 89.5t153.5 97t52 95v1352z" />
    <glyph glyph-name="emdash" unicode="&#xd0;" horiz-adv-x="2679" 
d="M438 471v1937q0 100 -58 151.5t-172 123t-114 115.5q0 52 118 81.5t352.5 41.5t615.5 12q276 0 515.5 -59.5t428 -188t296 -333.5t107.5 -488q0 -248 -107.5 -441t-310.5 -300t-479 -107q-216 0 -375 77.5t-240 200t-81 254.5q0 141 82 221l40.5 39t31 40.5t10.5 47.5
q0 23 -25 50q55 24 123 24q102 0 170 -62.5t68 -142.5q0 -200 180 -200q340 0 340 483q0 201 -98 353t-260.5 235.5t-350.5 83.5q-142 0 -212 -30t-70 -114v-721q-136 -150 -136 -299q0 -206 136 -348v-721q0 -47 47 -88t146 -101t147.5 -99t48.5 -84q0 -62 -94 -101
t-185 -39q-50 0 -152 12.5t-176 12.5q-92 0 -212.5 -12.5t-172.5 -12.5q-84 0 -187 37.5t-103 102.5q0 42 44 78t136 92t140 98.5t48 87.5z" />
    <glyph glyph-name="emdash" unicode="&#x420;" horiz-adv-x="2679" 
d="M438 471v1937q0 100 -58 151.5t-172 123t-114 115.5q0 52 118 81.5t352.5 41.5t615.5 12q276 0 515.5 -59.5t428 -188t296 -333.5t107.5 -488q0 -248 -107.5 -441t-310.5 -300t-479 -107q-216 0 -375 77.5t-240 200t-81 254.5q0 141 82 221l40.5 39t31 40.5t10.5 47.5
q0 23 -25 50q55 24 123 24q102 0 170 -62.5t68 -142.5q0 -200 180 -200q340 0 340 483q0 201 -98 353t-260.5 235.5t-350.5 83.5q-142 0 -212 -30t-70 -114v-721q-136 -150 -136 -299q0 -206 136 -348v-721q0 -47 47 -88t146 -101t147.5 -99t48.5 -84q0 -62 -94 -101
t-185 -39q-50 0 -152 12.5t-176 12.5q-92 0 -212.5 -12.5t-172.5 -12.5q-84 0 -187 37.5t-103 102.5q0 42 44 78t136 92t140 98.5t48 87.5z" />
    <glyph glyph-name="endash" unicode="&#xd1;" horiz-adv-x="2654" 
d="M1528 -25q-401 0 -705 182.5t-467 502.5t-163 720q0 353 102.5 646.5t282 502t408 318.5t476.5 110q264 0 480.5 -80t341 -233t124.5 -363q0 -166 -75 -286t-205 -181t-293 -61q-248 0 -374 143t-126 287q0 70 -26.5 109t-63.5 39q-57 0 -57 -54q0 -19 16 -53
q-33 -41 -102 -41q-152 0 -152 160q0 88 68.5 144.5t157.5 56.5q90 0 147 -35.5t116 -101t104 -98t116 -32.5q93 0 147 60.5t54 140.5q0 151 -125.5 221t-313.5 70q-256 0 -448 -149.5t-293.5 -399t-101.5 -541.5q0 -342 158.5 -599.5t408.5 -394t510 -136.5
q161 0 313.5 38.5t267.5 128.5t156 238q88 -12 142.5 -105t54.5 -251q0 -190 -141.5 -331.5t-383 -216.5t-536.5 -75z" />
    <glyph glyph-name="endash" unicode="&#x421;" horiz-adv-x="2654" 
d="M1528 -25q-401 0 -705 182.5t-467 502.5t-163 720q0 353 102.5 646.5t282 502t408 318.5t476.5 110q264 0 480.5 -80t341 -233t124.5 -363q0 -166 -75 -286t-205 -181t-293 -61q-248 0 -374 143t-126 287q0 70 -26.5 109t-63.5 39q-57 0 -57 -54q0 -19 16 -53
q-33 -41 -102 -41q-152 0 -152 160q0 88 68.5 144.5t157.5 56.5q90 0 147 -35.5t116 -101t104 -98t116 -32.5q93 0 147 60.5t54 140.5q0 151 -125.5 221t-313.5 70q-256 0 -448 -149.5t-293.5 -399t-101.5 -541.5q0 -342 158.5 -599.5t408.5 -394t510 -136.5
q161 0 313.5 38.5t267.5 128.5t156 238q88 -12 142.5 -105t54.5 -251q0 -190 -141.5 -331.5t-383 -216.5t-536.5 -75z" />
    <glyph glyph-name="quotedblleft" unicode="&#xd2;" horiz-adv-x="2580" 
d="M1028 463v2138q0 62 -30.5 78t-92.5 16h-237q-148 0 -148 -57q0 -28 63.5 -158.5t104.5 -233.5t41 -190q0 -93 -52 -151t-140 -58q-66 0 -107 40t-41 95q0 51 20.5 76.5t59.5 59.5t39 57q0 42 -69.5 101t-223 172.5t-231.5 188.5t-78 132q0 85 68.5 124.5t156.5 39.5
h2318q89 0 157.5 -39.5t68.5 -124.5q0 -59 -79 -134t-236 -192t-222 -172.5t-65 -95.5q0 -23 40 -58.5t59 -60t19 -74.5q0 -55 -40 -95t-107 -40q-89 0 -141 59t-52 150q0 87 41 190t104.5 233.5t63.5 158.5q0 57 -147 57h-238q-61 0 -92 -16.5t-31 -77.5v-2138
q0 -37 46.5 -74t146.5 -98t150.5 -101.5t50.5 -83.5q0 -53 -115 -92t-180 -39q-33 0 -145 12.5t-224 12.5q-101 0 -209 -12.5t-143 -12.5q-66 0 -180.5 39t-114.5 92q0 41 49 81.5t148.5 101t147.5 98.5t48 76z" />
    <glyph glyph-name="quotedblleft" unicode="&#x422;" horiz-adv-x="2580" 
d="M1028 463v2138q0 62 -30.5 78t-92.5 16h-237q-148 0 -148 -57q0 -28 63.5 -158.5t104.5 -233.5t41 -190q0 -93 -52 -151t-140 -58q-66 0 -107 40t-41 95q0 51 20.5 76.5t59.5 59.5t39 57q0 42 -69.5 101t-223 172.5t-231.5 188.5t-78 132q0 85 68.5 124.5t156.5 39.5
h2318q89 0 157.5 -39.5t68.5 -124.5q0 -59 -79 -134t-236 -192t-222 -172.5t-65 -95.5q0 -23 40 -58.5t59 -60t19 -74.5q0 -55 -40 -95t-107 -40q-89 0 -141 59t-52 150q0 87 41 190t104.5 233.5t63.5 158.5q0 57 -147 57h-238q-61 0 -92 -16.5t-31 -77.5v-2138
q0 -37 46.5 -74t146.5 -98t150.5 -101.5t50.5 -83.5q0 -53 -115 -92t-180 -39q-33 0 -145 12.5t-224 12.5q-101 0 -209 -12.5t-143 -12.5q-66 0 -180.5 39t-114.5 92q0 41 49 81.5t148.5 101t147.5 98.5t48 76z" />
    <glyph glyph-name="quotedblright" unicode="&#xd3;" horiz-adv-x="2499" 
d="M1569 1409q30 -51 77.5 -118l73.5 -103q-200 -86 -520 -86q-354 0 -614.5 125t-270.5 383q0 106 82.5 234.5t253.5 326.5t233 276t62 138q0 51 -36.5 68.5t-135.5 17.5q-115 0 -147.5 -9t-32.5 -45q0 -57 184 -176l-127 -160q-218 123 -375 270t-157 255q0 127 233 127
h791q128 0 170.5 -37.5t42.5 -114.5q0 -85 -66.5 -159.5l-144 -154.5t-148 -218t-108.5 -369q-12 -85 -12 -156q0 -148 71.5 -215t208 -83.5t412.5 -16.5zM1884 909q0 -42 6 -120t6 -117q0 -86 -20 -152q-106 -348 -606 -348q-182 0 -492 53q-16 0 -16 29q0 22 21.5 114.5
t23.5 155.5v13q0 146 -102 208q-46 29 -99 29q-50 0 -155 -45q-152 -56 -152 -270q0 -26 2 -58t2 -36q0 -53 61.5 -137t150.5 -148t165 -64q43 0 226 -20.5t216 -20.5q207 0 470 43.5t460 161.5q106 65 152 127t57 193q3 31 39 447.5l60.5 713.5l41.5 509t22.5 288
t46.5 111.5t155 117.5t114 123q0 59 -108 91t-232 32q-32 0 -126.5 -12.5t-159.5 -12.5t-155.5 12.5t-119.5 12.5q-74 0 -184.5 -37.5t-110.5 -69.5q0 -54 39.5 -90t124.5 -87t130.5 -96.5t45.5 -111.5v-991h-8q-82 171 -203.5 319t-268 265.5t-306.5 201.5l-99 -155
q169 -79 329 -229.5t284 -325.5t198 -342.5t74 -274.5z" />
    <glyph glyph-name="quotedblright" unicode="&#x423;" horiz-adv-x="2499" 
d="M1569 1409q30 -51 77.5 -118l73.5 -103q-200 -86 -520 -86q-354 0 -614.5 125t-270.5 383q0 106 82.5 234.5t253.5 326.5t233 276t62 138q0 51 -36.5 68.5t-135.5 17.5q-115 0 -147.5 -9t-32.5 -45q0 -57 184 -176l-127 -160q-218 123 -375 270t-157 255q0 127 233 127
h791q128 0 170.5 -37.5t42.5 -114.5q0 -85 -66.5 -159.5l-144 -154.5t-148 -218t-108.5 -369q-12 -85 -12 -156q0 -148 71.5 -215t208 -83.5t412.5 -16.5zM1884 909q0 -42 6 -120t6 -117q0 -86 -20 -152q-106 -348 -606 -348q-182 0 -492 53q-16 0 -16 29q0 22 21.5 114.5
t23.5 155.5v13q0 146 -102 208q-46 29 -99 29q-50 0 -155 -45q-152 -56 -152 -270q0 -26 2 -58t2 -36q0 -53 61.5 -137t150.5 -148t165 -64q43 0 226 -20.5t216 -20.5q207 0 470 43.5t460 161.5q106 65 152 127t57 193q3 31 39 447.5l60.5 713.5l41.5 509t22.5 288
t46.5 111.5t155 117.5t114 123q0 59 -108 91t-232 32q-32 0 -126.5 -12.5t-159.5 -12.5t-155.5 12.5t-119.5 12.5q-74 0 -184.5 -37.5t-110.5 -69.5q0 -54 39.5 -90t124.5 -87t130.5 -96.5t45.5 -111.5v-991h-8q-82 171 -203.5 319t-268 265.5t-306.5 201.5l-99 -155
q169 -79 329 -229.5t284 -325.5t198 -342.5t74 -274.5z" />
    <glyph glyph-name="quoteleft" unicode="&#xd4;" horiz-adv-x="3645" 
d="M1339 2994h906q276 0 515.5 -59.5t428 -188t296 -333.5t107.5 -488q0 -248 -107.5 -441t-310.5 -300t-479 -107q-216 0 -375.5 78t-240 200.5t-80.5 254.5q0 139 82 221l40.5 38.5t31 40.5t10.5 48q0 24 -25 49q58 25 123 25q100 0 169 -63t69 -142q0 -201 180 -201
q340 0 340 483q0 201 -98 353t-260.5 235.5t-350.5 83.5q-142 0 -212 -30t-70 -113v-721q-136 -150 -136 -299q0 -208 136 -348v-721q0 -47 47 -88t146 -101t147.5 -99.5t48.5 -84.5q0 -62 -92 -100.5t-187 -38.5q-50 0 -156 12t-172 12q-84 0 -201 -12t-163 -12
q-94 0 -186.5 38.5t-92.5 100.5q0 45 47 83.5t146 98.5t147.5 102t48.5 89v721q136 140 136 348q0 149 -136 299v721q0 83 -69.5 113t-212.5 30q-188 0 -350.5 -83.5t-260.5 -235.5t-98 -353q0 -483 340 -483q180 0 180 201q0 79 69 142t169 63q65 0 123 -25
q-25 -25 -25 -49q0 -27 10.5 -48t30.5 -40l41 -39q82 -82 82 -221q0 -131 -80.5 -254t-240 -201t-375.5 -78q-416 0 -656.5 233.5t-240.5 614.5q0 282 107.5 487.5t296 334t428 188t515.5 59.5z" />
    <glyph glyph-name="quoteleft" unicode="&#x424;" horiz-adv-x="3645" 
d="M1339 2994h906q276 0 515.5 -59.5t428 -188t296 -333.5t107.5 -488q0 -248 -107.5 -441t-310.5 -300t-479 -107q-216 0 -375.5 78t-240 200.5t-80.5 254.5q0 139 82 221l40.5 38.5t31 40.5t10.5 48q0 24 -25 49q58 25 123 25q100 0 169 -63t69 -142q0 -201 180 -201
q340 0 340 483q0 201 -98 353t-260.5 235.5t-350.5 83.5q-142 0 -212 -30t-70 -113v-721q-136 -150 -136 -299q0 -208 136 -348v-721q0 -47 47 -88t146 -101t147.5 -99.5t48.5 -84.5q0 -62 -92 -100.5t-187 -38.5q-50 0 -156 12t-172 12q-84 0 -201 -12t-163 -12
q-94 0 -186.5 38.5t-92.5 100.5q0 45 47 83.5t146 98.5t147.5 102t48.5 89v721q136 140 136 348q0 149 -136 299v721q0 83 -69.5 113t-212.5 30q-188 0 -350.5 -83.5t-260.5 -235.5t-98 -353q0 -483 340 -483q180 0 180 201q0 79 69 142t169 63q65 0 123 -25
q-25 -25 -25 -49q0 -27 10.5 -48t30.5 -40l41 -39q82 -82 82 -221q0 -131 -80.5 -254t-240 -201t-375.5 -78q-416 0 -656.5 233.5t-240.5 614.5q0 282 107.5 487.5t296 334t428 188t515.5 59.5z" />
    <glyph glyph-name="quoteright" unicode="&#xd5;" horiz-adv-x="2806" 
d="M1671 1569l701 -1000q61 -86 139 -146t185 -122t155.5 -99t48.5 -79q0 -69 -121.5 -108.5t-210.5 -39.5q-42 0 -141.5 12.5t-165.5 12.5q-71 0 -189.5 -12.5t-179.5 -12.5q-99 0 -231.5 45.5t-132.5 126.5q0 29 28.5 51t94 60.5t100.5 75t35 84.5q0 25 -56.5 127.5
t-152 253.5t-188.5 282l-99 140l-119 -115q-471 -459 -471 -598q0 -42 60 -83.5t186 -106.5t192 -108.5t66 -86.5q0 -69 -133.5 -108.5t-226.5 -39.5q-38 0 -126.5 12.5t-152.5 12.5q-69 0 -143.5 -12.5t-97.5 -12.5q-100 0 -161 62t-61 160q0 203 537 680l557 491l-586 840
q-42 62 -76 87t-93.5 61.5t-59.5 56.5q0 60 172 73q210 18 410 63t200 101q0 34 -79.5 52t-170.5 18h-233q-184 0 -184 -107q0 -21 8 -69l-152.5 42.5t-133 60t-58.5 106.5q0 180 250 180q96 0 240.5 -6.5t221.5 -6.5q78 0 222.5 6.5t240.5 6.5q166 0 247 -22t81 -97
q0 -85 -116 -162.5t-280.5 -151.5t-164.5 -87q0 -32 131 -222l348 -491l238 209q209 187 317.5 306t108.5 210q0 147 -172 147q-87 0 -212.5 -41.5t-330.5 -118.5t-236 -77q-73 0 -73 53q0 46 135 98q213 82 505.5 221t432.5 194.5t262 55.5q188 0 188 -172
q0 -115 -124.5 -281t-289 -326.5l-405.5 -379.5z" />
    <glyph glyph-name="quoteright" unicode="&#x425;" horiz-adv-x="2806" 
d="M1671 1569l701 -1000q61 -86 139 -146t185 -122t155.5 -99t48.5 -79q0 -69 -121.5 -108.5t-210.5 -39.5q-42 0 -141.5 12.5t-165.5 12.5q-71 0 -189.5 -12.5t-179.5 -12.5q-99 0 -231.5 45.5t-132.5 126.5q0 29 28.5 51t94 60.5t100.5 75t35 84.5q0 25 -56.5 127.5
t-152 253.5t-188.5 282l-99 140l-119 -115q-471 -459 -471 -598q0 -42 60 -83.5t186 -106.5t192 -108.5t66 -86.5q0 -69 -133.5 -108.5t-226.5 -39.5q-38 0 -126.5 12.5t-152.5 12.5q-69 0 -143.5 -12.5t-97.5 -12.5q-100 0 -161 62t-61 160q0 203 537 680l557 491l-586 840
q-42 62 -76 87t-93.5 61.5t-59.5 56.5q0 60 172 73q210 18 410 63t200 101q0 34 -79.5 52t-170.5 18h-233q-184 0 -184 -107q0 -21 8 -69l-152.5 42.5t-133 60t-58.5 106.5q0 180 250 180q96 0 240.5 -6.5t221.5 -6.5q78 0 222.5 6.5t240.5 6.5q166 0 247 -22t81 -97
q0 -85 -116 -162.5t-280.5 -151.5t-164.5 -87q0 -32 131 -222l348 -491l238 209q209 187 317.5 306t108.5 210q0 147 -172 147q-87 0 -212.5 -41.5t-330.5 -118.5t-236 -77q-73 0 -73 53q0 46 135 98q213 82 505.5 221t432.5 194.5t262 55.5q188 0 188 -172
q0 -115 -124.5 -281t-289 -326.5l-405.5 -379.5z" />
    <glyph glyph-name="divide" unicode="&#xd6;" horiz-adv-x="2806" 
d="M2683 -246q0 61 -96 140t-217 144.5t-162 72.5q-46 0 -149 -43t-134 -43q-54 0 -301 -25t-412 -25q-238 0 -459 118.5t-360 356.5t-139 574q0 327 95.5 586.5t197.5 406.5t250.5 331t148.5 237q0 51 -36.5 68.5t-135.5 17.5q-115 0 -147.5 -9t-32.5 -45q0 -57 184 -176
l-127 -160q-218 123 -375 270t-157 255q0 127 233 127h791q128 0 170.5 -37.5t42.5 -114.5q0 -83 -109 -230.5l-236.5 -316.5t-216.5 -371t-89 -433q0 -245 80.5 -444t252.5 -318t428 -119q221 0 319.5 90.5t98.5 269.5q0 107 -74 274.5t-198 342.5t-284 325.5t-329 229.5
l99 155q160 -84 306.5 -201.5t268 -265.5t203.5 -319h8v991q0 66 -45.5 111.5t-130.5 96.5t-124.5 87t-39.5 90q0 32 110.5 69.5t184.5 37.5q29 0 119.5 -12.5t155.5 -12.5t155.5 12.5t122.5 12.5q125 0 232.5 -32t107.5 -91q0 -41 -127.5 -120t-178 -117t-50.5 -115v-1958
q0 -66 201.5 -269.5t297 -318t95.5 -248.5q0 -157 -90 -258.5t-246 -101.5q-26 0 -88.5 18.5t-112.5 18.5q-64 0 -70 -50q-114 58 -114 168q0 68 51.5 124.5t120.5 56.5q42 0 93 -12.5t79 -12.5q38 0 64 42.5t26 96.5z" />
    <glyph glyph-name="divide" unicode="&#x426;" horiz-adv-x="2806" 
d="M2683 -246q0 61 -96 140t-217 144.5t-162 72.5q-46 0 -149 -43t-134 -43q-54 0 -301 -25t-412 -25q-238 0 -459 118.5t-360 356.5t-139 574q0 327 95.5 586.5t197.5 406.5t250.5 331t148.5 237q0 51 -36.5 68.5t-135.5 17.5q-115 0 -147.5 -9t-32.5 -45q0 -57 184 -176
l-127 -160q-218 123 -375 270t-157 255q0 127 233 127h791q128 0 170.5 -37.5t42.5 -114.5q0 -83 -109 -230.5l-236.5 -316.5t-216.5 -371t-89 -433q0 -245 80.5 -444t252.5 -318t428 -119q221 0 319.5 90.5t98.5 269.5q0 107 -74 274.5t-198 342.5t-284 325.5t-329 229.5
l99 155q160 -84 306.5 -201.5t268 -265.5t203.5 -319h8v991q0 66 -45.5 111.5t-130.5 96.5t-124.5 87t-39.5 90q0 32 110.5 69.5t184.5 37.5q29 0 119.5 -12.5t155.5 -12.5t155.5 12.5t122.5 12.5q125 0 232.5 -32t107.5 -91q0 -41 -127.5 -120t-178 -117t-50.5 -115v-1958
q0 -66 201.5 -269.5t297 -318t95.5 -248.5q0 -157 -90 -258.5t-246 -101.5q-26 0 -88.5 18.5t-112.5 18.5q-64 0 -70 -50q-114 58 -114 168q0 68 51.5 124.5t120.5 56.5q42 0 93 -12.5t79 -12.5q38 0 64 42.5t26 96.5z" />
    <glyph glyph-name="lozenge" unicode="&#xd7;" horiz-adv-x="2765" 
d="M1569 1409q12 -22 81.5 -94.5t69.5 -106.5q0 -26 -37 -45q-148 -67 -421 -123.5t-504 -56.5q-537 0 -537 295q0 65 33 156q91 240 204 424.5t216 314.5l187.5 242t84.5 170q0 51 -36.5 68.5t-135.5 17.5q-115 0 -147.5 -9t-32.5 -45q0 -57 184 -176l-127 -160
q-218 123 -375 270t-157 255q0 127 233 127h791q128 0 170.5 -37.5t42.5 -114.5q0 -84 -83 -174.5l-185 -198t-171 -264t-69 -387.5q0 -153 28 -230.5t87.5 -103.5t175.5 -26q43 0 186 6t244 6zM1884 909q0 -83 -3 -196.5t-5 -171.5q0 -55 -49 -98t-146.5 -99t-143.5 -94.5
t-46 -89.5q0 -69 134.5 -106.5t283.5 -37.5q141 0 233 -16q146 -25 201 -25q150 0 284 37.5t134 106.5q0 51 -47 90.5t-144.5 95.5t-145.5 98t-48 97v1958q0 77 50.5 115t178 117t127.5 120q0 59 -107.5 91t-232.5 32q-32 0 -122.5 -12.5t-155.5 -12.5t-155.5 12.5
t-119.5 12.5q-74 0 -184.5 -37.5t-110.5 -69.5q0 -54 39.5 -90t124.5 -87t130.5 -96.5t45.5 -111.5v-991h-8q-82 171 -203.5 319t-268 265.5t-306.5 201.5l-99 -155q169 -79 329 -229.5t284 -325.5t198 -342.5t74 -274.5z" />
    <glyph glyph-name="lozenge" unicode="&#x427;" horiz-adv-x="2765" 
d="M1569 1409q12 -22 81.5 -94.5t69.5 -106.5q0 -26 -37 -45q-148 -67 -421 -123.5t-504 -56.5q-537 0 -537 295q0 65 33 156q91 240 204 424.5t216 314.5l187.5 242t84.5 170q0 51 -36.5 68.5t-135.5 17.5q-115 0 -147.5 -9t-32.5 -45q0 -57 184 -176l-127 -160
q-218 123 -375 270t-157 255q0 127 233 127h791q128 0 170.5 -37.5t42.5 -114.5q0 -84 -83 -174.5l-185 -198t-171 -264t-69 -387.5q0 -153 28 -230.5t87.5 -103.5t175.5 -26q43 0 186 6t244 6zM1884 909q0 -83 -3 -196.5t-5 -171.5q0 -55 -49 -98t-146.5 -99t-143.5 -94.5
t-46 -89.5q0 -69 134.5 -106.5t283.5 -37.5q141 0 233 -16q146 -25 201 -25q150 0 284 37.5t134 106.5q0 51 -47 90.5t-144.5 95.5t-145.5 98t-48 97v1958q0 77 50.5 115t178 117t127.5 120q0 59 -107.5 91t-232.5 32q-32 0 -122.5 -12.5t-155.5 -12.5t-155.5 12.5
t-119.5 12.5q-74 0 -184.5 -37.5t-110.5 -69.5q0 -54 39.5 -90t124.5 -87t130.5 -96.5t45.5 -111.5v-991h-8q-82 171 -203.5 319t-268 265.5t-306.5 201.5l-99 -155q169 -79 329 -229.5t284 -325.5t198 -342.5t74 -274.5z" />
    <glyph glyph-name="ydieresis" unicode="&#xd8;" horiz-adv-x="4157" 
d="M3768 -25q-32 24 -194.5 37t-263.5 13q-44 0 -282 16t-411 16q-173 41 -417 41q-84 0 -186 -6t-109 -6q-49 0 -208.5 -28.5t-278 -45t-247.5 -16.5q-238 0 -459 118.5t-360 356.5t-139 573q0 326 95.5 586.5t202.5 414t250.5 331.5t143.5 229q0 52 -36.5 69t-135.5 17
q-114 0 -147 -8.5t-33 -44.5q0 -57 184 -176l-127 -160q-218 123 -375 269t-157 255q0 127 233 127h791q128 0 170.5 -37t42.5 -114q0 -83 -109.5 -231.5l-236.5 -317t-216 -370.5t-89 -433q0 -245 80.5 -444t252.5 -318t428 -119q222 0 320 89.5t98 271.5q0 105 -74 274
t-198 343t-284 324.5t-329 229.5l99 156q247 -130 453 -332.5t325 -454.5h8v992q0 65 -44.5 109.5t-130.5 97t-125.5 88.5t-39.5 90q0 32 111.5 69t183.5 37q22 0 116 -12t159 -12t159 12t119 12q125 0 232.5 -32t107.5 -91q0 -41 -124 -117.5t-178 -117t-54 -117.5v-1548
q0 -126 30.5 -199t151 -117.5t375.5 -44.5q221 0 319.5 90.5t98.5 270.5q0 105 -74 274t-198 343t-284 324.5t-329 229.5l98 156q247 -130 453 -332.5t325 -454.5h9v992q0 65 -44.5 109.5t-130.5 97t-125.5 88.5t-39.5 90q0 32 111.5 69t183.5 37q21 0 115 -12t159 -12
q67 0 160 12t118 12q124 0 232 -32t108 -91q0 -41 -124 -117.5t-178 -117t-54 -117.5v-1978q1 -55 49.5 -97t146.5 -99t143.5 -95.5t45.5 -89.5q0 -69 -134 -106.5t-284 -37.5z" />
    <glyph glyph-name="ydieresis" unicode="&#x428;" horiz-adv-x="4157" 
d="M3768 -25q-32 24 -194.5 37t-263.5 13q-44 0 -282 16t-411 16q-173 41 -417 41q-84 0 -186 -6t-109 -6q-49 0 -208.5 -28.5t-278 -45t-247.5 -16.5q-238 0 -459 118.5t-360 356.5t-139 573q0 326 95.5 586.5t202.5 414t250.5 331.5t143.5 229q0 52 -36.5 69t-135.5 17
q-114 0 -147 -8.5t-33 -44.5q0 -57 184 -176l-127 -160q-218 123 -375 269t-157 255q0 127 233 127h791q128 0 170.5 -37t42.5 -114q0 -83 -109.5 -231.5l-236.5 -317t-216 -370.5t-89 -433q0 -245 80.5 -444t252.5 -318t428 -119q222 0 320 89.5t98 271.5q0 105 -74 274
t-198 343t-284 324.5t-329 229.5l99 156q247 -130 453 -332.5t325 -454.5h8v992q0 65 -44.5 109.5t-130.5 97t-125.5 88.5t-39.5 90q0 32 111.5 69t183.5 37q22 0 116 -12t159 -12t159 12t119 12q125 0 232.5 -32t107.5 -91q0 -41 -124 -117.5t-178 -117t-54 -117.5v-1548
q0 -126 30.5 -199t151 -117.5t375.5 -44.5q221 0 319.5 90.5t98.5 270.5q0 105 -74 274t-198 343t-284 324.5t-329 229.5l98 156q247 -130 453 -332.5t325 -454.5h9v992q0 65 -44.5 109.5t-130.5 97t-125.5 88.5t-39.5 90q0 32 111.5 69t183.5 37q21 0 115 -12t159 -12
q67 0 160 12t118 12q124 0 232 -32t108 -91q0 -41 -124 -117.5t-178 -117t-54 -117.5v-1978q1 -55 49.5 -97t146.5 -99t143.5 -95.5t45.5 -89.5q0 -69 -134 -106.5t-284 -37.5z" />
    <glyph glyph-name="Ydieresis" unicode="&#xd9;" horiz-adv-x="4157" 
d="M2638 37q-173 41 -434 41q-93 0 -203 -6t-117 -6q-45 0 -195.5 -21.5t-271 -35t-246.5 -13.5q-238 0 -459 118.5t-360 356.5t-139 573q0 326 95.5 586.5t202.5 414t250.5 331.5t143.5 229q0 52 -36.5 69t-135.5 17q-114 0 -147 -8.5t-33 -44.5q0 -57 184 -176l-127 -160
q-218 123 -375 269t-157 255q0 127 233 127h791q128 0 170.5 -37t42.5 -114q0 -83 -109.5 -231.5l-236.5 -317t-216 -370.5t-89 -433q0 -245 80.5 -444t252.5 -318t428 -119q222 0 320 89.5t98 271.5q0 105 -74 274t-198 343t-284 324.5t-329 229.5l99 156
q247 -130 453 -332.5t325 -454.5h8v992q0 65 -44.5 109.5t-130.5 97t-125.5 88.5t-39.5 90q0 32 111.5 69t183.5 37q22 0 116 -12t159 -12t159 12t119 12q125 0 232.5 -32t107.5 -91q0 -41 -124 -117.5t-178 -117t-54 -117.5v-1548q0 -126 30.5 -199t151 -117.5t375.5 -44.5
q221 0 319.5 90.5t98.5 270.5q0 105 -74 274t-198 343t-284 324.5t-329 229.5l98 156q247 -130 453 -332.5t325 -454.5h9v992q0 65 -44.5 109.5t-130.5 97t-125.5 88.5t-39.5 90q0 32 111.5 69t183.5 37q21 0 115 -12t159 -12q67 0 160 12t118 12q124 0 232 -32t108 -91
q0 -41 -124 -117.5t-178 -117t-54 -117.5v-1958q0 -66 204 -272t297 -317.5t93 -245.5q0 -158 -89.5 -259.5t-246.5 -101.5q-24 0 -87.5 18.5t-113.5 18.5q-63 0 -69 -49q-115 57 -115 168q0 68 51 124t121 56q44 0 95 -12.5t77 -12.5q38 0 64 42.5t26 97.5q0 61 -98.5 138
t-223.5 140t-165 70q-46 0 -153 -49t-138 -49q-67 0 -163.5 3t-236.5 6t-292 3z" />
    <glyph glyph-name="Ydieresis" unicode="&#x429;" horiz-adv-x="4157" 
d="M2638 37q-173 41 -434 41q-93 0 -203 -6t-117 -6q-45 0 -195.5 -21.5t-271 -35t-246.5 -13.5q-238 0 -459 118.5t-360 356.5t-139 573q0 326 95.5 586.5t202.5 414t250.5 331.5t143.5 229q0 52 -36.5 69t-135.5 17q-114 0 -147 -8.5t-33 -44.5q0 -57 184 -176l-127 -160
q-218 123 -375 269t-157 255q0 127 233 127h791q128 0 170.5 -37t42.5 -114q0 -83 -109.5 -231.5l-236.5 -317t-216 -370.5t-89 -433q0 -245 80.5 -444t252.5 -318t428 -119q222 0 320 89.5t98 271.5q0 105 -74 274t-198 343t-284 324.5t-329 229.5l99 156
q247 -130 453 -332.5t325 -454.5h8v992q0 65 -44.5 109.5t-130.5 97t-125.5 88.5t-39.5 90q0 32 111.5 69t183.5 37q22 0 116 -12t159 -12t159 12t119 12q125 0 232.5 -32t107.5 -91q0 -41 -124 -117.5t-178 -117t-54 -117.5v-1548q0 -126 30.5 -199t151 -117.5t375.5 -44.5
q221 0 319.5 90.5t98.5 270.5q0 105 -74 274t-198 343t-284 324.5t-329 229.5l98 156q247 -130 453 -332.5t325 -454.5h9v992q0 65 -44.5 109.5t-130.5 97t-125.5 88.5t-39.5 90q0 32 111.5 69t183.5 37q21 0 115 -12t159 -12q67 0 160 12t118 12q124 0 232 -32t108 -91
q0 -41 -124 -117.5t-178 -117t-54 -117.5v-1958q0 -66 204 -272t297 -317.5t93 -245.5q0 -158 -89.5 -259.5t-246.5 -101.5q-24 0 -87.5 18.5t-113.5 18.5q-63 0 -69 -49q-115 57 -115 168q0 68 51 124t121 56q44 0 95 -12.5t77 -12.5q38 0 64 42.5t26 97.5q0 61 -98.5 138
t-223.5 140t-165 70q-46 0 -153 -49t-138 -49q-67 0 -163.5 3t-236.5 6t-292 3z" />
    <glyph glyph-name="fraction" unicode="&#xda;" horiz-adv-x="3297" 
d="M238 2933l503.5 -13t356.5 -8q51 0 176 -12t209 -12q67 0 172 12t155 12q94 0 186.5 -38.5t92.5 -100.5q0 -44 -46 -81.5t-145 -98t-148.5 -103t-49.5 -90.5v-721q-135 -141 -135 -348q0 -150 135 -299v-721q0 -83 70 -113t212 -30q188 0 350.5 83.5t260.5 235.5t98 353
q0 483 -340 483q-180 0 -180 -201q0 -80 -68.5 -142t-169.5 -62q-67 0 -123 24q25 23 25 49q0 42 -17 62t-65 65q-82 82 -82 221q0 131 80.5 254t240 201t375.5 78q276 0 479.5 -107t311 -300t107.5 -441q0 -282 -107.5 -487.5t-295.5 -334t-428.5 -188t-516.5 -59.5
q-381 0 -615.5 12t-352.5 41.5t-118 81.5q0 44 113 114.5t172.5 122t59.5 152.5v1938q0 55 -102 108t-228.5 87t-190.5 34q-28 0 -28 -8q0 -28 63.5 -158.5t104.5 -233.5t41 -190q0 -93 -52 -151t-141 -58q-67 0 -107 40t-40 95q0 50 19 74.5t59 60t40 58.5q0 42 -69.5 101
t-223 172.5t-231.5 188.5t-78 132q0 85 68.5 124.5t157.5 39.5z" />
    <glyph glyph-name="fraction" unicode="&#x42a;" horiz-adv-x="3297" 
d="M238 2933l503.5 -13t356.5 -8q51 0 176 -12t209 -12q67 0 172 12t155 12q94 0 186.5 -38.5t92.5 -100.5q0 -44 -46 -81.5t-145 -98t-148.5 -103t-49.5 -90.5v-721q-135 -141 -135 -348q0 -150 135 -299v-721q0 -83 70 -113t212 -30q188 0 350.5 83.5t260.5 235.5t98 353
q0 483 -340 483q-180 0 -180 -201q0 -80 -68.5 -142t-169.5 -62q-67 0 -123 24q25 23 25 49q0 42 -17 62t-65 65q-82 82 -82 221q0 131 80.5 254t240 201t375.5 78q276 0 479.5 -107t311 -300t107.5 -441q0 -282 -107.5 -487.5t-295.5 -334t-428.5 -188t-516.5 -59.5
q-381 0 -615.5 12t-352.5 41.5t-118 81.5q0 44 113 114.5t172.5 122t59.5 152.5v1938q0 55 -102 108t-228.5 87t-190.5 34q-28 0 -28 -8q0 -28 63.5 -158.5t104.5 -233.5t41 -190q0 -93 -52 -151t-141 -58q-67 0 -107 40t-40 95q0 50 19 74.5t59 60t40 58.5q0 42 -69.5 101
t-223 172.5t-231.5 188.5t-78 132q0 85 68.5 124.5t157.5 39.5z" />
    <glyph glyph-name="currency" unicode="&#xdb;" horiz-adv-x="3727" 
d="M438 500v1937q0 47 -46 87.5t-143 101t-138 94t-41 73.5q0 66 103 103t187 37q61 0 181.5 -12.5t203.5 -12.5q66 0 168 12.5t160 12.5q94 0 186.5 -38.5t92.5 -101.5q0 -44 -46 -81.5t-147 -99t-148.5 -102t-47.5 -89.5v-721q-136 -140 -136 -348q0 -149 136 -299v-721
q0 -82 70 -113t212 -31q188 0 350.5 83.5t260.5 235.5t98 353q0 483 -340 483q-180 0 -180 -200q0 -80 -69 -142.5t-169 -62.5q-69 0 -123 25q25 25 25 49q0 40 -17 61t-65 66q-82 82 -82 221q0 131 81 254t240 200.5t375 77.5q206 0 373.5 -60.5t285 -175t178 -270
t60.5 -342.5q0 -282 -107.5 -487.5t-296 -334t-428 -188t-515.5 -59.5q-381 0 -615.5 12t-352.5 42t-118 82q0 45 114 115.5t172 122t58 151.5zM3514 2011q34 8 41 8q54 0 54 -73q0 -62 -24.5 -135t-41.5 -111q-34 21 -40.5 41t-44.5 44.5t-173 82.5q-1073 460 -1073 860
q0 205 397 205h615q430 0 430 -144q0 -51 -131 -133.5t-199 -147t-68 -190.5v-143q-324 132 -532 287q0 93 -12 138.5t-62 45.5q-78 0 -78 -94q0 -106 176 -225.5t407.5 -209t358.5 -106.5zM2724 545v1483q164 -99 524 -230v-1331q0 -56 53.5 -98t155 -91t151.5 -84.5
t50 -87.5q0 -61 -101 -96t-170 -35q-81 0 -194 12.5t-215 12.5q-129 0 -237 -12.5t-128 -12.5q-93 0 -175.5 27.5t-82.5 75.5q0 70 132.5 158.5t184.5 135.5t52 173z" />
    <glyph glyph-name="currency" unicode="&#x42b;" horiz-adv-x="3727" 
d="M438 500v1937q0 47 -46 87.5t-143 101t-138 94t-41 73.5q0 66 103 103t187 37q61 0 181.5 -12.5t203.5 -12.5q66 0 168 12.5t160 12.5q94 0 186.5 -38.5t92.5 -101.5q0 -44 -46 -81.5t-147 -99t-148.5 -102t-47.5 -89.5v-721q-136 -140 -136 -348q0 -149 136 -299v-721
q0 -82 70 -113t212 -31q188 0 350.5 83.5t260.5 235.5t98 353q0 483 -340 483q-180 0 -180 -200q0 -80 -69 -142.5t-169 -62.5q-69 0 -123 25q25 25 25 49q0 40 -17 61t-65 66q-82 82 -82 221q0 131 81 254t240 200.5t375 77.5q206 0 373.5 -60.5t285 -175t178 -270
t60.5 -342.5q0 -282 -107.5 -487.5t-296 -334t-428 -188t-515.5 -59.5q-381 0 -615.5 12t-352.5 42t-118 82q0 45 114 115.5t172 122t58 151.5zM3514 2011q34 8 41 8q54 0 54 -73q0 -62 -24.5 -135t-41.5 -111q-34 21 -40.5 41t-44.5 44.5t-173 82.5q-1073 460 -1073 860
q0 205 397 205h615q430 0 430 -144q0 -51 -131 -133.5t-199 -147t-68 -190.5v-143q-324 132 -532 287q0 93 -12 138.5t-62 45.5q-78 0 -78 -94q0 -106 176 -225.5t407.5 -209t358.5 -106.5zM2724 545v1483q164 -99 524 -230v-1331q0 -56 53.5 -98t155 -91t151.5 -84.5
t50 -87.5q0 -61 -101 -96t-170 -35q-81 0 -194 12.5t-215 12.5q-129 0 -237 -12.5t-128 -12.5q-93 0 -175.5 27.5t-82.5 75.5q0 70 132.5 158.5t184.5 135.5t52 173z" />
    <glyph glyph-name="guilsinglleft" unicode="&#xdc;" horiz-adv-x="2654" 
d="M438 500v1937q0 47 -46 87.5t-143 101t-138 94t-41 73.5q0 66 103 103t187 37q61 0 181.5 -12.5t203.5 -12.5q66 0 168 12.5t160 12.5q94 0 186.5 -38.5t92.5 -101.5q0 -44 -46 -81.5t-147 -99t-148.5 -102t-47.5 -89.5v-721q-136 -140 -136 -348q0 -149 136 -299v-721
q0 -82 70 -113t212 -31q188 0 350.5 83.5t260.5 235.5t98 353q0 483 -340 483q-180 0 -180 -200q0 -80 -69 -142.5t-169 -62.5q-69 0 -123 25q25 25 25 49q0 40 -17 61t-65 66q-82 82 -82 221q0 131 81 254t240 200.5t375 77.5q206 0 373.5 -60.5t285 -175t178 -270
t60.5 -342.5q0 -282 -107.5 -487.5t-296 -334t-428 -188t-515.5 -59.5q-381 0 -615.5 12t-352.5 42t-118 82q0 45 114 115.5t172 122t58 151.5z" />
    <glyph glyph-name="guilsinglleft" unicode="&#x42c;" horiz-adv-x="2654" 
d="M438 500v1937q0 47 -46 87.5t-143 101t-138 94t-41 73.5q0 66 103 103t187 37q61 0 181.5 -12.5t203.5 -12.5q66 0 168 12.5t160 12.5q94 0 186.5 -38.5t92.5 -101.5q0 -44 -46 -81.5t-147 -99t-148.5 -102t-47.5 -89.5v-721q-136 -140 -136 -348q0 -149 136 -299v-721
q0 -82 70 -113t212 -31q188 0 350.5 83.5t260.5 235.5t98 353q0 483 -340 483q-180 0 -180 -200q0 -80 -69 -142.5t-169 -62.5q-69 0 -123 25q25 25 25 49q0 40 -17 61t-65 66q-82 82 -82 221q0 131 81 254t240 200.5t375 77.5q206 0 373.5 -60.5t285 -175t178 -270
t60.5 -342.5q0 -282 -107.5 -487.5t-296 -334t-428 -188t-515.5 -59.5q-381 0 -615.5 12t-352.5 42t-118 82q0 45 114 115.5t172 122t58 151.5z" />
    <glyph glyph-name="guilsinglright" unicode="&#xdd;" horiz-adv-x="2654" 
d="M2105 1192q9 17 15.5 39.5t9.5 34.5q0 -9 -16 -9q-7 0 -45.5 6.5t-73.5 6.5q-175 0 -328 -172q-45 -45 -135 -45q-137 0 -279.5 80.5t-142.5 181.5q0 90 44.5 158t127.5 79q-8 0 -8 -41q0 -65 94 -65q60 0 136 73t139.5 114t220.5 55q67 0 201.5 -12t134.5 -25
q-3 296 -105.5 546.5t-294.5 400.5t-448 150q-189 0 -314 -69.5t-125 -220.5q0 -79 54.5 -140t146.5 -61q71 0 115 31.5t106 99.5t117 101.5t145 33.5q89 0 157.5 -56.5t68.5 -144.5q0 -159 -152 -159q-71 0 -102 41q0 8 8 27t8 26q0 53 -57 53q-37 0 -63.5 -38.5
t-26.5 -108.5q0 -85 -51 -186t-164 -172.5t-285 -71.5q-162 0 -292.5 61.5t-205.5 181t-75 285.5q0 209 125 362t341 233.5t480 80.5q248 0 477.5 -110t407.5 -317t281 -500t103 -650q0 -399 -163 -719.5t-467.5 -503t-704.5 -182.5q-294 0 -536 74.5t-383.5 217
t-141.5 331.5q0 155 54 249.5t143 106.5q59 -215 269.5 -310.5t467.5 -95.5q196 0 390 78.5t351.5 228.5t245.5 357z" />
    <glyph glyph-name="guilsinglright" unicode="&#x42d;" horiz-adv-x="2654" 
d="M2105 1192q9 17 15.5 39.5t9.5 34.5q0 -9 -16 -9q-7 0 -45.5 6.5t-73.5 6.5q-175 0 -328 -172q-45 -45 -135 -45q-137 0 -279.5 80.5t-142.5 181.5q0 90 44.5 158t127.5 79q-8 0 -8 -41q0 -65 94 -65q60 0 136 73t139.5 114t220.5 55q67 0 201.5 -12t134.5 -25
q-3 296 -105.5 546.5t-294.5 400.5t-448 150q-189 0 -314 -69.5t-125 -220.5q0 -79 54.5 -140t146.5 -61q71 0 115 31.5t106 99.5t117 101.5t145 33.5q89 0 157.5 -56.5t68.5 -144.5q0 -159 -152 -159q-71 0 -102 41q0 8 8 27t8 26q0 53 -57 53q-37 0 -63.5 -38.5
t-26.5 -108.5q0 -85 -51 -186t-164 -172.5t-285 -71.5q-162 0 -292.5 61.5t-205.5 181t-75 285.5q0 209 125 362t341 233.5t480 80.5q248 0 477.5 -110t407.5 -317t281 -500t103 -650q0 -399 -163 -719.5t-467.5 -503t-704.5 -182.5q-294 0 -536 74.5t-383.5 217
t-141.5 331.5q0 155 54 249.5t143 106.5q59 -215 269.5 -310.5t467.5 -95.5q196 0 390 78.5t351.5 228.5t245.5 357z" />
    <glyph glyph-name="fi" unicode="&#xde;" horiz-adv-x="3604" 
d="M2253 1053q0 -227 113 -328.5t325 -101.5q198 0 325.5 149.5t183.5 376t56 465.5q0 235 -17.5 400t-84.5 313h-4h-8q-13 -215 -121.5 -329.5t-327.5 -257t-329.5 -287t-110.5 -400.5zM2167 1610q-54 -130 -115 -201q0 -128 53 -274h-4h4q34 311 160 479t344.5 308
t310 232t91.5 287q0 164 -96.5 244t-239.5 80q-284 0 -432.5 -239.5t-190.5 -583.5zM864 909v324q-24 -35 -61 -94l-119 348q89 194 180 266v348q0 72 -25.5 111.5t-67.5 79t-42 63.5q0 69 98 103l279 90q115 39 115 98q0 74 -435 74q-327 0 -327 -94q0 -30 57.5 -105.5
t84 -119.5t26.5 -107q0 -107 -63.5 -164t-174.5 -57q-134 0 -168 163q78 0 78 62q0 46 -93.5 146.5t-129 147.5t-35.5 132q0 137 197.5 173t552.5 36q270 0 548.5 -43t278.5 -154q0 -71 -36.5 -108.5t-117 -85.5t-121 -97.5t-40.5 -138.5v-524q54 -19 155 -74q52 -25 94 -25
q32 0 84.5 14.5t83.5 14.5q34 350 145 635t313 458t488 173q236 0 411.5 -115.5t287.5 -323.5t165.5 -488t53.5 -617q0 -284 -73.5 -624.5t-218 -577t-343.5 -236.5q-84 0 -177 12t-138 12q-39 0 -123 -12t-148 -12q-155 0 -296.5 175t-237 468t-117.5 627q-41 0 -100 -12.5
t-88 -12.5q-55 0 -99 25q-93 46 -122 57v-561q0 -83 16 -113.5t48 -55t49.5 -64t17.5 -136.5q0 -212 -193.5 -315t-519.5 -103q-311 0 -506 83t-195 356q0 152 56 239t141.5 165.5t85.5 119.5q0 16 -8 40t-8 34q6 0 26 4t39 4q99 0 99 -102q0 -27 -8.5 -88t-8.5 -134
q0 -172 201 -172q145 0 187 103t42 282z" />
    <glyph glyph-name="fi" unicode="&#x42e;" horiz-adv-x="3604" 
d="M2253 1053q0 -227 113 -328.5t325 -101.5q198 0 325.5 149.5t183.5 376t56 465.5q0 235 -17.5 400t-84.5 313h-4h-8q-13 -215 -121.5 -329.5t-327.5 -257t-329.5 -287t-110.5 -400.5zM2167 1610q-54 -130 -115 -201q0 -128 53 -274h-4h4q34 311 160 479t344.5 308
t310 232t91.5 287q0 164 -96.5 244t-239.5 80q-284 0 -432.5 -239.5t-190.5 -583.5zM864 909v324q-24 -35 -61 -94l-119 348q89 194 180 266v348q0 72 -25.5 111.5t-67.5 79t-42 63.5q0 69 98 103l279 90q115 39 115 98q0 74 -435 74q-327 0 -327 -94q0 -30 57.5 -105.5
t84 -119.5t26.5 -107q0 -107 -63.5 -164t-174.5 -57q-134 0 -168 163q78 0 78 62q0 46 -93.5 146.5t-129 147.5t-35.5 132q0 137 197.5 173t552.5 36q270 0 548.5 -43t278.5 -154q0 -71 -36.5 -108.5t-117 -85.5t-121 -97.5t-40.5 -138.5v-524q54 -19 155 -74q52 -25 94 -25
q32 0 84.5 14.5t83.5 14.5q34 350 145 635t313 458t488 173q236 0 411.5 -115.5t287.5 -323.5t165.5 -488t53.5 -617q0 -284 -73.5 -624.5t-218 -577t-343.5 -236.5q-84 0 -177 12t-138 12q-39 0 -123 -12t-148 -12q-155 0 -296.5 175t-237 468t-117.5 627q-41 0 -100 -12.5
t-88 -12.5q-55 0 -99 25q-93 46 -122 57v-561q0 -83 16 -113.5t48 -55t49.5 -64t17.5 -136.5q0 -212 -193.5 -315t-519.5 -103q-311 0 -506 83t-195 356q0 152 56 239t141.5 165.5t85.5 119.5q0 16 -8 40t-8 34q6 0 26 4t39 4q99 0 99 -102q0 -27 -8.5 -88t-8.5 -134
q0 -172 201 -172q145 0 187 103t42 282z" />
    <glyph glyph-name="fl" unicode="&#xdf;" horiz-adv-x="2884" 
d="M1855 471v746l525 262v-971q0 -65 48.5 -111.5t149 -106.5t150 -102t49.5 -98q-13 -59 -118.5 -87t-184.5 -28q-52 0 -177.5 12.5t-207.5 12.5q-76 0 -171.5 -12.5t-135.5 -12.5q-78 0 -178.5 30t-100.5 89q0 54 88 121.5l176 134.5t88 121zM926 2933h1683
q316 0 316 -197q0 -70 -43.5 -235.5t-113.5 -347t-162 -331.5t-189 -200l-693 -365q-173 -90 -362.5 -134.5t-255 -88.5t-112.5 -219t-93 -614q-11 -110 -39.5 -168t-103.5 -58q-45 0 -130 12.5t-136 12.5q-60 0 -148.5 -12.5t-134.5 -12.5q-78 0 -172 50.5t-94 93.5
q0 47 44.5 80t147.5 90t159.5 106.5t70.5 124.5l180 324q24 130 43.5 180.5t58.5 79t144 76.5l348 159q-131 52 -293 152.5t-276.5 226.5t-114.5 252v123q0 341 90.5 590.5t380.5 249.5zM1581 2720h-315q-340 0 -340 -623q0 -54 2 -128t2 -85q0 -108 80 -214t211.5 -173
t277.5 -67q128 0 373 110t448 244t203 186q0 5 45.5 96.5t78 181t32.5 165.5q0 83 -45 122q0 160 -172 160q-49 0 -67.5 -271.5t-18.5 -457.5q-74 -46 -178.5 -117.5l-181 -119.5t-161.5 -87v218q0 15 14.5 150.5t14.5 242.5q0 467 -303 467z" />
    <glyph glyph-name="fl" unicode="&#x42f;" horiz-adv-x="2884" 
d="M1855 471v746l525 262v-971q0 -65 48.5 -111.5t149 -106.5t150 -102t49.5 -98q-13 -59 -118.5 -87t-184.5 -28q-52 0 -177.5 12.5t-207.5 12.5q-76 0 -171.5 -12.5t-135.5 -12.5q-78 0 -178.5 30t-100.5 89q0 54 88 121.5l176 134.5t88 121zM926 2933h1683
q316 0 316 -197q0 -70 -43.5 -235.5t-113.5 -347t-162 -331.5t-189 -200l-693 -365q-173 -90 -362.5 -134.5t-255 -88.5t-112.5 -219t-93 -614q-11 -110 -39.5 -168t-103.5 -58q-45 0 -130 12.5t-136 12.5q-60 0 -148.5 -12.5t-134.5 -12.5q-78 0 -172 50.5t-94 93.5
q0 47 44.5 80t147.5 90t159.5 106.5t70.5 124.5l180 324q24 130 43.5 180.5t58.5 79t144 76.5l348 159q-131 52 -293 152.5t-276.5 226.5t-114.5 252v123q0 341 90.5 590.5t380.5 249.5zM1581 2720h-315q-340 0 -340 -623q0 -54 2 -128t2 -85q0 -108 80 -214t211.5 -173
t277.5 -67q128 0 373 110t448 244t203 186q0 5 45.5 96.5t78 181t32.5 165.5q0 83 -45 122q0 160 -172 160q-49 0 -67.5 -271.5t-18.5 -457.5q-74 -46 -178.5 -117.5l-181 -119.5t-161.5 -87v218q0 15 14.5 150.5t14.5 242.5q0 467 -303 467z" />
    <glyph glyph-name="daggerdbl" unicode="&#xe0;" horiz-adv-x="2429" 
d="M1634 635v930q0 385 -450 385q-434 0 -434 -152q0 -56 50.5 -73t137.5 -17q74 0 226 18.5t200 18.5q85 0 132.5 -26.5t47.5 -104.5q0 -82 -74 -129.5t-283.5 -153t-313 -207.5t-103.5 -256q0 -172 98.5 -245.5t286.5 -73.5q103 0 253.5 43t225.5 43zM2183 1331v-1007
q176 -124 176 -181q0 -82 -148 -125t-331 -43q-75 0 -239.5 25t-251.5 25q-97 0 -279.5 -25t-269.5 -25q-190 0 -349 75.5t-251.5 219t-92.5 336.5q0 195 112.5 344.5t301.5 263t467 228.5q156 48 156 90q0 37 -58 37q-72 0 -226.5 -29t-227.5 -29q-160 0 -291 84.5
t-131 235.5q0 145 154 226t354 81q70 0 169 -8t146 -8q88 0 276 8t285 8q239 0 358.5 -92t155 -258.5t35.5 -456.5z" />
    <glyph glyph-name="daggerdbl" unicode="&#x430;" horiz-adv-x="2429" 
d="M1634 635v930q0 385 -450 385q-434 0 -434 -152q0 -56 50.5 -73t137.5 -17q74 0 226 18.5t200 18.5q85 0 132.5 -26.5t47.5 -104.5q0 -82 -74 -129.5t-283.5 -153t-313 -207.5t-103.5 -256q0 -172 98.5 -245.5t286.5 -73.5q103 0 253.5 43t225.5 43zM2183 1331v-1007
q176 -124 176 -181q0 -82 -148 -125t-331 -43q-75 0 -239.5 25t-251.5 25q-97 0 -279.5 -25t-269.5 -25q-190 0 -349 75.5t-251.5 219t-92.5 336.5q0 195 112.5 344.5t301.5 263t467 228.5q156 48 156 90q0 37 -58 37q-72 0 -226.5 -29t-227.5 -29q-160 0 -291 84.5
t-131 235.5q0 145 154 226t354 81q70 0 169 -8t146 -8q88 0 276 8t285 8q239 0 358.5 -92t155 -258.5t35.5 -456.5z" />
    <glyph glyph-name="periodcentered" unicode="&#xe1;" horiz-adv-x="2048" 
d="M492 1888q32 11 122 61t156 50h528q358 -17 527.5 -260.5t169.5 -571.5q0 -369 -126 -642t-380 -421.5t-625 -148.5q-337 0 -721 491q-94 249 -94 746q0 117 4.5 206.5t7.5 125.5q0 36 15.5 83.5t43.5 113.5t46 117t18 83q0 69 152.5 300.5t375.5 418t455 186.5
q37 -4 103 -4q67 0 141 8.5t109 8.5q117 0 201 38t156.5 92t88.5 54q29 0 29 -107q0 -112 -37 -188q-39 -90 -62 -90q-36 4 -98 4q-71 0 -175.5 -17t-195.5 -26.5t-288 -9.5q-109 0 -256 -151t-269 -335t-122 -215zM561 1442v-672q0 -140 59.5 -236t149.5 -96q35 0 96.5 8.5
t96.5 8.5q29 0 79.5 -8.5t75.5 -8.5q211 0 294 186t83 449q0 315 -126 528.5t-419 213.5q-161 0 -275 -96.5t-114 -276.5z" />
    <glyph glyph-name="periodcentered" unicode="&#x431;" horiz-adv-x="2048" 
d="M492 1888q32 11 122 61t156 50h528q358 -17 527.5 -260.5t169.5 -571.5q0 -369 -126 -642t-380 -421.5t-625 -148.5q-337 0 -721 491q-94 249 -94 746q0 117 4.5 206.5t7.5 125.5q0 36 15.5 83.5t43.5 113.5t46 117t18 83q0 69 152.5 300.5t375.5 418t455 186.5
q37 -4 103 -4q67 0 141 8.5t109 8.5q117 0 201 38t156.5 92t88.5 54q29 0 29 -107q0 -112 -37 -188q-39 -90 -62 -90q-36 4 -98 4q-71 0 -175.5 -17t-195.5 -26.5t-288 -9.5q-109 0 -256 -151t-269 -335t-122 -215zM561 1442v-672q0 -140 59.5 -236t149.5 -96q35 0 96.5 8.5
t96.5 8.5q29 0 79.5 -8.5t75.5 -8.5q211 0 294 186t83 449q0 315 -126 528.5t-419 213.5q-161 0 -275 -96.5t-114 -276.5z" />
    <glyph glyph-name="quotesinglbase" unicode="&#xe2;" horiz-adv-x="2355" 
d="M217 324v1007q0 290 35.5 456.5t155 258.5t358.5 92q97 0 285 -8t276 -8q49 0 148 8t167 8q118 0 243 -54.5t205.5 -144t80.5 -190.5q0 -102 -73.5 -190t-184 -139.5t-205.5 -51.5q-25 0 -25 -12q0 -14 110.5 -105.5t205.5 -180.5t174.5 -212.5t79.5 -251.5
q0 -193 -92 -336t-251 -219t-349 -76q-88 0 -270.5 25t-278.5 25q-88 0 -252.5 -25t-239.5 -25q-183 0 -331 43t-148 125q0 57 176 181zM766 1565v-930q76 0 226.5 -43t252.5 -43q188 0 286.5 73.5t98.5 245.5q0 156 -98 216.5t-302.5 84t-268 40t-64.5 98.5q0 71 47 94.5
t141 23.5q26 0 88 -2t97 -2q104 0 183.5 22t138.5 87t79 186q0 91 -143 162.5t-311 71.5q-211 0 -331 -84t-120 -301z" />
    <glyph glyph-name="quotesinglbase" unicode="&#x432;" horiz-adv-x="2355" 
d="M217 324v1007q0 290 35.5 456.5t155 258.5t358.5 92q97 0 285 -8t276 -8q49 0 148 8t167 8q118 0 243 -54.5t205.5 -144t80.5 -190.5q0 -102 -73.5 -190t-184 -139.5t-205.5 -51.5q-25 0 -25 -12q0 -14 110.5 -105.5t205.5 -180.5t174.5 -212.5t79.5 -251.5
q0 -193 -92 -336t-251 -219t-349 -76q-88 0 -270.5 25t-278.5 25q-88 0 -252.5 -25t-239.5 -25q-183 0 -331 43t-148 125q0 57 176 181zM766 1565v-930q76 0 226.5 -43t252.5 -43q188 0 286.5 73.5t98.5 245.5q0 156 -98 216.5t-302.5 84t-268 40t-64.5 98.5q0 71 47 94.5
t141 23.5q26 0 88 -2t97 -2q104 0 183.5 22t138.5 87t79 186q0 91 -143 162.5t-311 71.5q-211 0 -331 -84t-120 -301z" />
    <glyph glyph-name="quotedblbase" unicode="&#xe3;" horiz-adv-x="1880" 
d="M291 348v1434q0 52 -27.5 84.5t-83.5 68.5t-79 57.5t-23 59.5q0 58 38.5 72t112.5 14h656q74 0 112.5 -14t38.5 -72q0 -28 -27.5 -54t-82 -61t-83 -60t-28.5 -50v-49q69 19 207.5 139.5t207.5 170.5t167 50q33 0 106 2t111 2q138 0 212.5 -40t74.5 -160q0 -365 -78 -365
q-13 0 -28 8t-17 8q-9 0 -9 -12q-6 0 -31.5 29.5t-25.5 36.5q-1 0 -10.5 12.5t-34.5 25t-82 19.5q-59 0 -219.5 -14.5t-251.5 -26.5q-35 -4 -142.5 -42t-156.5 -44v-1229q0 -23 45 -53t88 -53.5t74 -50.5t31 -60q0 -52 -107 -97.5t-184 -45.5q-32 0 -101 6t-108 6
q-29 0 -94 -6t-99 -6q-88 0 -197.5 48t-109.5 95q0 33 31 59t95.5 62.5t88 54.5t23.5 41z" />
    <glyph glyph-name="quotedblbase" unicode="&#x433;" horiz-adv-x="1880" 
d="M291 348v1434q0 52 -27.5 84.5t-83.5 68.5t-79 57.5t-23 59.5q0 58 38.5 72t112.5 14h656q74 0 112.5 -14t38.5 -72q0 -28 -27.5 -54t-82 -61t-83 -60t-28.5 -50v-49q69 19 207.5 139.5t207.5 170.5t167 50q33 0 106 2t111 2q138 0 212.5 -40t74.5 -160q0 -365 -78 -365
q-13 0 -28 8t-17 8q-9 0 -9 -12q-6 0 -31.5 29.5t-25.5 36.5q-1 0 -10.5 12.5t-34.5 25t-82 19.5q-59 0 -219.5 -14.5t-251.5 -26.5q-35 -4 -142.5 -42t-156.5 -44v-1229q0 -23 45 -53t88 -53.5t74 -50.5t31 -60q0 -52 -107 -97.5t-184 -45.5q-32 0 -101 6t-108 6
q-29 0 -94 -6t-99 -6q-88 0 -197.5 48t-109.5 95q0 33 31 59t95.5 62.5t88 54.5t23.5 41z" />
    <glyph glyph-name="perthousand" unicode="&#xe4;" 
d="M2073 1876v-1282q0 -132 53 -311q49 -173 49 -291q0 -215 -102.5 -378t-271 -249t-355.5 -86q-100 0 -218 6t-159 6q-106 0 -215 -6t-137 -6q-198 0 -322.5 26t-190 99t-65.5 207q0 57 24.5 118t24.5 70q0 54 -20 74q21 16 70 16q146 0 222 -43t170.5 -133.5t194 -137
t273.5 -46.5q553 0 553 397q0 72 -9 160h-8q-81 -111 -270 -111q-42 0 -122 12.5t-136 12.5q-51 0 -138 -12.5t-132 -12.5q-352 18 -524.5 322t-172.5 653q0 369 126.5 642.5t380 422t624.5 148.5q31 0 279 -12.5t560 -12.5q123 0 123 -78q0 -79 -159 -184zM1573 881v671
q0 180 -113.5 276.5t-275.5 96.5q-293 0 -419 -213.5t-126 -527.5q0 -260 83 -447.5t294 -187.5q24 0 77 8t78 8q29 0 94 -8t99 -8q89 0 149 95t60 237z" />
    <glyph glyph-name="perthousand" unicode="&#x434;" 
d="M2073 1876v-1282q0 -132 53 -311q49 -173 49 -291q0 -215 -102.5 -378t-271 -249t-355.5 -86q-100 0 -218 6t-159 6q-106 0 -215 -6t-137 -6q-198 0 -322.5 26t-190 99t-65.5 207q0 57 24.5 118t24.5 70q0 54 -20 74q21 16 70 16q146 0 222 -43t170.5 -133.5t194 -137
t273.5 -46.5q553 0 553 397q0 72 -9 160h-8q-81 -111 -270 -111q-42 0 -122 12.5t-136 12.5q-51 0 -138 -12.5t-132 -12.5q-352 18 -524.5 322t-172.5 653q0 369 126.5 642.5t380 422t624.5 148.5q31 0 279 -12.5t560 -12.5q123 0 123 -78q0 -79 -159 -184zM1573 881v671
q0 180 -113.5 276.5t-275.5 96.5q-293 0 -419 -213.5t-126 -527.5q0 -260 83 -447.5t294 -187.5q24 0 77 8t78 8q29 0 94 -8t99 -8q89 0 149 95t60 237z" />
    <glyph glyph-name="Acircumflex" unicode="&#xe5;" horiz-adv-x="2200" 
d="M1040 2138h607q183 0 320.5 -62t137.5 -229q0 -194 -148.5 -315t-450.5 -267t-465.5 -271.5t-188.5 -325.5q201 -119 500 -119q187 0 340 70.5t200 228.5q64 -14 120 -66t89 -125t33 -137q0 -157 -76 -282.5t-195 -194t-245 -68.5q-122 0 -247.5 12.5t-174.5 12.5
q-63 0 -180.5 -12.5t-196.5 -12.5q-168 0 -330.5 128.5t-266 354.5t-103.5 496q0 299 98.5 570.5t306.5 442.5t516 171zM1581 1712q0 213 -414 213q-163 0 -294.5 -51.5t-217.5 -200t-86 -420.5q0 -307 90 -434q71 201 208 323t344 230t288.5 169t81.5 171z" />
    <glyph glyph-name="Acircumflex" unicode="&#x435;" horiz-adv-x="2200" 
d="M1040 2138h607q183 0 320.5 -62t137.5 -229q0 -194 -148.5 -315t-450.5 -267t-465.5 -271.5t-188.5 -325.5q201 -119 500 -119q187 0 340 70.5t200 228.5q64 -14 120 -66t89 -125t33 -137q0 -157 -76 -282.5t-195 -194t-245 -68.5q-122 0 -247.5 12.5t-174.5 12.5
q-63 0 -180.5 -12.5t-196.5 -12.5q-168 0 -330.5 128.5t-266 354.5t-103.5 496q0 299 98.5 570.5t306.5 442.5t516 171zM1581 1712q0 213 -414 213q-163 0 -294.5 -51.5t-217.5 -200t-86 -420.5q0 -307 90 -434q71 201 208 323t344 230t288.5 169t81.5 171z" />
    <glyph glyph-name="Ecircumflex" unicode="&#xe6;" horiz-adv-x="3543" 
d="M160 1933q0 101 70.5 167.5t179.5 66.5h241q117 0 127 -37q8 -24 8 -49q0 -97 -54.5 -214.5t-104.5 -117.5q-41 0 -41 -20q0 -30 74.5 -85.5t171.5 -98t159 -42.5q55 0 98 -18t94 -51.5t78 -47.5t62 -14q184 0 184 -155q0 -42 -21 -74.5t-61.5 -62t-86 -54l-171.5 -92.5
q-202 -107 -260.5 -258t-58.5 -410v-90q0 -96 -15.5 -142t-66.5 -46q-16 0 -108 6t-130 6q-28 0 -96 -6t-108 -6q-123 0 -211 38t-88 89q0 40 67 115t158 118q21 224 52 363t108 238t229 157l397 151q40 0 69.5 -38t41.5 -64q0 16 -21 16q-8 0 -37 41.5t-72 72t-112 30.5
q-22 0 -96 -4t-121 -4q-403 0 -450 282q-6 27 -9 43t-5.5 26.5t-2.5 12.5l6 -37t6 -45q-1 0 -73 344zM2015 -12h-467q-77 0 -184 45.5t-107 97.5q0 56 238 217v1327v230v8q-121 57 -179.5 92t-58.5 84q0 86 213 86h623q213 0 213 -86q0 -49 -61 -86t-177 -90v-8v-230v-1327
q238 -160 238 -217q0 -52 -107 -97.5t-184 -45.5zM3154 2167q109 0 179.5 -66.5t70.5 -167.5l-52 -242l-19 -87t-3 -15q0 6 4.5 35l7.5 47l-16 -82q-47 -282 -451 -282q-47 0 -120 4t-97 4q-70 0 -112 -30.5t-71 -72t-38 -41.5q-20 0 -20 -16q12 26 41.5 64t68.5 38
l398 -151q216 -81 287 -249t102 -509q90 -42 157.5 -116.5t67.5 -116.5q0 -51 -88 -89t-211 -38q-41 0 -108 6t-97 6q-37 0 -128 -6t-109 -6q-50 0 -66 46t-16 142v90q0 259 -58.5 410t-261.5 258l-146.5 79.5t-109.5 67t-62.5 63t-21.5 73.5q0 155 185 155q35 0 60.5 13
t78 47.5t95.5 52.5t97 18q63 0 160 42.5t171.5 98t74.5 85.5q0 20 -41 20q-51 0 -105.5 119t-54.5 213q0 25 8 49q9 37 127 37h242z" />
    <glyph glyph-name="Ecircumflex" unicode="&#x436;" horiz-adv-x="3543" 
d="M160 1933q0 101 70.5 167.5t179.5 66.5h241q117 0 127 -37q8 -24 8 -49q0 -97 -54.5 -214.5t-104.5 -117.5q-41 0 -41 -20q0 -30 74.5 -85.5t171.5 -98t159 -42.5q55 0 98 -18t94 -51.5t78 -47.5t62 -14q184 0 184 -155q0 -42 -21 -74.5t-61.5 -62t-86 -54l-171.5 -92.5
q-202 -107 -260.5 -258t-58.5 -410v-90q0 -96 -15.5 -142t-66.5 -46q-16 0 -108 6t-130 6q-28 0 -96 -6t-108 -6q-123 0 -211 38t-88 89q0 40 67 115t158 118q21 224 52 363t108 238t229 157l397 151q40 0 69.5 -38t41.5 -64q0 16 -21 16q-8 0 -37 41.5t-72 72t-112 30.5
q-22 0 -96 -4t-121 -4q-403 0 -450 282q-6 27 -9 43t-5.5 26.5t-2.5 12.5l6 -37t6 -45q-1 0 -73 344zM2015 -12h-467q-77 0 -184 45.5t-107 97.5q0 56 238 217v1327v230v8q-121 57 -179.5 92t-58.5 84q0 86 213 86h623q213 0 213 -86q0 -49 -61 -86t-177 -90v-8v-230v-1327
q238 -160 238 -217q0 -52 -107 -97.5t-184 -45.5zM3154 2167q109 0 179.5 -66.5t70.5 -167.5l-52 -242l-19 -87t-3 -15q0 6 4.5 35l7.5 47l-16 -82q-47 -282 -451 -282q-47 0 -120 4t-97 4q-70 0 -112 -30.5t-71 -72t-38 -41.5q-20 0 -20 -16q12 26 41.5 64t68.5 38
l398 -151q216 -81 287 -249t102 -509q90 -42 157.5 -116.5t67.5 -116.5q0 -51 -88 -89t-211 -38q-41 0 -108 6t-97 6q-37 0 -128 -6t-109 -6q-50 0 -66 46t-16 142v90q0 259 -58.5 410t-261.5 258l-146.5 79.5t-109.5 67t-62.5 63t-21.5 73.5q0 155 185 155q35 0 60.5 13
t78 47.5t95.5 52.5t97 18q63 0 160 42.5t171.5 98t74.5 85.5q0 20 -41 20q-51 0 -105.5 119t-54.5 213q0 25 8 49q9 37 127 37h242z" />
    <glyph glyph-name="Aacute" unicode="&#xe7;" horiz-adv-x="2089" 
d="M1466 -74q0 315 -129 530t-338 265q-66 18 -230.5 42.5t-245.5 51t-81 82.5q0 58 78 92.5t377 136.5q287 96 444.5 239t157.5 290q0 152 -135.5 221.5t-310.5 69.5q-159 0 -276.5 -32t-117.5 -95q0 -35 91 -71t133.5 -61t42.5 -94q0 -64 -33 -106q-49 65 -98 65
q-22 0 -122 -18t-177 -18q-122 0 -241.5 70t-119.5 200q16 348 869 348q1019 0 1019 -483q0 -167 -122 -303.5t-294 -222t-317 -109.5q-65 -11 -188.5 -27.5t-166 -26.5t-42.5 -24q0 -20 40 -33.5t184.5 -42.5t172.5 -35q217 -52 374 -222t242 -355t85 -258
q0 -215 -102.5 -377.5t-270.5 -249t-356 -86.5q-100 0 -218 6t-159 6q-107 0 -216 -6t-137 -6q-199 0 -322.5 26t-189 99t-65.5 207q0 57 24.5 118t24.5 70q0 54 -20 74q21 16 69 16q147 0 223 -43t170.5 -133.5t193 -137t273.5 -46.5q553 0 553 397z" />
    <glyph glyph-name="Aacute" unicode="&#x437;" horiz-adv-x="2089" 
d="M1466 -74q0 315 -129 530t-338 265q-66 18 -230.5 42.5t-245.5 51t-81 82.5q0 58 78 92.5t377 136.5q287 96 444.5 239t157.5 290q0 152 -135.5 221.5t-310.5 69.5q-159 0 -276.5 -32t-117.5 -95q0 -35 91 -71t133.5 -61t42.5 -94q0 -64 -33 -106q-49 65 -98 65
q-22 0 -122 -18t-177 -18q-122 0 -241.5 70t-119.5 200q16 348 869 348q1019 0 1019 -483q0 -167 -122 -303.5t-294 -222t-317 -109.5q-65 -11 -188.5 -27.5t-166 -26.5t-42.5 -24q0 -20 40 -33.5t184.5 -42.5t172.5 -35q217 -52 374 -222t242 -355t85 -258
q0 -215 -102.5 -377.5t-270.5 -249t-356 -86.5q-100 0 -218 6t-159 6q-107 0 -216 -6t-137 -6q-199 0 -322.5 26t-189 99t-65.5 207q0 57 24.5 118t24.5 70q0 54 -20 74q21 16 69 16q147 0 223 -43t170.5 -133.5t193 -137t273.5 -46.5q553 0 553 397z" />
    <glyph glyph-name="Edieresis" unicode="&#xe8;" 
d="M291 537v1298q0 45 -32 74t-96 61t-87 48.5t-23 49.5q0 70 140 70h499q123 0 123 -156v-1269q0 -107 51.5 -172.5t149.5 -65.5q70 0 128 14t135.5 43t133 45t123.5 21v1237q0 37 -56 76l-112.5 79t-56.5 78q0 70 139 70h704q144 0 144 -70q0 -36 -29.5 -61t-88 -56
t-89.5 -55.5t-31 -60.5v-1479q0 -51 27 -83.5t83 -68.5t79.5 -57.5t23.5 -60.5q0 -57 -38.5 -71.5t-112.5 -14.5h-664q-143 0 -143 66q0 39 28 70.5t86.5 74t82.5 65t24 52.5v32q-131 -31 -275 -153.5t-210.5 -164.5t-243.5 -42q-258 0 -387 128t-129 409z" />
    <glyph glyph-name="Edieresis" unicode="&#x438;" 
d="M291 537v1298q0 45 -32 74t-96 61t-87 48.5t-23 49.5q0 70 140 70h499q123 0 123 -156v-1269q0 -107 51.5 -172.5t149.5 -65.5q70 0 128 14t135.5 43t133 45t123.5 21v1237q0 37 -56 76l-112.5 79t-56.5 78q0 70 139 70h704q144 0 144 -70q0 -36 -29.5 -61t-88 -56
t-89.5 -55.5t-31 -60.5v-1479q0 -51 27 -83.5t83 -68.5t79.5 -57.5t23.5 -60.5q0 -57 -38.5 -71.5t-112.5 -14.5h-664q-143 0 -143 66q0 39 28 70.5t86.5 74t82.5 65t24 52.5v32q-131 -31 -275 -153.5t-210.5 -164.5t-243.5 -42q-258 0 -387 128t-129 409z" />
    <glyph glyph-name="Egrave" unicode="&#xe9;" 
d="M291 537v1298q0 45 -32 74t-96 61t-87 48.5t-23 49.5q0 70 140 70h499q123 0 123 -156v-1269q0 -107 51.5 -172.5t149.5 -65.5q70 0 128 14t135.5 43t133 45t123.5 21v1237q0 37 -56 76l-112.5 79t-56.5 78q0 70 139 70h704q144 0 144 -70q0 -36 -29.5 -61t-88 -56
t-89.5 -55.5t-31 -60.5v-1479q0 -51 27 -83.5t83 -68.5t79.5 -57.5t23.5 -60.5q0 -57 -38.5 -71.5t-112.5 -14.5h-664q-143 0 -143 66q0 39 28 70.5t86.5 74t82.5 65t24 52.5v32q-131 -31 -275 -153.5t-210.5 -164.5t-243.5 -42q-258 0 -387 128t-129 409zM1094 2281
q-120 5 -244.5 94t-124.5 185q0 49 33 82q99 106 160 106q29 0 50.5 -21.5t49.5 -61.5t47.5 -58t52.5 -18q30 0 52.5 19.5t51 58.5t45.5 56t44 17q53 0 143 -119q25 -37 25 -73q0 -63 -62 -125t-153 -102t-170 -40z" />
    <glyph glyph-name="Egrave" unicode="&#x439;" 
d="M291 537v1298q0 45 -32 74t-96 61t-87 48.5t-23 49.5q0 70 140 70h499q123 0 123 -156v-1269q0 -107 51.5 -172.5t149.5 -65.5q70 0 128 14t135.5 43t133 45t123.5 21v1237q0 37 -56 76l-112.5 79t-56.5 78q0 70 139 70h704q144 0 144 -70q0 -36 -29.5 -61t-88 -56
t-89.5 -55.5t-31 -60.5v-1479q0 -51 27 -83.5t83 -68.5t79.5 -57.5t23.5 -60.5q0 -57 -38.5 -71.5t-112.5 -14.5h-664q-143 0 -143 66q0 39 28 70.5t86.5 74t82.5 65t24 52.5v32q-131 -31 -275 -153.5t-210.5 -164.5t-243.5 -42q-258 0 -387 128t-129 409zM1094 2281
q-120 5 -244.5 94t-124.5 185q0 49 33 82q99 106 160 106q29 0 50.5 -21.5t49.5 -61.5t47.5 -58t52.5 -18q30 0 52.5 19.5t51 58.5t45.5 56t44 17q53 0 143 -119q25 -37 25 -73q0 -63 -62 -125t-153 -102t-170 -40z" />
    <glyph glyph-name="Iacute" unicode="&#xea;" horiz-adv-x="2503" 
d="M840 1905v-230v-1327q237 -161 237 -217q0 -52 -107 -97.5t-184 -45.5q-47 0 -123 6t-114 6q-27 0 -91 -6t-98 -6q-88 0 -197.5 48t-109.5 95q0 46 30.5 75t91 63t88.5 59t28 61v1524l-108 51t-93.5 57t-36.5 68q0 86 193 86h618q213 0 213 -86q0 -49 -58.5 -84.5
t-178.5 -91.5v-8zM2109 2228q108 0 189.5 -51t81.5 -141q-6 -200 -119.5 -284.5t-278.5 -84.5q-98 0 -160 -54t-141.5 -162t-128.5 -144q-188 -136 -221 -136q-20 0 -20 -16q11 0 99 14.5t159 14.5q69 -5 141 -32.5t109 -45.5q157 -48 235.5 -148.5t104.5 -229t49 -380.5
q101 -48 204 -122.5t103 -110.5q0 -51 -88 -89t-211 -38q-41 0 -108 6t-97 6q-37 0 -128 -6t-109 -6q-69 0 -116.5 81.5t-47.5 196.5q0 259 -58.5 410t-261.5 258l-146.5 79.5t-109.5 67t-62.5 63t-21.5 73.5q0 155 185 155q72 0 140 30t191 101q78 45 137.5 153.5
t133.5 277.5t106 196q115 98 266 98z" />
    <glyph glyph-name="Iacute" unicode="&#x43a;" horiz-adv-x="2503" 
d="M840 1905v-230v-1327q237 -161 237 -217q0 -52 -107 -97.5t-184 -45.5q-47 0 -123 6t-114 6q-27 0 -91 -6t-98 -6q-88 0 -197.5 48t-109.5 95q0 46 30.5 75t91 63t88.5 59t28 61v1524l-108 51t-93.5 57t-36.5 68q0 86 193 86h618q213 0 213 -86q0 -49 -58.5 -84.5
t-178.5 -91.5v-8zM2109 2228q108 0 189.5 -51t81.5 -141q-6 -200 -119.5 -284.5t-278.5 -84.5q-98 0 -160 -54t-141.5 -162t-128.5 -144q-188 -136 -221 -136q-20 0 -20 -16q11 0 99 14.5t159 14.5q69 -5 141 -32.5t109 -45.5q157 -48 235.5 -148.5t104.5 -229t49 -380.5
q101 -48 204 -122.5t103 -110.5q0 -51 -88 -89t-211 -38q-41 0 -108 6t-97 6q-37 0 -128 -6t-109 -6q-69 0 -116.5 81.5t-47.5 196.5q0 259 -58.5 410t-261.5 258l-146.5 79.5t-109.5 67t-62.5 63t-21.5 73.5q0 155 185 155q72 0 140 30t191 101q78 45 137.5 153.5
t133.5 277.5t106 196q115 98 266 98z" />
    <glyph glyph-name="Icircumflex" unicode="&#xeb;" horiz-adv-x="2298" 
d="M1274 2154h-197q12 0 45.5 -24.5t53.5 -24.5q7 0 22 6.5t31 6.5q47 0 147 -78l758 -1639q39 -113 83 -156t113.5 -88t69.5 -83q0 -82 -135 -82h-651q-172 0 -172 78q0 29 58.5 81.5t82 78.5t23.5 81q0 54 -9 82l-536 1151l-410 -852l90 191.5t54 128.5q-13 0 -328 -602
q-21 -44 -21 -74q0 -69 75 -112.5t220 -43.5h189q119 0 119 45q0 13 -22.5 49t-22.5 78q0 95 55 148t145 53q59 0 103 -40t53 -103q-8 4 -25 4q-45 0 -45 -66q0 -35 35 -100t35 -129q0 -127 -250 -127h-840q-72 0 -130 32.5t-58 94.5q0 58 90 311l819 1610q26 65 41 89.5
t49 24.5q19 0 46.5 -24.5t48.5 -24.5q12 0 43.5 24.5t54.5 24.5z" />
    <glyph glyph-name="Icircumflex" unicode="&#x43b;" horiz-adv-x="2298" 
d="M1274 2154h-197q12 0 45.5 -24.5t53.5 -24.5q7 0 22 6.5t31 6.5q47 0 147 -78l758 -1639q39 -113 83 -156t113.5 -88t69.5 -83q0 -82 -135 -82h-651q-172 0 -172 78q0 29 58.5 81.5t82 78.5t23.5 81q0 54 -9 82l-536 1151l-410 -852l90 191.5t54 128.5q-13 0 -328 -602
q-21 -44 -21 -74q0 -69 75 -112.5t220 -43.5h189q119 0 119 45q0 13 -22.5 49t-22.5 78q0 95 55 148t145 53q59 0 103 -40t53 -103q-8 4 -25 4q-45 0 -45 -66q0 -35 35 -100t35 -129q0 -127 -250 -127h-840q-72 0 -130 32.5t-58 94.5q0 58 90 311l819 1610q26 65 41 89.5
t49 24.5q19 0 46.5 -24.5t48.5 -24.5q12 0 43.5 24.5t54.5 24.5z" />
    <glyph glyph-name="Idieresis" unicode="&#xec;" horiz-adv-x="2884" 
d="M2114 2040l552 -1639q38 -112 84.5 -157t114.5 -88.5t68 -81.5q0 -82 -135 -82h-652q-172 0 -172 78q0 29 58.5 81.5t82 78.5t23.5 81q0 54 -8 82l-373 1069l-426 -1089q-18 -54 -69 -54q-52 0 -70 54l-377 1130h-8l-279 -790q-61 -177 -61 -303q0 -83 16 -129t75 -73.5
t183 -27.5h721q119 0 119 45q0 13 -22.5 49t-22.5 78q0 94 54.5 147.5t146.5 53.5q59 0 102.5 -40t52.5 -103q-8 4 -24 4q-45 0 -45 -66q0 -37 34.5 -101t34.5 -128q0 -127 -250 -127h-1372q-72 0 -130 32.5t-58 94.5q0 58 90 311l594 1610q26 65 41 89.5t49 24.5
q20 0 46.5 -24.5t47.5 -24.5q13 0 44.5 24.5t54.5 24.5q53 0 94 -114l254 -762l307 762q47 114 111 114q11 0 44.5 -24.5t53.5 -24.5q16 0 45.5 24.5t52.5 24.5q42 0 61 -27.5t42 -86.5z" />
    <glyph glyph-name="Idieresis" unicode="&#x43c;" horiz-adv-x="2884" 
d="M2114 2040l552 -1639q38 -112 84.5 -157t114.5 -88.5t68 -81.5q0 -82 -135 -82h-652q-172 0 -172 78q0 29 58.5 81.5t82 78.5t23.5 81q0 54 -8 82l-373 1069l-426 -1089q-18 -54 -69 -54q-52 0 -70 54l-377 1130h-8l-279 -790q-61 -177 -61 -303q0 -83 16 -129t75 -73.5
t183 -27.5h721q119 0 119 45q0 13 -22.5 49t-22.5 78q0 94 54.5 147.5t146.5 53.5q59 0 102.5 -40t52.5 -103q-8 4 -24 4q-45 0 -45 -66q0 -37 34.5 -101t34.5 -128q0 -127 -250 -127h-1372q-72 0 -130 32.5t-58 94.5q0 58 90 311l594 1610q26 65 41 89.5t49 24.5
q20 0 46.5 -24.5t47.5 -24.5q13 0 44.5 24.5t54.5 24.5q53 0 94 -114l254 -762l307 762q47 114 111 114q11 0 44.5 -24.5t53.5 -24.5q16 0 45.5 24.5t52.5 24.5q42 0 61 -27.5t42 -86.5z" />
    <glyph glyph-name="Igrave" unicode="&#xed;" horiz-adv-x="2273" 
d="M791 1245h720v582q0 36 -30 64t-86 62.5t-82.5 59.5t-26.5 60q0 65 152 65h639q172 0 172 -86q0 -34 -77.5 -72t-119 -73.5t-41.5 -124.5v-1434q0 -40 30.5 -72t91 -73t88.5 -67t28 -58q0 -44 -96.5 -67t-202.5 -23q-34 0 -98 6t-95 6q-39 0 -96 -6t-88 -6
q-283 0 -283 82q0 31 26 58t82 68.5t84.5 76t28.5 75.5v684h-720v-684q0 -23 20.5 -39t87.5 -53.5t98 -64.5t31 -60q0 -52 -107 -97.5t-184 -45.5q-31 0 -88 6t-96 6q-29 0 -94 -6t-99 -6q-85 0 -183.5 48t-98.5 95q0 34 27 59.5t86 62t79.5 54t20.5 41.5v1434
q0 52 -27.5 84.5t-83.5 68.5t-79 57.5t-23 59.5q0 58 38.5 72t112.5 14h639q144 0 144 -65q0 -35 -27.5 -64.5t-87 -72t-83 -63.5t-23.5 -46v-582z" />
    <glyph glyph-name="Igrave" unicode="&#x43d;" horiz-adv-x="2273" 
d="M791 1245h720v582q0 36 -30 64t-86 62.5t-82.5 59.5t-26.5 60q0 65 152 65h639q172 0 172 -86q0 -34 -77.5 -72t-119 -73.5t-41.5 -124.5v-1434q0 -40 30.5 -72t91 -73t88.5 -67t28 -58q0 -44 -96.5 -67t-202.5 -23q-34 0 -98 6t-95 6q-39 0 -96 -6t-88 -6
q-283 0 -283 82q0 31 26 58t82 68.5t84.5 76t28.5 75.5v684h-720v-684q0 -23 20.5 -39t87.5 -53.5t98 -64.5t31 -60q0 -52 -107 -97.5t-184 -45.5q-31 0 -88 6t-96 6q-29 0 -94 -6t-99 -6q-85 0 -183.5 48t-98.5 95q0 34 27 59.5t86 62t79.5 54t20.5 41.5v1434
q0 52 -27.5 84.5t-83.5 68.5t-79 57.5t-23 59.5q0 58 38.5 72t112.5 14h639q144 0 144 -65q0 -35 -27.5 -64.5t-87 -72t-83 -63.5t-23.5 -46v-582z" />
    <glyph glyph-name="Oacute" unicode="&#xee;" horiz-adv-x="2028" 
d="M471 1303q0 -278 138 -454.5t366 -176.5q586 0 586 680q0 279 -131.5 450.5t-380.5 171.5q-286 0 -432 -188t-146 -483zM-4 1098q0 332 115 578t345.5 378.5t563.5 132.5q318 0 547.5 -133t349 -380t119.5 -576q0 -308 -108 -567t-292 -407.5t-403 -148.5
q-42 0 -106.5 12.5t-106.5 12.5q-50 0 -111.5 -12.5t-85.5 -12.5q-226 0 -417 153t-300.5 412.5t-109.5 557.5z" />
    <glyph glyph-name="Oacute" unicode="&#x43e;" horiz-adv-x="2028" 
d="M471 1303q0 -278 138 -454.5t366 -176.5q586 0 586 680q0 279 -131.5 450.5t-380.5 171.5q-286 0 -432 -188t-146 -483zM-4 1098q0 332 115 578t345.5 378.5t563.5 132.5q318 0 547.5 -133t349 -380t119.5 -576q0 -308 -108 -567t-292 -407.5t-403 -148.5
q-42 0 -106.5 12.5t-106.5 12.5q-50 0 -111.5 -12.5t-85.5 -12.5q-226 0 -417 153t-300.5 412.5t-109.5 557.5z" />
    <glyph glyph-name="Ocircumflex" unicode="&#xef;" 
d="M229 2138h664q143 0 143 -65q0 -35 -27.5 -64.5t-87 -72t-83 -63.5t-23.5 -46v-49q133 31 258.5 152t190 164.5t252.5 43.5q282 0 413 -145t131 -379v-1266q0 -23 45 -53t88 -53.5t74 -50.5t31 -60q0 -52 -107 -97.5t-184 -45.5q-31 0 -101 6t-108 6q-29 0 -94 -6t-98 -6
q-87 0 -197.5 48t-110.5 95q0 33 31 59t95.5 62.5t88 54.5t23.5 41v1155q0 98 -55.5 162t-145.5 64q-120 0 -174 -22.5t-164.5 -81.5t-181.5 -60v-1217q0 -23 45 -53t88 -53.5t74 -50.5t31 -60q0 -52 -107 -97.5t-184 -45.5q-32 0 -101 6t-108 6q-29 0 -94 -6t-99 -6
q-88 0 -197.5 48t-109.5 95q0 33 31 59t95.5 62.5t88 54.5t23.5 41v1434q0 52 -27.5 84.5t-83.5 68.5t-79 57.5t-23 59.5q0 58 38.5 72t112.5 14z" />
    <glyph glyph-name="Ocircumflex" unicode="&#x43f;" 
d="M229 2138h664q143 0 143 -65q0 -35 -27.5 -64.5t-87 -72t-83 -63.5t-23.5 -46v-49q133 31 258.5 152t190 164.5t252.5 43.5q282 0 413 -145t131 -379v-1266q0 -23 45 -53t88 -53.5t74 -50.5t31 -60q0 -52 -107 -97.5t-184 -45.5q-31 0 -101 6t-108 6q-29 0 -94 -6t-98 -6
q-87 0 -197.5 48t-110.5 95q0 33 31 59t95.5 62.5t88 54.5t23.5 41v1155q0 98 -55.5 162t-145.5 64q-120 0 -174 -22.5t-164.5 -81.5t-181.5 -60v-1217q0 -23 45 -53t88 -53.5t74 -50.5t31 -60q0 -52 -107 -97.5t-184 -45.5q-32 0 -101 6t-108 6q-29 0 -94 -6t-99 -6
q-88 0 -197.5 48t-109.5 95q0 33 31 59t95.5 62.5t88 54.5t23.5 41v1434q0 52 -27.5 84.5t-83.5 68.5t-79 57.5t-23 59.5q0 58 38.5 72t112.5 14z" />
    <glyph glyph-name="apple" unicode="&#xf0;" horiz-adv-x="2429" 
d="M311 -418v2196q0 36 -27.5 67.5t-80 70t-79 66.5t-30.5 66q0 90 127 90h647q111 0 111 -94q0 -20 -54 -63.5t-76 -66.5t-22 -63v-49q191 177 320 256.5t319 79.5q244 0 424.5 -145.5t273.5 -389t93 -526.5q0 -281 -106 -540.5t-312.5 -422.5t-486.5 -163q-166 0 -289 64
t-187.5 169.5t-64.5 225.5q0 86 21 139t55.5 111.5t34.5 84.5q0 42 -33 82q36 9 82 9q107 0 150 -40.5t70 -119t59 -115.5t118 -37q162 0 269.5 95.5t158.5 244.5t51 312q0 279 -120 465t-392 186q-70 0 -191.5 -47.5t-214.5 -110.5t-93 -108v-852q-111 -149 -111 -316
q0 -163 111 -295v-516q0 -19 16.5 -35.5t48 -35l53.5 -31.5q119 -63 119 -115t-107 -97.5t-184 -45.5q-31 0 -101 6t-108 6q-29 0 -94 -6t-98 -6q-87 0 -197 48.5t-110 94.5q0 33 30 60.5t74.5 54l88.5 55t44 47.5z" />
    <glyph glyph-name="apple" unicode="&#x440;" horiz-adv-x="2429" 
d="M311 -418v2196q0 36 -27.5 67.5t-80 70t-79 66.5t-30.5 66q0 90 127 90h647q111 0 111 -94q0 -20 -54 -63.5t-76 -66.5t-22 -63v-49q191 177 320 256.5t319 79.5q244 0 424.5 -145.5t273.5 -389t93 -526.5q0 -281 -106 -540.5t-312.5 -422.5t-486.5 -163q-166 0 -289 64
t-187.5 169.5t-64.5 225.5q0 86 21 139t55.5 111.5t34.5 84.5q0 42 -33 82q36 9 82 9q107 0 150 -40.5t70 -119t59 -115.5t118 -37q162 0 269.5 95.5t158.5 244.5t51 312q0 279 -120 465t-392 186q-70 0 -191.5 -47.5t-214.5 -110.5t-93 -108v-852q-111 -149 -111 -316
q0 -163 111 -295v-516q0 -19 16.5 -35.5t48 -35l53.5 -31.5q119 -63 119 -115t-107 -97.5t-184 -45.5q-31 0 -101 6t-108 6q-29 0 -94 -6t-98 -6q-87 0 -197 48.5t-110 94.5q0 33 30 60.5t74.5 54l88.5 55t44 47.5z" />
    <glyph glyph-name="Ograve" unicode="&#xf1;" horiz-adv-x="2126" 
d="M1212 2163q341 0 527 -119t186 -344q0 -144 -118 -244t-275 -100q-86 0 -142.5 32.5t-107.5 80t-70 47.5q-48 0 -61 -46q-66 31 -66 111q0 62 44 105t116 43q45 0 91 -6.5t65 -6.5q74 0 74 62q0 65 -112.5 118.5t-207.5 53.5q-295 0 -440.5 -194.5t-145.5 -510.5
q0 -247 64.5 -397t235 -224.5t483.5 -74.5q187 0 340 70.5t200 228.5q64 -14 120 -66t89 -125t33 -137q0 -157 -76 -282.5t-195 -194t-245 -68.5q-122 0 -247.5 12.5t-174.5 12.5q-63 0 -180.5 -12.5t-196.5 -12.5q-168 0 -330.5 128.5t-266 354.5t-103.5 496
q0 363 125.5 636.5t372.5 423t595 149.5z" />
    <glyph glyph-name="Ograve" unicode="&#x441;" horiz-adv-x="2126" 
d="M1212 2163q341 0 527 -119t186 -344q0 -144 -118 -244t-275 -100q-86 0 -142.5 32.5t-107.5 80t-70 47.5q-48 0 -61 -46q-66 31 -66 111q0 62 44 105t116 43q45 0 91 -6.5t65 -6.5q74 0 74 62q0 65 -112.5 118.5t-207.5 53.5q-295 0 -440.5 -194.5t-145.5 -510.5
q0 -247 64.5 -397t235 -224.5t483.5 -74.5q187 0 340 70.5t200 228.5q64 -14 120 -66t89 -125t33 -137q0 -157 -76 -282.5t-195 -194t-245 -68.5q-122 0 -247.5 12.5t-174.5 12.5q-63 0 -180.5 -12.5t-196.5 -12.5q-168 0 -330.5 128.5t-266 354.5t-103.5 496
q0 363 125.5 636.5t372.5 423t595 149.5z" />
    <glyph glyph-name="Uacute" unicode="&#xf2;" horiz-adv-x="3564" 
d="M291 348v1434q0 52 -27.5 84.5t-83.5 68.5t-79 57.5t-23 59.5q0 58 38.5 72t112.5 14h664q143 0 143 -65q0 -35 -27.5 -64.5t-87 -72t-83 -63.5t-23.5 -46v-49q66 21 114 43t93 50t88.5 59.5l89.5 64.5q106 71 201 107t233 36q174 0 292 -92t118 -268q114 34 177 74
t208 143q106 71 201 107t233 36q174 0 292 -92t118 -268v-1430q0 -23 20.5 -39t87.5 -53.5t98 -64.5t31 -60q0 -52 -107 -97.5t-184 -45.5q-31 0 -101 6t-107 6q-31 0 -95 -6t-98 -6q-87 0 -197 48.5t-110 94.5q0 33 30 59t95 62.5t88.5 54.5t23.5 41v1204q0 78 -50.5 127.5
t-141.5 49.5q-59 0 -114 -16.5t-139 -50.5t-142.5 -52t-116.5 -21v-1241q0 -23 20.5 -39t87.5 -53.5t98 -64.5t31 -60q0 -52 -106 -97.5t-184 -45.5q-32 0 -102 6t-107 6q-31 0 -95 -6t-98 -6q-88 0 -197.5 48t-109.5 95q0 33 31 59t95.5 62.5t88 54.5t23.5 41v1204
q0 78 -51.5 127.5t-141.5 49.5q-59 0 -114 -16.5t-139 -50.5t-142.5 -52t-116.5 -21v-1241q0 -23 45 -53t88 -53.5t74 -50.5t31 -60q0 -52 -107 -97.5t-184 -45.5q-32 0 -101 6t-108 6q-29 0 -94 -6t-99 -6q-88 0 -197.5 48t-109.5 95q0 33 31 59t95.5 62.5t88 54.5t23.5 41
z" />
    <glyph glyph-name="Uacute" unicode="&#x442;" horiz-adv-x="3564" 
d="M291 348v1434q0 52 -27.5 84.5t-83.5 68.5t-79 57.5t-23 59.5q0 58 38.5 72t112.5 14h664q143 0 143 -65q0 -35 -27.5 -64.5t-87 -72t-83 -63.5t-23.5 -46v-49q66 21 114 43t93 50t88.5 59.5l89.5 64.5q106 71 201 107t233 36q174 0 292 -92t118 -268q114 34 177 74
t208 143q106 71 201 107t233 36q174 0 292 -92t118 -268v-1430q0 -23 20.5 -39t87.5 -53.5t98 -64.5t31 -60q0 -52 -107 -97.5t-184 -45.5q-31 0 -101 6t-107 6q-31 0 -95 -6t-98 -6q-87 0 -197 48.5t-110 94.5q0 33 30 59t95 62.5t88.5 54.5t23.5 41v1204q0 78 -50.5 127.5
t-141.5 49.5q-59 0 -114 -16.5t-139 -50.5t-142.5 -52t-116.5 -21v-1241q0 -23 20.5 -39t87.5 -53.5t98 -64.5t31 -60q0 -52 -106 -97.5t-184 -45.5q-32 0 -102 6t-107 6q-31 0 -95 -6t-98 -6q-88 0 -197.5 48t-109.5 95q0 33 31 59t95.5 62.5t88 54.5t23.5 41v1204
q0 78 -51.5 127.5t-141.5 49.5q-59 0 -114 -16.5t-139 -50.5t-142.5 -52t-116.5 -21v-1241q0 -23 45 -53t88 -53.5t74 -50.5t31 -60q0 -52 -107 -97.5t-184 -45.5q-32 0 -101 6t-108 6q-29 0 -94 -6t-99 -6q-88 0 -197.5 48t-109.5 95q0 33 31 59t95.5 62.5t88 54.5t23.5 41
z" />
    <glyph glyph-name="Ucircumflex" unicode="&#xf3;" 
d="M954 344l-786 1446q-15 30 -44 60.5t-81 78.5t-76 78t-24 57q0 46 38.5 58t133.5 16h1015q132 0 132 -74q0 -47 -70 -90v-8q261 51 500 115q214 57 393 57q192 0 192 -131q0 -160 -264 -652.5t-510 -903.5l-430 -730q0 -499 -336 -499q-148 0 -266 160q-11 14 -61 86
t-74 95t-49 23q-28 0 -127 -41l37 185q32 143 168 143q80 0 159 -49zM651 1950l631 -1209q22 -45 41 -45q16 0 70 66q385 536 385 950q0 102 -30 145.5t-110 43.5q-102 0 -340 -74q-230 -74 -360 -74q-119 0 -119 102q0 38 19.5 62.5t38.5 24.5v8h-226z" />
    <glyph glyph-name="Ucircumflex" unicode="&#x443;" 
d="M954 344l-786 1446q-15 30 -44 60.5t-81 78.5t-76 78t-24 57q0 46 38.5 58t133.5 16h1015q132 0 132 -74q0 -47 -70 -90v-8q261 51 500 115q214 57 393 57q192 0 192 -131q0 -160 -264 -652.5t-510 -903.5l-430 -730q0 -499 -336 -499q-148 0 -266 160q-11 14 -61 86
t-74 95t-49 23q-28 0 -127 -41l37 185q32 143 168 143q80 0 159 -49zM651 1950l631 -1209q22 -45 41 -45q16 0 70 66q385 536 385 950q0 102 -30 145.5t-110 43.5q-102 0 -340 -74q-230 -74 -360 -74q-119 0 -119 102q0 38 19.5 62.5t38.5 24.5v8h-226z" />
    <glyph glyph-name="Ugrave" unicode="&#xf4;" horiz-adv-x="3441" 
d="M1384 2097h631q111 0 111 -94q0 -20 -54 -63.5t-76 -66.5t-22 -63v-49q191 177 320 256.5t319 79.5q244 0 424.5 -145.5t273.5 -389t93 -526.5q0 -279 -106.5 -540t-312.5 -423.5t-486 -162.5q-167 0 -289 63.5t-187 169.5t-65 226q0 84 21.5 139.5t55 113.5t33.5 83
q0 43 -32 81q29 9 82 9q107 0 150 -40.5t70 -119t59 -115.5t118 -37q162 0 269.5 95.5t158.5 244.5t51 312q0 277 -119.5 464t-392.5 187q-71 0 -192.5 -48t-214.5 -110.5t-93 -107.5v-852q-110 -151 -110 -316q0 -162 110 -295v-516q0 -19 16.5 -35.5t48.5 -35l54 -31.5
q119 -63 119 -115t-107 -97.5t-184 -45.5q-31 0 -101 6t-108 6q-29 0 -123 -6t-127 -6q-41 0 -113 21t-124.5 54t-52.5 68q0 51 118 115q77 45 98 59.5t21 42.5v516q111 132 111 295q0 167 -111 316v852q0 45 -93 108t-214.5 110.5t-191.5 47.5q-272 0 -392 -187t-120 -464
q0 -163 51 -312t158.5 -244.5t269.5 -95.5q87 0 119.5 38t59.5 116.5t69.5 118t148.5 39.5q53 0 82 -9q-33 -38 -33 -81q0 -26 34.5 -85t55.5 -112t21 -139q0 -120 -64.5 -225.5t-187.5 -169.5t-289 -64q-280 0 -486.5 163t-312.5 423.5t-106 539.5q0 282 92.5 525.5
t273 389.5t424.5 146q191 0 321.5 -80.5t317.5 -255.5v49q0 40 -24 65t-75.5 66.5t-51.5 61.5q0 94 110 94z" />
    <glyph glyph-name="Ugrave" unicode="&#x444;" horiz-adv-x="3441" 
d="M1384 2097h631q111 0 111 -94q0 -20 -54 -63.5t-76 -66.5t-22 -63v-49q191 177 320 256.5t319 79.5q244 0 424.5 -145.5t273.5 -389t93 -526.5q0 -279 -106.5 -540t-312.5 -423.5t-486 -162.5q-167 0 -289 63.5t-187 169.5t-65 226q0 84 21.5 139.5t55 113.5t33.5 83
q0 43 -32 81q29 9 82 9q107 0 150 -40.5t70 -119t59 -115.5t118 -37q162 0 269.5 95.5t158.5 244.5t51 312q0 277 -119.5 464t-392.5 187q-71 0 -192.5 -48t-214.5 -110.5t-93 -107.5v-852q-110 -151 -110 -316q0 -162 110 -295v-516q0 -19 16.5 -35.5t48.5 -35l54 -31.5
q119 -63 119 -115t-107 -97.5t-184 -45.5q-31 0 -101 6t-108 6q-29 0 -123 -6t-127 -6q-41 0 -113 21t-124.5 54t-52.5 68q0 51 118 115q77 45 98 59.5t21 42.5v516q111 132 111 295q0 167 -111 316v852q0 45 -93 108t-214.5 110.5t-191.5 47.5q-272 0 -392 -187t-120 -464
q0 -163 51 -312t158.5 -244.5t269.5 -95.5q87 0 119.5 38t59.5 116.5t69.5 118t148.5 39.5q53 0 82 -9q-33 -38 -33 -81q0 -26 34.5 -85t55.5 -112t21 -139q0 -120 -64.5 -225.5t-187.5 -169.5t-289 -64q-280 0 -486.5 163t-312.5 423.5t-106 539.5q0 282 92.5 525.5
t273 389.5t424.5 146q191 0 321.5 -80.5t317.5 -255.5v49q0 40 -24 65t-75.5 66.5t-51.5 61.5q0 94 110 94z" />
    <glyph glyph-name="dotlessi" unicode="&#xf5;" 
d="M287 406l622 626l-512 705q-91 114 -217 180q-106 71 -106 119q0 50 60.5 76t139.5 26h816q192 0 192 -78q0 -19 -25 -65q119 43 323.5 93t311.5 50q193 0 193 -94q0 -26 -32.5 -63.5t-118 -118l-152.5 -147.5t-156 -171l-274 -315l426 -549l131.5 -163t126 -140.5
t135.5 -110.5q192 -122 192 -176q0 -53 -85.5 -84t-172.5 -31q-32 0 -128.5 12.5t-157.5 12.5q-63 0 -156.5 -12.5t-138.5 -12.5q-246 0 -246 82q0 35 23 62t65 57.5t63 51.5t21 46t-61 111l-349 471l-217 -254q-127 -164 -127 -237q0 -43 29.5 -74t87 -67t87.5 -62.5
t30 -63.5q0 -46 -98 -84.5t-156 -38.5q-53 0 -129 12.5t-113 12.5q-50 0 -131 -12.5t-119 -12.5q-131 0 -131 103q0 61 54.5 132t179.5 196zM1241 1393l201 254q123 147 123 192q0 62 -54 62q-49 0 -223.5 -61.5t-210.5 -61.5q-127 0 -127 73q0 15 66 99h-135q-37 0 -37 -25
q0 -15 61 -98z" />
    <glyph glyph-name="dotlessi" unicode="&#x445;" 
d="M287 406l622 626l-512 705q-91 114 -217 180q-106 71 -106 119q0 50 60.5 76t139.5 26h816q192 0 192 -78q0 -19 -25 -65q119 43 323.5 93t311.5 50q193 0 193 -94q0 -26 -32.5 -63.5t-118 -118l-152.5 -147.5t-156 -171l-274 -315l426 -549l131.5 -163t126 -140.5
t135.5 -110.5q192 -122 192 -176q0 -53 -85.5 -84t-172.5 -31q-32 0 -128.5 12.5t-157.5 12.5q-63 0 -156.5 -12.5t-138.5 -12.5q-246 0 -246 82q0 35 23 62t65 57.5t63 51.5t21 46t-61 111l-349 471l-217 -254q-127 -164 -127 -237q0 -43 29.5 -74t87 -67t87.5 -62.5
t30 -63.5q0 -46 -98 -84.5t-156 -38.5q-53 0 -129 12.5t-113 12.5q-50 0 -131 -12.5t-119 -12.5q-131 0 -131 103q0 61 54.5 132t179.5 196zM1241 1393l201 254q123 147 123 192q0 62 -54 62q-49 0 -223.5 -61.5t-210.5 -61.5q-127 0 -127 73q0 15 66 99h-135q-37 0 -37 -25
q0 -15 61 -98z" />
    <glyph glyph-name="circumflex" unicode="&#xf6;" horiz-adv-x="2613" 
d="M2302 0h-180h-664q-143 0 -143 66q0 39 28 70.5t86.5 74t82.5 65t24 52.5v32q-131 -31 -275 -153.5t-210.5 -164.5t-243.5 -42q-258 0 -387 128t-129 409v1298q0 45 -32 74t-96 61t-87 48.5t-23 49.5q0 70 140 70h499q123 0 123 -156v-1269q0 -107 51.5 -172.5
t149.5 -65.5q70 0 128 14t135.5 43t133 45t123.5 21v1237q0 37 -56 76l-112.5 79t-56.5 78q0 70 139 70h704q144 0 144 -70q0 -36 -29.5 -61t-88 -56t-89.5 -55.5t-31 -60.5v-1479q0 -61 178 -105t264.5 -85t86.5 -174q0 -167 -92.5 -305t-243.5 -138q-26 0 -88.5 18.5
t-112.5 18.5q-63 0 -70 -49q-114 58 -114 168q0 68 51 124t121 56q40 0 93 -12t79 -12q39 0 64.5 42t25.5 97z" />
    <glyph glyph-name="circumflex" unicode="&#x446;" horiz-adv-x="2613" 
d="M2302 0h-180h-664q-143 0 -143 66q0 39 28 70.5t86.5 74t82.5 65t24 52.5v32q-131 -31 -275 -153.5t-210.5 -164.5t-243.5 -42q-258 0 -387 128t-129 409v1298q0 45 -32 74t-96 61t-87 48.5t-23 49.5q0 70 140 70h499q123 0 123 -156v-1269q0 -107 51.5 -172.5
t149.5 -65.5q70 0 128 14t135.5 43t133 45t123.5 21v1237q0 37 -56 76l-112.5 79t-56.5 78q0 70 139 70h704q144 0 144 -70q0 -36 -29.5 -61t-88 -56t-89.5 -55.5t-31 -60.5v-1479q0 -61 178 -105t264.5 -85t86.5 -174q0 -167 -92.5 -305t-243.5 -138q-26 0 -88.5 18.5
t-112.5 18.5q-63 0 -70 -49q-114 58 -114 168q0 68 51 124t121 56q40 0 93 -12t79 -12q39 0 64.5 42t25.5 97z" />
    <glyph glyph-name="tilde" unicode="&#xf7;" 
d="M291 1294v541q0 45 -32 74t-96 61t-87 48.5t-23 49.5q0 70 140 70h499q123 0 123 -156v-512q0 -107 51.5 -172t149.5 -65q70 0 128 14t135.5 43t133 45t123.5 21v479q0 37 -56 76l-112.5 79t-56.5 78q0 70 139 70h704q144 0 144 -70q0 -36 -29.5 -61t-88 -56t-89.5 -55.5
t-31 -60.5v-1479q0 -51 27 -83.5t83 -68.5t79.5 -57.5t23.5 -60.5q0 -57 -38.5 -71.5t-112.5 -14.5h-664q-143 0 -143 66q0 39 28 70.5t86.5 74t82.5 65t24 52.5v790q-131 -31 -277 -155t-211 -164.5t-241 -40.5q-258 0 -387 128.5t-129 407.5z" />
    <glyph glyph-name="tilde" unicode="&#x447;" 
d="M291 1294v541q0 45 -32 74t-96 61t-87 48.5t-23 49.5q0 70 140 70h499q123 0 123 -156v-512q0 -107 51.5 -172t149.5 -65q70 0 128 14t135.5 43t133 45t123.5 21v479q0 37 -56 76l-112.5 79t-56.5 78q0 70 139 70h704q144 0 144 -70q0 -36 -29.5 -61t-88 -56t-89.5 -55.5
t-31 -60.5v-1479q0 -51 27 -83.5t83 -68.5t79.5 -57.5t23.5 -60.5q0 -57 -38.5 -71.5t-112.5 -14.5h-664q-143 0 -143 66q0 39 28 70.5t86.5 74t82.5 65t24 52.5v790q-131 -31 -277 -155t-211 -164.5t-241 -40.5q-258 0 -387 128.5t-129 407.5z" />
    <glyph glyph-name="macron" unicode="&#xf8;" horiz-adv-x="3604" 
d="M1450 2138h512q123 0 123 -156v-1269q0 -109 51.5 -173.5t149.5 -64.5q70 0 128 14t135.5 43t133 45t123.5 21v1237q0 37 -56.5 76l-113 79t-56.5 78q0 70 140 70h704q144 0 144 -70q0 -36 -29.5 -61t-88 -56t-89.5 -55.5t-31 -60.5v-1479q0 -51 27 -83.5t83 -68.5
t79.5 -57.5t23.5 -60.5q0 -57 -38.5 -71.5t-113.5 -14.5h-663q-143 0 -143 66q0 39 28 70.5t86.5 74t82.5 65t24 52.5v32q-133 -32 -274.5 -153t-210 -164t-244.5 -43q-292 0 -394 6.5t-102 38.5q0 68 -22.5 155t-22.5 128v32q-131 -31 -275 -153.5t-210.5 -164.5
t-243.5 -42q-258 0 -387 128t-129 409v1298q0 45 -32 74t-96 61t-87 48.5t-23 49.5q0 70 140 70h499q123 0 123 -156v-1269q0 -107 51.5 -172.5t149.5 -65.5q70 0 128 14t135.5 43t133 45t123.5 21v1237q0 37 -56 76l-112.5 79t-56.5 78q0 70 139 70z" />
    <glyph glyph-name="macron" unicode="&#x448;" horiz-adv-x="3604" 
d="M1450 2138h512q123 0 123 -156v-1269q0 -109 51.5 -173.5t149.5 -64.5q70 0 128 14t135.5 43t133 45t123.5 21v1237q0 37 -56.5 76l-113 79t-56.5 78q0 70 140 70h704q144 0 144 -70q0 -36 -29.5 -61t-88 -56t-89.5 -55.5t-31 -60.5v-1479q0 -51 27 -83.5t83 -68.5
t79.5 -57.5t23.5 -60.5q0 -57 -38.5 -71.5t-113.5 -14.5h-663q-143 0 -143 66q0 39 28 70.5t86.5 74t82.5 65t24 52.5v32q-133 -32 -274.5 -153t-210 -164t-244.5 -43q-292 0 -394 6.5t-102 38.5q0 68 -22.5 155t-22.5 128v32q-131 -31 -275 -153.5t-210.5 -164.5
t-243.5 -42q-258 0 -387 128t-129 409v1298q0 45 -32 74t-96 61t-87 48.5t-23 49.5q0 70 140 70h499q123 0 123 -156v-1269q0 -107 51.5 -172.5t149.5 -65.5q70 0 128 14t135.5 43t133 45t123.5 21v1237q0 37 -56 76l-112.5 79t-56.5 78q0 70 139 70z" />
    <glyph glyph-name="breve" unicode="&#xf9;" horiz-adv-x="3891" 
d="M3391 0h-663q-143 0 -143 66q0 39 28 70.5t86.5 74t82.5 65t24 52.5v32q-133 -32 -274.5 -153t-210 -164t-244.5 -43q-292 0 -394 6.5t-102 38.5q0 68 -22.5 155t-22.5 128v32q-131 -31 -275 -153.5t-210.5 -164.5t-243.5 -42q-258 0 -387 128t-129 409v1298q0 45 -32 74
t-96 61t-87 48.5t-23 49.5q0 70 140 70h499q123 0 123 -156v-1269q0 -107 51.5 -172.5t149.5 -65.5q70 0 128 14t135.5 43t133 45t123.5 21v1237q0 37 -56 76l-112.5 79t-56.5 78q0 70 139 70h512q123 0 123 -156v-1269q0 -109 51.5 -173.5t149.5 -64.5q70 0 128 14
t135.5 43t133 45t123.5 21v1237q0 37 -56.5 76l-113 79t-56.5 78q0 70 140 70h704q144 0 144 -70q0 -36 -29.5 -61t-88 -56t-89.5 -55.5t-31 -60.5v-1479q1 -61 178.5 -105t263.5 -85t86 -174q0 -107 -40.5 -209.5t-117 -168t-177.5 -65.5q-26 0 -88.5 18.5t-112.5 18.5
q-64 0 -70 -49q-114 57 -114 168q0 69 51.5 124.5t120.5 55.5q38 0 91 -12t81 -12q39 0 64.5 42t25.5 97h-181z" />
    <glyph glyph-name="breve" unicode="&#x449;" horiz-adv-x="3891" 
d="M3391 0h-663q-143 0 -143 66q0 39 28 70.5t86.5 74t82.5 65t24 52.5v32q-133 -32 -274.5 -153t-210 -164t-244.5 -43q-292 0 -394 6.5t-102 38.5q0 68 -22.5 155t-22.5 128v32q-131 -31 -275 -153.5t-210.5 -164.5t-243.5 -42q-258 0 -387 128t-129 409v1298q0 45 -32 74
t-96 61t-87 48.5t-23 49.5q0 70 140 70h499q123 0 123 -156v-1269q0 -107 51.5 -172.5t149.5 -65.5q70 0 128 14t135.5 43t133 45t123.5 21v1237q0 37 -56 76l-112.5 79t-56.5 78q0 70 139 70h512q123 0 123 -156v-1269q0 -109 51.5 -173.5t149.5 -64.5q70 0 128 14
t135.5 43t133 45t123.5 21v1237q0 37 -56.5 76l-113 79t-56.5 78q0 70 140 70h704q144 0 144 -70q0 -36 -29.5 -61t-88 -56t-89.5 -55.5t-31 -60.5v-1479q1 -61 178.5 -105t263.5 -85t86 -174q0 -107 -40.5 -209.5t-117 -168t-177.5 -65.5q-26 0 -88.5 18.5t-112.5 18.5
q-64 0 -70 -49q-114 57 -114 168q0 69 51.5 124.5t120.5 55.5q38 0 91 -12t81 -12q39 0 64.5 42t25.5 97h-181z" />
    <glyph glyph-name="dotaccent" unicode="&#xfa;" horiz-adv-x="2519" 
d="M823 1782q0 24 -20 24q-31 0 -97.5 -58t-122 -128t-55.5 -100q0 -71 49.5 -167t49.5 -149q0 -65 -37.5 -98t-93.5 -33q-17 0 -41 8q8 18 8 29q0 17 -85 50.5t-166 86.5t-144.5 168t-63.5 301q0 191 105.5 306.5t275.5 115.5h999q213 0 213 -86q0 -48 -64 -91t-173 -69
q0 -58 -6.5 -217t-10.5 -266q0 8 17 8q88 0 277.5 -34.5t299.5 -84.5q492 -216 492 -716q0 -203 -80 -343t-212 -208t-286 -68q-34 0 -167.5 18.5t-274.5 18.5q-63 0 -241 -8t-263 -8q-75 0 -191 28.5t-116 73.5q0 66 38 110.5t187 114.5v1471zM1634 1192l-291 65v-688
q0 -176 144 -176q20 0 57 4t58 4q13 0 47 -4t51 -4q278 0 278 377q0 346 -344 422z" />
    <glyph glyph-name="dotaccent" unicode="&#x44a;" horiz-adv-x="2519" 
d="M823 1782q0 24 -20 24q-31 0 -97.5 -58t-122 -128t-55.5 -100q0 -71 49.5 -167t49.5 -149q0 -65 -37.5 -98t-93.5 -33q-17 0 -41 8q8 18 8 29q0 17 -85 50.5t-166 86.5t-144.5 168t-63.5 301q0 191 105.5 306.5t275.5 115.5h999q213 0 213 -86q0 -48 -64 -91t-173 -69
q0 -58 -6.5 -217t-10.5 -266q0 8 17 8q88 0 277.5 -34.5t299.5 -84.5q492 -216 492 -716q0 -203 -80 -343t-212 -208t-286 -68q-34 0 -167.5 18.5t-274.5 18.5q-63 0 -241 -8t-263 -8q-75 0 -191 28.5t-116 73.5q0 66 38 110.5t187 114.5v1471zM1634 1192l-291 65v-688
q0 -176 144 -176q20 0 57 4t58 4q13 0 47 -4t51 -4q278 0 278 377q0 346 -344 422z" />
    <glyph glyph-name="ring" unicode="&#xfb;" horiz-adv-x="3011" 
d="M1102 1192l-291 65v-688q0 -176 143 -176q20 0 57 4t58 4q14 0 48 -4t50 -4q279 0 279 377q0 346 -344 422zM229 2138h623q213 0 213 -86q0 -48 -64 -90.5t-174 -69.5q0 -35 -6 -205.5l-10 -277.5q0 8 16 8q88 0 277 -34t301 -85q491 -217 491 -716q0 -303 -167.5 -461
t-409.5 -158q-34 0 -167.5 18.5t-274.5 18.5q-65 0 -242 -8t-262 -8q-76 0 -191.5 28.5t-115.5 73.5q0 66 38 110.5t187 114.5v1471q0 52 -27.5 84.5t-83.5 68.5t-79 57.5t-23 59.5q0 58 38.5 72t112.5 14zM2146 348v1544q-237 85 -237 160q0 86 192 86h594q213 0 213 -86
q0 -48 -64 -91t-173 -69v-1544q0 -23 20.5 -39t87.5 -53.5t98 -64.5t31 -60q0 -52 -107 -97.5t-184 -45.5q-31 0 -101 6t-108 6q-29 0 -94 -6t-98 -6q-87 0 -197 48.5t-110 94.5q0 33 30 59t95 62.5t88.5 54.5t23.5 41z" />
    <glyph glyph-name="ring" unicode="&#x44b;" horiz-adv-x="3011" 
d="M1102 1192l-291 65v-688q0 -176 143 -176q20 0 57 4t58 4q14 0 48 -4t50 -4q279 0 279 377q0 346 -344 422zM229 2138h623q213 0 213 -86q0 -48 -64 -90.5t-174 -69.5q0 -35 -6 -205.5l-10 -277.5q0 8 16 8q88 0 277 -34t301 -85q491 -217 491 -716q0 -303 -167.5 -461
t-409.5 -158q-34 0 -167.5 18.5t-274.5 18.5q-65 0 -242 -8t-262 -8q-76 0 -191.5 28.5t-115.5 73.5q0 66 38 110.5t187 114.5v1471q0 52 -27.5 84.5t-83.5 68.5t-79 57.5t-23 59.5q0 58 38.5 72t112.5 14zM2146 348v1544q-237 85 -237 160q0 86 192 86h594q213 0 213 -86
q0 -48 -64 -91t-173 -69v-1544q0 -23 20.5 -39t87.5 -53.5t98 -64.5t31 -60q0 -52 -107 -97.5t-184 -45.5q-31 0 -101 6t-108 6q-29 0 -94 -6t-98 -6q-87 0 -197 48.5t-110 94.5q0 33 30 59t95 62.5t88.5 54.5t23.5 41z" />
    <glyph glyph-name="cedilla" unicode="&#xfc;" horiz-adv-x="1966" 
d="M1102 1192l-291 65v-688q0 -176 143 -176q20 0 57 4t58 4q14 0 48 -4t50 -4q279 0 279 377q0 346 -344 422zM229 2138h623q213 0 213 -86q0 -48 -64 -90.5t-174 -69.5q0 -35 -6 -205.5l-10 -277.5q0 8 16 8q88 0 277 -34t301 -85q491 -217 491 -716q0 -303 -167.5 -461
t-409.5 -158q-34 0 -167.5 18.5t-274.5 18.5q-65 0 -242 -8t-262 -8q-76 0 -191.5 28.5t-115.5 73.5q0 66 38 110.5t187 114.5v1471q0 52 -27.5 84.5t-83.5 68.5t-79 57.5t-23 59.5q0 58 38.5 72t112.5 14z" />
    <glyph glyph-name="cedilla" unicode="&#x44c;" horiz-adv-x="1966" 
d="M1102 1192l-291 65v-688q0 -176 143 -176q20 0 57 4t58 4q14 0 48 -4t50 -4q279 0 279 377q0 346 -344 422zM229 2138h623q213 0 213 -86q0 -48 -64 -90.5t-174 -69.5q0 -35 -6 -205.5l-10 -277.5q0 8 16 8q88 0 277 -34t301 -85q491 -217 491 -716q0 -303 -167.5 -461
t-409.5 -158q-34 0 -167.5 18.5t-274.5 18.5q-65 0 -242 -8t-262 -8q-76 0 -191.5 28.5t-115.5 73.5q0 66 38 110.5t187 114.5v1471q0 52 -27.5 84.5t-83.5 68.5t-79 57.5t-23 59.5q0 58 38.5 72t112.5 14z" />
    <glyph glyph-name="hungarumlaut" unicode="&#xfd;" horiz-adv-x="2126" 
d="M270 1700q0 224 186 343.5t527 119.5q349 0 595.5 -149t372.5 -423t126 -637q0 -201 -60.5 -382.5t-162.5 -315.5t-227 -207.5t-251 -73.5q-78 0 -196.5 12.5t-180.5 12.5q-48 0 -173.5 -12.5t-247.5 -12.5q-126 0 -246 69t-195.5 194t-75.5 282q0 101 72.5 204.5
t169.5 123.5q48 -158 201 -228.5t340 -70.5q314 0 483.5 74.5t234 224.5t64.5 397q0 203 -62 362t-193 251t-331 92q-94 0 -206.5 -53.5t-112.5 -118.5q0 -62 74 -62q19 0 65 6.5t90 6.5q74 0 117 -42t43 -106q0 -81 -66 -111q-13 46 -61 46q-18 0 -68.5 -47.5t-107 -80
t-143.5 -32.5q-157 0 -275.5 100t-118.5 244zM1618 1004q-64 -30 -199.5 -74.5t-255.5 -44.5q-158 0 -200 98q-54 123 -54 221q0 33 13 33q12 0 20 -8q93 -78 287 -78q115 0 218.5 21.5t149.5 35.5z" />
    <glyph glyph-name="hungarumlaut" unicode="&#x44d;" horiz-adv-x="2126" 
d="M270 1700q0 224 186 343.5t527 119.5q349 0 595.5 -149t372.5 -423t126 -637q0 -201 -60.5 -382.5t-162.5 -315.5t-227 -207.5t-251 -73.5q-78 0 -196.5 12.5t-180.5 12.5q-48 0 -173.5 -12.5t-247.5 -12.5q-126 0 -246 69t-195.5 194t-75.5 282q0 101 72.5 204.5
t169.5 123.5q48 -158 201 -228.5t340 -70.5q314 0 483.5 74.5t234 224.5t64.5 397q0 203 -62 362t-193 251t-331 92q-94 0 -206.5 -53.5t-112.5 -118.5q0 -62 74 -62q19 0 65 6.5t90 6.5q74 0 117 -42t43 -106q0 -81 -66 -111q-13 46 -61 46q-18 0 -68.5 -47.5t-107 -80
t-143.5 -32.5q-157 0 -275.5 100t-118.5 244zM1618 1004q-64 -30 -199.5 -74.5t-255.5 -44.5q-158 0 -200 98q-54 123 -54 221q0 33 13 33q12 0 20 -8q93 -78 287 -78q115 0 218.5 21.5t149.5 35.5z" />
    <glyph glyph-name="ogonek" unicode="&#xfe;" horiz-adv-x="3113" 
d="M815 1245q311 0 356 29q12 282 121.5 487.5t320.5 315.5t513 110q316 0 530.5 -132t319 -377t104.5 -580q0 -313 -93.5 -570.5t-262 -405t-385.5 -147.5q-42 0 -106.5 12.5t-106.5 12.5q-50 0 -112.5 -12.5t-84.5 -12.5q-162 0 -299 79.5t-238 220.5t-158.5 326
t-66.5 398q-12 18 -181.5 25t-170.5 8v-684q0 -23 45 -53t88 -53.5t74 -50.5t31 -60q0 -52 -107 -97.5t-184 -45.5q-32 0 -101 6t-108 6q-29 0 -94 -6t-99 -6q-88 0 -197.5 48t-109.5 95q0 33 31 59t95.5 62.5t88 54.5t23.5 41v1434q0 52 -27.5 84.5t-83.5 68.5t-79 57.5
t-23 59.5q0 58 38.5 72t112.5 14h664q143 0 143 -65q0 -35 -27.5 -64.5t-87 -72t-83 -63.5t-23.5 -46v-582zM1638 1303q0 -288 109.5 -459.5t333.5 -171.5q310 0 417 175t107 505q0 622 -451 622q-516 0 -516 -671z" />
    <glyph glyph-name="ogonek" unicode="&#x44e;" horiz-adv-x="3113" 
d="M815 1245q311 0 356 29q12 282 121.5 487.5t320.5 315.5t513 110q316 0 530.5 -132t319 -377t104.5 -580q0 -313 -93.5 -570.5t-262 -405t-385.5 -147.5q-42 0 -106.5 12.5t-106.5 12.5q-50 0 -112.5 -12.5t-84.5 -12.5q-162 0 -299 79.5t-238 220.5t-158.5 326
t-66.5 398q-12 18 -181.5 25t-170.5 8v-684q0 -23 45 -53t88 -53.5t74 -50.5t31 -60q0 -52 -107 -97.5t-184 -45.5q-32 0 -101 6t-108 6q-29 0 -94 -6t-99 -6q-88 0 -197.5 48t-109.5 95q0 33 31 59t95.5 62.5t88 54.5t23.5 41v1434q0 52 -27.5 84.5t-83.5 68.5t-79 57.5
t-23 59.5q0 58 38.5 72t112.5 14h664q143 0 143 -65q0 -35 -27.5 -64.5t-87 -72t-83 -63.5t-23.5 -46v-582zM1638 1303q0 -288 109.5 -459.5t333.5 -171.5q310 0 417 175t107 505q0 622 -451 622q-516 0 -516 -671z" />
    <glyph glyph-name="caron" unicode="&#xff;" horiz-adv-x="2503" 
d="M168 348q16 174 114 294t282 263.5t259 224.5q-99 0 -260.5 76t-284 205t-122.5 281q0 215 191 330.5t468 115.5q152 0 259 -52.5t187.5 -135.5l145 -148t129.5 -82v152q-121 57 -179.5 92t-58.5 84q0 86 213 86h619q192 0 192 -86q0 -38 -36 -68t-93 -57l-108 -51v-1483
q0 -36 26.5 -60t88 -58.5t92 -64t30.5 -75.5t-110 -94.5t-197 -48.5q-33 0 -97 6t-91 6q-38 0 -115 -6t-123 -6q-77 0 -184 45.5t-107 97.5q0 56 238 217v1143q-69 15 -118.5 55t-138.5 128.5t-156.5 132.5t-147.5 44q-121 0 -195.5 -45t-74.5 -118q0 -122 47 -245.5
t157 -123.5q55 0 98 -18t94 -51.5t78 -47.5t62 -14q184 0 184 -156q0 -55 -36.5 -95t-95.5 -74.5t-208 -112.5q-160 -85 -221 -136t-79.5 -123t-18.5 -225q0 -116 -47.5 -197t-116.5 -81q-16 0 -107 6t-130 6q-29 0 -96 -6t-109 -6q-123 0 -211 38t-88 89q0 36 101.5 109.5
t205.5 123.5z" />
    <glyph glyph-name="caron" unicode="&#x44f;" horiz-adv-x="2503" 
d="M168 348q16 174 114 294t282 263.5t259 224.5q-99 0 -260.5 76t-284 205t-122.5 281q0 215 191 330.5t468 115.5q152 0 259 -52.5t187.5 -135.5l145 -148t129.5 -82v152q-121 57 -179.5 92t-58.5 84q0 86 213 86h619q192 0 192 -86q0 -38 -36 -68t-93 -57l-108 -51v-1483
q0 -36 26.5 -60t88 -58.5t92 -64t30.5 -75.5t-110 -94.5t-197 -48.5q-33 0 -97 6t-91 6q-38 0 -115 -6t-123 -6q-77 0 -184 45.5t-107 97.5q0 56 238 217v1143q-69 15 -118.5 55t-138.5 128.5t-156.5 132.5t-147.5 44q-121 0 -195.5 -45t-74.5 -118q0 -122 47 -245.5
t157 -123.5q55 0 98 -18t94 -51.5t78 -47.5t62 -14q184 0 184 -156q0 -55 -36.5 -95t-95.5 -74.5t-208 -112.5q-160 -85 -221 -136t-79.5 -123t-18.5 -225q0 -116 -47.5 -197t-116.5 -81q-16 0 -107 6t-130 6q-29 0 -96 -6t-109 -6q-123 0 -211 38t-88 89q0 36 101.5 109.5
t205.5 123.5z" />
    <glyph glyph-name="aring" unicode="&#x152;" horiz-adv-x="4751" 
d="M528 1798l525 -319v-1033q0 -52 51 -94t155 -97.5t153.5 -89.5t49.5 -75q0 -66 -106 -100.5t-201 -34.5q-62 0 -173 12.5t-191 12.5q-79 0 -191 -12.5t-174 -12.5q-88 0 -197.5 45t-109.5 111q0 40 48 70.5t151 80.5t156.5 91t53.5 93v1352zM2109 1479l525 319v-1352
q0 -52 51 -94t155 -97.5t153.5 -89.5t49.5 -75q0 -66 -106 -100.5t-201 -34.5q-62 0 -173 12.5t-191 12.5q-79 0 -191 -12.5t-174 -12.5q-95 0 -201 34.5t-106 100.5q0 40 48 73.5t152.5 89.5t156.5 98t52 95v1033zM1520 1778h204q187 12 409.5 121t371.5 214t211 156
q106 60 106 193q0 128 -98 139q-58 0 -74 -42t-16 -126v-106l-525 -316v537q0 33 -41.5 43l-83.5 19.5t-42 39.5q-95 63 -95 152q0 51 42 87t122 36q101 0 299 6t299 6q244 0 409 -97.5t165 -328.5q0 -80 -30 -159t-83.5 -143t-120.5 -104l-1007 -618q-18 -8 -29 -8
q-22 0 -62.5 16l-90.5 37.5t-94 35t-89 13.5q-44 0 -86 -13t-87 -33l-89.5 -38t-65.5 -18q-12 0 -28 8l-1008 618q-101 59 -167 180t-66 246q0 406 573 406q101 0 299 -6t299 -6q81 0 122.5 -35.5t41.5 -87.5q0 -89 -94 -152q0 -29 -42 -39l-84 -20.5t-42 -42.5v-537
l-525 316v106q0 84 -15.5 126t-74.5 42q-98 -11 -98 -139q0 -133 106 -193q154 -116 471 -295t603 -196zM2650 520v1938q0 47 -47 88.5t-138.5 96.5t-137.5 93t-46 78q0 65 103 102t188 37q52 0 177 -12t208 -12q67 0 172 12t156 12q95 0 187 -38t92 -101q0 -44 -46 -81.5
t-145 -98t-149 -103.5t-50 -90v-721q-135 -141 -135 -348q0 -148 135 -299v-721q0 -83 70 -113t213 -30q188 0 350.5 83.5t260.5 235.5t98 353q0 483 -340 483q-181 0 -181 -201q0 -80 -68.5 -142.5t-168.5 -62.5q-65 0 -123 25q25 25 25 49q0 42 -17 62t-65 65
q-82 82 -82 221q0 131 80.5 254t240 201t375.5 78q206 0 373.5 -60.5t285 -175t178 -270t60.5 -342.5q0 -282 -107.5 -487.5t-296 -334t-428 -188t-516.5 -59.5q-574 0 -829.5 29t-255.5 106q0 44 111.5 113.5t172 122t60.5 153.5z" />
    <glyph glyph-name="uacute" unicode="&#x153;" horiz-adv-x="3707" 
d="M791 1245h720v582q0 36 -30 64t-86 62.5t-82.5 59.5t-26.5 60q0 65 152 65h639q172 0 172 -86q0 -34 -77.5 -72t-119 -73.5t-41.5 -124.5v-1434q0 -40 30.5 -72t91 -73t88.5 -67t28 -58q0 -44 -96.5 -67t-202.5 -23q-34 0 -98 6t-95 6q-39 0 -96 -6t-88 -6
q-283 0 -283 82q0 31 26 58t82 68.5t84.5 76t28.5 75.5v684h-720v-684q0 -23 20.5 -39t87.5 -53.5t98 -64.5t31 -60q0 -52 -107 -97.5t-184 -45.5q-31 0 -88 6t-96 6q-29 0 -94 -6t-99 -6q-85 0 -183.5 48t-98.5 95q0 34 27 59.5t86 62t79.5 54t20.5 41.5v1434
q0 52 -27.5 84.5t-83.5 68.5t-79 57.5t-23 59.5q0 58 38.5 72t112.5 14h639q144 0 144 -65q0 -35 -27.5 -64.5t-87 -72t-83 -63.5t-23.5 -46v-582zM2884 1233l-291 65v-688q0 -176 143 -176q20 0 57 4t58 4q13 0 47 -4t51 -4q279 0 279 377q0 346 -344 422zM2011 2179h623
q213 0 213 -86q0 -103 -238 -160q0 -35 -6 -205.5l-10 -277.5q0 8 16 8q88 0 277 -34t301 -85q491 -217 491 -716q0 -303 -167.5 -461t-409.5 -158q-36 0 -169.5 18.5t-273.5 18.5q-63 0 -241 -8t-263 -8q-75 0 -191 28.5t-116 73.5q0 66 39.5 111t186.5 114v1471
q0 52 -27.5 84.5t-83.5 68.5t-79 57.5t-23 59.5q0 58 38 72t113 14z" />
    <glyph glyph-name="adieresis" unicode="&#x160;" horiz-adv-x="4342" 
d="M1716 463v1454q148 -16 262 -16q123 0 263 8v-1483q0 -38 34.5 -71t118 -95.5t125 -105.5t41.5 -88q0 -91 -303 -91q-33 0 -138 12.5t-190 12.5q-54 0 -155 -12.5t-148 -12.5q-258 0 -258 119q0 40 39 73t128 89t135 103t46 104zM2650 2163q-172 -97 -314.5 -143
t-340.5 -46q-512 0 -967 144l70 163q362 -143 880 -143q157 0 261 24.5t180.5 70t169.5 122.5q102 67 137 106t35 103q0 73 -37 98t-115 25q-176 0 -176 -66q-123 0 -157.5 -110t-34.5 -303q-361 0 -525 20q-4 218 -58.5 338.5t-223.5 120.5q-193 0 -364 -290t-276.5 -680
t-105.5 -632q0 -297 41 -462t160 -230q368 -205 368 -282q0 -111 -237 -111q-37 0 -125.5 12.5t-157.5 12.5q-68 0 -144 -12.5t-118 -12.5q-59 0 -89 41.5t-44 164t-14 376.5q0 408 80 771t183 620t206.5 453t103.5 204q0 49 -143 49q-78 0 -123 -26t-45 -60q0 -51 43 -89
t88 -55l-94 -208q-252 123 -370 220t-118 230q0 113 96 177.5t220 64.5h2392q159 0 241 -54t82 -188q0 -269 -520 -528zM2241 500v1937q0 47 -47 88.5t-143.5 101t-137.5 93t-41 73.5q0 66 103 103t188 37q60 0 180.5 -12.5t204.5 -12.5q67 0 168 12.5t159 12.5
q94 0 186.5 -38.5t92.5 -101.5q0 -44 -46 -81.5t-147 -99t-148.5 -102t-47.5 -89.5v-721q-135 -141 -135 -348q0 -150 135 -299v-721q0 -82 70 -113t212 -31q188 0 350.5 83.5t260.5 235.5t98 353q0 483 -340 483q-180 0 -180 -200q0 -81 -68.5 -143t-169.5 -62
q-69 0 -123 25q25 23 25 49q0 40 -17 61t-65 66q-82 82 -82 221q0 131 81 254t240 200.5t375 77.5q276 0 479.5 -107t310.5 -300t107 -441q0 -282 -107.5 -487.5t-296 -334t-428 -188t-515.5 -59.5q-381 0 -615.5 12t-352.5 42t-118 82q0 45 116 116.5t172.5 122t56.5 150.5
z" />
    <glyph glyph-name="odieresis" unicode="&#x161;" horiz-adv-x="3502" 
d="M2658 1233l-291 65v-688q0 -176 144 -176q20 0 57 4t58 4q13 0 47 -4t51 -4q278 0 278 377q0 346 -344 422zM1786 2179h622q213 0 213 -86q0 -48 -64 -91t-173 -69q0 -58 -6.5 -217t-10.5 -266q0 8 17 8q88 0 277.5 -34.5t299.5 -84.5q492 -216 492 -716q0 -203 -80 -343
t-212 -208t-286 -68q-34 0 -167.5 18.5t-274.5 18.5q-63 0 -241 -8t-263 -8q-75 0 -191 28.5t-116 73.5q0 66 38 110.5t187 114.5v1471q0 52 -27.5 84.5t-83.5 68.5t-79 57.5t-23 59.5q0 58 38.5 72t113.5 14zM1274 2154h-197q12 0 45.5 -24.5t53.5 -24.5q7 0 22 6.5t31 6.5
q47 0 147 -78l758 -1639q39 -113 83 -156t113.5 -88t69.5 -83q0 -82 -135 -82h-651q-172 0 -172 78q0 29 58.5 81.5t82 78.5t23.5 81q0 54 -9 82l-536 1151l-410 -852l90 191.5t54 128.5q-13 0 -328 -602q-21 -44 -21 -74q0 -69 75 -112.5t220 -43.5h189q119 0 119 45
q0 13 -22.5 49t-22.5 78q0 95 55 148t145 53q59 0 103 -40t53 -103q-8 4 -25 4q-45 0 -45 -66q0 -35 35 -100t35 -129q0 -127 -250 -127h-840q-72 0 -130 32.5t-58 94.5q0 58 90 311l819 1610q26 65 41 89.5t49 24.5q19 0 46.5 -24.5t48.5 -24.5q12 0 43.5 24.5t54.5 24.5z
" />
    <glyph glyph-name="udieresis" unicode="&#x178;" 
d="M291 537v1298q0 45 -32 74t-96 61t-87 48.5t-23 49.5q0 70 140 70h499q123 0 123 -156v-1269q0 -107 51.5 -172.5t149.5 -65.5q70 0 128 14t135.5 43t133 45t123.5 21v1237q0 37 -56 76l-112.5 79t-56.5 78q0 70 139 70h704q144 0 144 -70q0 -36 -29.5 -61t-88 -56
t-89.5 -55.5t-31 -60.5v-1479q0 -51 27 -83.5t83 -68.5t79.5 -57.5t23.5 -60.5q0 -57 -38.5 -71.5t-112.5 -14.5h-664q-143 0 -143 66q0 39 28 70.5t86.5 74t82.5 65t24 52.5v32q-131 -31 -275 -153.5t-210.5 -164.5t-243.5 -42q-258 0 -387 128t-129 409zM1004 -16v-660
h307v656z" />
    <glyph glyph-name="Eacute" unicode="&#x192;" horiz-adv-x="1745" 
d="M291 348v1434q0 52 -27.5 84.5t-83.5 68.5t-79 57.5t-23 59.5q0 58 38.5 72t112.5 14h656q74 0 112.5 -14t38.5 -72q0 -28 -27.5 -54t-82 -61t-83 -60t-28.5 -50v-49q69 19 207.5 139.5t207.5 170.5t167 50q170 0 275.5 -115.5t105.5 -306.5q0 -186 -64 -301.5
t-144.5 -168t-165.5 -86t-85 -50.5q0 -11 8 -29q-24 -8 -41 -8q-56 0 -93.5 33.5t-37.5 97.5q0 51 49 146t49 170q0 143 -139 143q-38 0 -145.5 -40t-153.5 -46v-1229q0 -23 45 -53t88 -53.5t74 -50.5t31 -60q0 -52 -107 -97.5t-184 -45.5q-32 0 -101 6t-108 6q-29 0 -94 -6
t-99 -6q-88 0 -197.5 48t-109.5 95q0 33 31 59t95.5 62.5t88 54.5t23.5 41zM1229 2683l-574 -307l287 307h287z" />
    <glyph glyph-name="ntilde" unicode="&#x2013;" horiz-adv-x="2048" 
d="M1929 995h-1810q-49 0 -84 32t-35 83q0 52 35.5 87.5t83.5 35.5h1810q48 0 83.5 -35.5t35.5 -87.5q0 -51 -35 -83t-84 -32z" />
    <glyph glyph-name="edieresis" unicode="&#x2018;" horiz-adv-x="754" 
d="M340 2236q-112 0 -181 73t-69 202q0 316 275 348q21 5 102.5 16t126.5 27.5t70 54.5q-11 -76 -51 -108.5t-121 -67.5q-78 -28 -120 -57t-57 -90q37 12 70 12q81 0 130.5 -48t49.5 -144q0 -104 -61 -161t-164 -57z" />
    <glyph glyph-name="iacute" unicode="&#x2019;" horiz-adv-x="754" 
d="M414 2957q114 0 182 -72t68 -202q0 -316 -275 -348q-34 -8 -108.5 -17.5t-120 -26.5t-70.5 -55q11 77 52.5 111t119.5 66q78 28 120 57t56 90q-36 -12 -69 -12q-82 0 -131.5 49.5t-49.5 142.5q0 102 61.5 159.5t164.5 57.5z" />
    <glyph glyph-name="igrave" unicode="&#x201c;" horiz-adv-x="1139" 
d="M815 2236q-112 0 -181 73t-69 202q0 316 275 348q21 5 102.5 16t126.5 27.5t70 54.5q-11 -76 -51 -108.5t-121 -67.5q-78 -28 -120.5 -57.5t-55.5 -89.5q36 12 69 12q82 0 131 -48t49 -144q0 -104 -61 -161t-164 -57zM250 2236q-112 0 -181 73t-69 202q0 316 274 348
q25 6 104 16t124.5 27t70.5 55q-11 -77 -50 -108.5t-122 -67.5q-78 -29 -119.5 -57.5t-56.5 -89.5q37 12 70 12q81 0 130.5 -48t49.5 -144q0 -104 -61 -161t-164 -57z" />
    <glyph glyph-name="icircumflex" unicode="&#x201d;" horiz-adv-x="1139" 
d="M324 2957q114 0 181.5 -71.5t67.5 -202.5q0 -316 -274 -348q-34 -8 -108.5 -17.5t-120 -26.5t-70.5 -55q11 77 52.5 111t119.5 66q78 28 120 57t56 90q-36 -12 -69 -12q-82 0 -131.5 49.5t-49.5 142.5q0 102 61.5 159.5t164.5 57.5zM889 2957q114 0 182 -72t68 -202
q0 -316 -275 -348q-32 -7 -108 -17.5t-121 -27t-70 -54.5q12 78 53 111.5t119 65.5q78 28 120 57t56 90q-36 -12 -69 -12q-81 0 -130.5 49t-49.5 143q0 102 60.5 159.5t164.5 57.5z" />
    <glyph glyph-name="Ntilde" unicode="&#x201e;" horiz-adv-x="1139" 
d="M324 397q114 0 181.5 -71.5t67.5 -202.5q0 -316 -274 -348q-34 -8 -108.5 -17.5t-120 -26.5t-70.5 -55q11 77 52.5 111t119.5 66q78 28 120 57t56 90q-36 -12 -69 -12q-82 0 -131.5 49.5t-49.5 142.5q0 102 61.5 159.5t164.5 57.5zM889 397q114 0 182 -72t68 -202
q0 -316 -275 -348q-32 -7 -108 -17.5t-121 -27t-70 -54.5q12 78 53 111.5t119 65.5q78 28 120 57t56 90q-36 -12 -69 -12q-81 0 -130.5 49t-49.5 143q0 102 60.5 159.5t164.5 57.5z" />
    <glyph glyph-name="Udieresis" unicode="&#x2020;" horiz-adv-x="1442" 
d="M791 524v-475q0 -74 -70 -74t-70 74v475q0 79 -41 484l-38 178.5t-29.5 153t-10.5 126.5t41 218.5t59.5 239.5t18.5 198q-86 -1 -132.5 -24t-139 -77.5t-141.5 -54.5q-78 5 -123 53.5t-111 171.5q64 120 110 170.5t124 55.5q49 0 141.5 -54.5t139 -77.5t132.5 -24
q0 105 -27.5 158t-96 154.5t-68.5 154.5q9 65 58.5 106t203.5 123q154 -82 203.5 -123t58.5 -106q0 -52 -68.5 -154t-96 -154.5t-27.5 -158.5q86 1 129 22t139 77.5t145 56.5q80 -5 125 -55.5t109 -170.5q-66 -123 -110.5 -171.5t-123.5 -53.5q-49 0 -145 56.5t-139 77.5
t-129 22q0 -113 15 -184.5t59 -242.5t44 -229q0 -61 -12 -135t-32.5 -166.5t-33.5 -156.5l-19 -181t-15.5 -169t-5.5 -134z" />
    </font>
</defs>
</svg>
